<svg id="svg" version="1.1" xmlns="http://www.w3.org/2000/svg" xmlns:xlink="http://www.w3.org/1999/xlink" width="400" height="400" viewBox="0, 0, 400,400"><g id="svgg"><path id="path0" d="M113.361 192.892 C 112.502 193.053,110.720 193.255,109.400 193.342 C 108.080 193.428,105.740 193.814,104.200 194.199 C 102.660 194.585,101.040 194.940,100.600 194.990 C 100.160 195.039,99.530 195.176,99.200 195.293 C 98.870 195.410,97.790 195.730,96.800 196.003 C 95.810 196.277,94.467 196.735,93.816 197.022 C 93.165 197.309,92.490 197.456,92.316 197.348 C 92.142 197.241,92.000 197.343,92.000 197.576 C 92.000 197.809,91.764 198.000,91.475 198.000 C 90.984 198.000,88.271 199.146,86.705 200.015 C 86.323 200.227,85.738 200.400,85.405 200.400 C 85.072 200.400,84.800 200.559,84.800 200.753 C 84.800 200.948,84.485 201.207,84.100 201.329 C 83.164 201.625,81.034 202.924,80.867 203.300 C 80.793 203.465,80.523 203.601,80.267 203.602 C 80.010 203.603,78.851 204.323,77.692 205.202 C 76.532 206.081,75.447 206.800,75.280 206.800 C 75.113 206.800,74.717 207.160,74.400 207.600 C 74.083 208.040,73.600 208.400,73.328 208.400 C 73.055 208.400,72.105 209.113,71.216 209.984 C 70.327 210.855,69.600 211.514,69.600 211.448 C 69.600 211.166,63.519 217.493,62.890 218.428 C 62.511 218.994,61.971 219.714,61.692 220.028 C 60.051 221.875,59.201 223.060,59.200 223.500 C 59.200 223.775,59.062 224.000,58.894 224.000 C 58.726 224.000,58.144 224.720,57.600 225.600 C 57.056 226.480,56.474 227.200,56.306 227.200 C 56.138 227.200,56.000 227.393,56.000 227.628 C 56.000 227.863,55.460 228.841,54.800 229.800 C 54.140 230.759,53.600 231.722,53.600 231.939 C 53.600 232.156,53.465 232.393,53.300 232.467 C 52.889 232.649,50.400 237.590,50.400 238.223 C 50.400 238.504,50.260 238.793,50.089 238.867 C 49.777 239.000,46.400 245.578,46.400 246.051 C 46.400 246.189,46.098 246.999,45.729 247.851 C 45.360 248.703,45.016 249.625,44.965 249.901 C 44.913 250.176,44.488 251.192,44.021 252.157 C 43.553 253.123,43.207 254.067,43.250 254.256 C 43.294 254.445,43.102 255.140,42.824 255.800 C 42.546 256.460,42.224 257.675,42.107 258.500 C 41.990 259.325,41.738 260.000,41.547 260.000 C 41.356 260.000,41.200 260.619,41.200 261.376 C 41.200 262.133,41.020 262.864,40.800 263.000 C 40.580 263.136,40.400 263.777,40.400 264.424 C 40.400 265.071,40.220 265.600,40.000 265.600 C 39.780 265.600,39.600 266.230,39.600 267.000 C 39.600 267.770,39.420 268.400,39.200 268.400 C 38.980 268.400,38.800 269.199,38.800 270.176 C 38.800 271.153,38.620 272.064,38.400 272.200 C 38.180 272.336,38.000 273.146,38.000 274.000 C 38.000 274.854,37.820 275.664,37.600 275.800 C 37.380 275.936,37.200 276.746,37.200 277.600 C 37.200 278.454,37.020 279.264,36.800 279.400 C 36.580 279.536,36.400 280.537,36.400 281.624 C 36.400 282.711,36.241 283.600,36.047 283.600 C 35.852 283.600,35.573 284.815,35.426 286.300 C 35.279 287.785,35.063 289.990,34.944 291.200 C 34.826 292.410,34.565 293.571,34.365 293.780 C 34.164 293.989,34.000 295.528,34.000 297.200 C 34.000 298.872,33.831 300.411,33.625 300.620 C 32.797 301.460,31.988 341.348,32.783 342.143 C 33.012 342.372,33.200 343.593,33.200 344.856 C 33.200 346.119,33.361 347.252,33.558 347.374 C 33.755 347.495,34.018 348.271,34.142 349.097 C 34.672 352.607,34.908 353.620,35.244 353.827 C 35.440 353.948,35.600 354.577,35.600 355.224 C 35.600 355.871,35.780 356.400,36.000 356.400 C 36.220 356.400,36.400 356.940,36.400 357.600 C 36.400 358.260,36.547 358.800,36.728 358.800 C 36.908 358.800,37.300 359.700,37.600 360.800 C 37.900 361.900,38.292 362.800,38.472 362.800 C 38.653 362.800,38.800 363.160,38.800 363.600 C 38.800 364.040,38.980 364.400,39.200 364.400 C 39.420 364.400,39.600 364.760,39.600 365.200 C 39.600 365.640,39.780 366.000,40.000 366.000 C 40.220 366.000,40.400 366.168,40.400 366.373 C 40.400 366.820,42.854 370.895,43.333 371.245 C 43.517 371.379,43.687 371.649,43.710 371.845 C 43.783 372.468,44.988 374.395,45.306 374.397 C 45.474 374.399,45.942 374.942,46.345 375.605 C 47.538 377.567,52.577 382.650,56.420 385.767 C 58.157 387.176,63.626 390.800,64.015 390.800 C 64.227 390.800,64.400 390.980,64.400 391.200 C 64.400 391.420,64.634 391.600,64.920 391.600 C 65.656 391.600,67.593 392.541,67.597 392.900 C 67.599 393.065,67.853 393.200,68.162 393.200 C 68.647 393.200,69.920 393.752,72.895 395.250 C 73.277 395.443,73.862 395.600,74.195 395.600 C 74.528 395.600,74.800 395.780,74.800 396.000 C 74.800 396.220,75.329 396.400,75.976 396.400 C 76.623 396.400,77.264 396.580,77.400 396.800 C 77.536 397.020,78.076 397.200,78.600 397.200 C 79.124 397.200,79.664 397.380,79.800 397.600 C 79.936 397.820,80.667 398.000,81.424 398.000 C 82.181 398.000,82.800 398.163,82.800 398.361 C 82.800 398.560,83.655 398.824,84.700 398.947 C 85.745 399.070,88.040 399.344,89.800 399.557 C 91.693 399.785,114.197 399.955,144.900 399.972 L 196.800 400.000 196.800 311.600 L 196.800 223.200 194.224 223.200 C 192.807 223.200,191.536 223.020,191.400 222.800 C 191.264 222.580,190.004 222.400,188.600 222.400 C 187.196 222.400,185.936 222.220,185.800 222.000 C 185.664 221.780,184.854 221.600,184.000 221.600 C 183.146 221.600,182.336 221.420,182.200 221.200 C 182.064 220.980,181.481 220.800,180.905 220.800 C 179.834 220.800,177.551 220.180,176.305 219.551 C 175.923 219.358,175.169 219.200,174.629 219.200 C 174.089 219.200,173.536 219.020,173.400 218.800 C 173.264 218.580,172.713 218.400,172.176 218.400 C 171.639 218.400,171.200 218.220,171.200 218.000 C 171.200 217.780,170.928 217.600,170.595 217.600 C 170.262 217.600,169.632 217.420,169.195 217.200 C 168.758 216.980,168.042 216.620,167.605 216.400 C 167.168 216.180,166.536 216.000,166.200 216.000 C 165.864 216.000,165.277 215.841,164.895 215.647 C 164.513 215.452,163.750 215.120,163.200 214.908 C 162.197 214.523,158.170 212.529,154.800 210.750 C 153.810 210.228,152.940 209.665,152.867 209.500 C 152.793 209.335,152.478 209.200,152.167 209.200 C 151.855 209.200,151.600 209.020,151.600 208.800 C 151.600 208.580,151.330 208.400,151.000 208.400 C 150.670 208.400,150.400 208.220,150.400 208.000 C 150.400 207.780,150.207 207.600,149.972 207.600 C 149.587 207.600,146.091 205.382,145.600 204.826 C 145.490 204.702,145.040 204.403,144.600 204.162 C 142.698 203.122,141.787 202.587,141.600 202.400 C 141.164 201.964,138.818 200.400,138.601 200.400 C 138.474 200.400,136.758 199.317,134.789 197.993 C 132.821 196.669,131.116 195.593,131.001 195.601 C 130.886 195.609,130.224 195.323,129.531 194.964 C 125.373 192.814,118.487 191.932,113.361 192.892 " stroke="none" fill="#6cacfc" fill-rule="evenodd"></path><path id="path1" d="M277.900 192.665 C 278.991 193.105,278.304 193.600,276.600 193.600 C 275.441 193.600,274.790 193.422,274.773 193.100 C 274.758 192.825,274.551 193.005,274.312 193.500 C 273.895 194.365,272.400 194.785,272.400 194.037 C 272.400 193.838,272.025 193.773,271.566 193.893 C 270.949 194.054,270.868 194.195,271.255 194.434 C 271.542 194.611,271.651 194.882,271.498 195.035 C 271.345 195.189,270.935 195.078,270.587 194.789 C 270.239 194.501,269.986 194.430,270.025 194.632 C 270.184 195.467,269.974 196.031,269.593 195.796 C 269.370 195.658,269.299 195.364,269.435 195.143 C 269.701 194.713,266.337 196.319,266.000 196.783 C 265.890 196.934,265.488 197.173,265.107 197.314 C 264.687 197.469,264.507 197.812,264.650 198.185 C 264.804 198.587,264.654 198.800,264.219 198.800 C 263.817 198.800,263.666 198.617,263.838 198.338 C 264.015 198.052,263.948 197.985,263.662 198.162 C 263.408 198.319,263.200 198.707,263.200 199.024 C 263.200 199.341,263.009 199.600,262.776 199.600 C 262.543 199.600,262.464 199.420,262.600 199.200 C 262.736 198.980,262.657 198.800,262.424 198.800 C 262.191 198.800,262.000 198.980,262.000 199.200 C 262.000 199.420,261.685 199.618,261.300 199.640 C 260.833 199.666,260.933 199.786,261.600 200.000 C 262.559 200.307,262.563 200.322,261.700 200.360 C 261.205 200.382,260.800 200.580,260.800 200.800 C 260.800 201.020,260.530 201.200,260.200 201.200 C 259.870 201.200,259.600 201.380,259.600 201.600 C 259.600 201.820,259.330 202.000,259.000 202.000 C 258.670 202.000,258.400 202.180,258.400 202.400 C 258.400 202.620,258.029 202.800,257.576 202.800 C 257.123 202.800,256.864 202.980,257.000 203.200 C 257.136 203.420,256.967 203.600,256.624 203.600 C 256.281 203.600,256.000 203.780,256.000 204.000 C 256.000 204.220,255.629 204.400,255.176 204.400 C 254.723 204.400,254.464 204.580,254.600 204.800 C 254.736 205.020,254.582 205.200,254.257 205.200 C 253.932 205.200,253.562 205.425,253.433 205.700 C 253.247 206.099,253.153 206.099,252.966 205.698 C 252.642 205.003,251.981 205.486,252.260 206.213 C 252.398 206.571,252.248 206.800,251.876 206.800 C 251.541 206.800,251.162 207.025,251.033 207.300 C 250.847 207.699,250.753 207.699,250.566 207.298 C 250.242 206.603,249.581 207.086,249.860 207.813 C 250.001 208.179,249.844 208.400,249.443 208.400 C 249.089 208.400,248.800 208.580,248.800 208.800 C 248.800 209.020,248.519 209.200,248.176 209.200 C 247.833 209.200,247.664 209.020,247.800 208.800 C 247.936 208.580,247.844 208.400,247.597 208.400 C 247.328 208.400,247.249 208.723,247.400 209.200 C 247.580 209.768,247.472 210.000,247.027 210.000 C 246.682 210.000,246.400 210.180,246.400 210.400 C 246.400 210.620,246.130 210.800,245.800 210.800 C 245.470 210.800,245.200 210.626,245.200 210.413 C 245.200 209.954,244.122 210.298,243.000 211.116 C 242.369 211.576,242.348 211.649,242.900 211.462 C 243.353 211.309,243.600 211.429,243.600 211.803 C 243.600 212.199,243.256 212.337,242.500 212.242 C 241.895 212.166,241.627 212.184,241.905 212.282 C 242.890 212.630,241.949 213.171,240.684 212.983 C 239.978 212.878,239.625 212.899,239.900 213.029 C 240.706 213.412,240.474 213.944,239.600 213.716 C 239.035 213.568,238.800 213.704,238.800 214.177 C 238.800 214.546,238.617 214.734,238.393 214.596 C 238.170 214.458,238.105 214.154,238.249 213.920 C 238.400 213.677,238.275 213.574,237.956 213.679 C 237.650 213.780,237.344 214.244,237.275 214.709 C 237.195 215.254,236.946 215.478,236.577 215.336 C 236.262 215.215,236.104 214.955,236.226 214.758 C 236.348 214.561,236.257 214.400,236.024 214.400 C 235.623 214.400,235.428 214.977,235.569 215.748 C 235.603 215.939,235.085 216.015,234.416 215.917 C 233.583 215.795,233.200 215.906,233.200 216.269 C 233.200 216.561,232.919 216.800,232.576 216.800 C 232.233 216.800,232.064 216.620,232.200 216.400 C 232.336 216.180,232.269 216.000,232.051 216.000 C 231.832 216.000,231.540 216.360,231.400 216.800 C 231.247 217.281,230.798 217.598,230.273 217.594 C 229.563 217.589,229.512 217.515,230.000 217.200 C 230.456 216.906,230.471 216.811,230.063 216.806 C 229.767 216.803,229.431 217.160,229.316 217.600 C 229.105 218.407,228.000 218.743,228.000 218.000 C 228.000 217.780,227.820 217.600,227.600 217.600 C 227.380 217.600,227.200 217.960,227.200 218.400 C 227.200 219.022,226.933 219.200,226.000 219.200 C 225.340 219.200,224.800 219.380,224.800 219.600 C 224.800 219.820,224.429 220.000,223.976 220.000 C 223.523 220.000,223.264 219.820,223.400 219.600 C 223.536 219.380,223.367 219.200,223.024 219.200 C 222.462 219.200,222.221 219.667,222.353 220.500 C 222.379 220.665,221.680 220.800,220.800 220.800 C 219.920 220.800,219.200 220.980,219.200 221.200 C 219.200 221.420,218.289 221.600,217.176 221.600 C 215.929 221.600,215.248 221.753,215.400 222.000 C 215.552 222.247,214.871 222.400,213.624 222.400 C 212.511 222.400,211.600 222.580,211.600 222.800 C 211.600 223.020,210.689 223.200,209.576 223.200 C 208.329 223.200,207.648 223.047,207.800 222.800 C 207.936 222.580,207.767 222.400,207.424 222.400 C 207.081 222.400,206.800 222.580,206.800 222.800 C 206.800 223.020,205.900 223.200,204.800 223.200 C 203.700 223.200,202.800 223.372,202.800 223.582 C 202.800 223.792,201.585 224.017,200.100 224.082 L 197.400 224.200 197.299 312.122 L 197.198 400.044 253.466 399.922 C 298.037 399.825,309.768 399.696,309.900 399.300 C 309.992 399.025,310.692 398.800,311.457 398.800 C 312.282 398.800,312.747 398.963,312.600 399.200 C 312.253 399.761,312.867 399.676,313.694 399.048 C 314.075 398.758,314.270 398.404,314.127 398.260 C 313.984 398.117,314.797 398.000,315.933 398.000 C 317.070 398.000,318.000 397.820,318.000 397.600 C 318.000 397.380,318.371 397.200,318.824 397.200 C 319.351 397.200,319.556 397.380,319.393 397.700 C 319.253 397.975,319.497 397.795,319.934 397.300 C 320.441 396.725,321.184 396.400,321.988 396.400 C 322.726 396.400,323.145 396.234,323.000 396.000 C 322.649 395.432,324.142 395.502,324.720 396.080 C 325.093 396.453,325.200 396.364,325.200 395.680 C 325.200 395.067,325.442 394.800,326.000 394.800 C 326.440 394.800,326.800 394.620,326.800 394.400 C 326.800 394.180,327.351 394.000,328.024 394.000 C 328.737 394.000,329.144 393.833,329.000 393.600 C 328.860 393.373,329.196 393.200,329.776 393.200 C 330.339 393.200,330.800 393.020,330.800 392.800 C 330.800 392.580,331.081 392.400,331.424 392.400 C 331.767 392.400,331.936 392.580,331.800 392.800 C 331.664 393.020,331.743 393.200,331.976 393.200 C 332.209 393.200,332.400 392.840,332.400 392.400 C 332.400 391.515,333.019 391.316,333.335 392.100 C 333.446 392.375,333.551 392.200,333.568 391.710 C 333.596 390.937,333.771 390.846,334.900 391.014 C 335.615 391.121,335.975 391.101,335.700 390.971 C 334.732 390.511,335.198 389.936,336.336 390.186 C 337.115 390.357,337.634 390.241,337.985 389.818 C 338.288 389.453,338.328 389.200,338.082 389.200 C 337.854 389.200,337.586 389.425,337.488 389.700 C 337.390 389.975,337.197 390.097,337.059 389.971 C 336.725 389.665,338.300 387.998,338.916 388.006 C 339.218 388.010,339.174 388.158,338.800 388.400 C 338.292 388.728,338.312 388.789,338.929 388.794 C 339.329 388.797,339.927 388.530,340.257 388.200 C 340.654 387.803,340.695 387.600,340.380 387.600 C 340.019 387.600,340.024 387.454,340.400 387.000 C 340.952 386.335,341.791 386.167,341.400 386.800 C 341.052 387.363,341.668 387.275,342.500 386.643 C 342.885 386.351,343.200 385.876,343.200 385.587 C 343.200 384.809,346.714 381.565,346.947 382.129 C 347.068 382.422,347.447 382.223,347.951 381.600 C 348.396 381.050,348.602 380.544,348.409 380.476 C 348.215 380.408,349.210 379.148,350.620 377.676 C 352.029 376.204,353.372 374.545,353.603 373.989 C 354.093 372.810,355.600 371.678,355.600 372.489 C 355.600 372.762,356.019 372.359,356.531 371.593 C 357.632 369.945,358.164 368.651,357.595 369.003 C 357.378 369.137,357.200 368.947,357.200 368.581 C 357.200 368.140,357.412 367.996,357.826 368.155 C 358.307 368.339,358.394 368.210,358.199 367.597 C 357.997 366.962,358.134 366.794,358.873 366.768 C 359.383 366.751,359.575 366.646,359.300 366.535 C 358.497 366.211,358.725 365.200,359.600 365.200 C 360.040 365.200,360.400 365.020,360.400 364.800 C 360.400 364.580,360.205 364.400,359.967 364.400 C 359.728 364.400,359.608 364.175,359.700 363.900 C 359.792 363.625,360.062 363.400,360.300 363.400 C 360.538 363.400,360.868 363.265,361.033 363.100 C 361.198 362.935,361.123 362.800,360.867 362.800 C 360.610 362.800,360.400 362.530,360.400 362.200 C 360.400 361.870,360.580 361.600,360.800 361.600 C 361.020 361.600,361.200 361.268,361.200 360.861 C 361.200 360.455,361.605 359.927,362.100 359.688 C 362.595 359.449,362.775 359.242,362.500 359.227 C 361.798 359.189,361.872 357.600,362.576 357.600 C 362.893 357.600,363.281 357.392,363.438 357.138 C 363.615 356.852,363.548 356.785,363.262 356.962 C 362.974 357.139,362.800 356.959,362.800 356.485 C 362.800 356.065,363.205 355.527,363.700 355.288 C 364.195 355.049,364.375 354.842,364.100 354.827 C 363.304 354.784,363.521 353.034,364.400 352.400 C 365.200 351.824,365.556 350.933,364.800 351.400 C 363.989 351.901,364.430 349.867,365.300 349.093 C 365.910 348.550,366.039 348.235,365.700 348.113 C 365.425 348.014,365.200 347.398,365.200 346.743 C 365.200 346.051,365.368 345.656,365.600 345.800 C 365.823 345.938,366.000 345.631,366.000 345.104 C 366.000 344.585,366.225 343.918,366.500 343.621 C 366.900 343.190,366.900 343.139,366.500 343.365 C 366.128 343.575,366.000 343.122,366.000 341.600 C 366.000 340.337,366.153 339.647,366.400 339.800 C 366.651 339.955,366.800 339.097,366.800 337.504 C 366.800 336.023,367.009 334.735,367.300 334.421 C 367.700 333.990,367.700 333.939,367.300 334.165 C 366.913 334.384,366.801 333.428,366.806 329.924 C 366.810 326.855,366.937 325.593,367.200 326.000 C 367.494 326.455,367.589 326.286,367.594 325.300 C 367.597 324.585,367.420 324.000,367.200 324.000 C 366.955 324.000,366.798 322.096,366.794 319.100 C 366.790 315.789,366.662 314.395,366.400 314.800 C 366.136 315.208,366.010 314.036,366.006 311.133 C 366.002 308.106,366.145 306.799,366.500 306.633 C 366.900 306.447,366.900 306.353,366.500 306.167 C 366.225 306.038,366.000 305.308,366.000 304.543 C 366.000 303.718,365.837 303.253,365.600 303.400 C 365.344 303.558,365.200 302.271,365.200 299.824 C 365.200 297.541,365.039 296.000,364.800 296.000 C 364.580 296.000,364.400 295.179,364.400 294.176 C 364.400 293.063,364.556 292.449,364.800 292.600 C 365.020 292.736,365.200 292.657,365.200 292.424 C 365.200 292.191,365.020 292.000,364.800 292.000 C 364.580 292.000,364.400 291.640,364.400 291.200 C 364.400 290.760,364.220 290.400,364.000 290.400 C 363.774 290.400,363.600 289.259,363.600 287.776 C 363.600 286.129,363.451 285.245,363.200 285.400 C 362.958 285.550,362.800 284.996,362.800 284.000 C 362.800 283.004,362.958 282.450,363.200 282.600 C 363.420 282.736,363.600 282.579,363.600 282.251 C 363.600 281.922,363.240 281.540,362.800 281.400 C 362.201 281.210,362.000 280.795,362.000 279.749 C 362.000 278.920,362.163 278.453,362.400 278.600 C 363.156 279.067,362.800 278.176,362.000 277.600 C 361.390 277.160,361.200 276.565,361.200 275.088 C 361.200 273.900,361.046 273.248,360.800 273.400 C 360.553 273.552,360.400 272.871,360.400 271.624 C 360.400 270.511,360.220 269.600,360.000 269.600 C 359.780 269.600,359.600 268.970,359.600 268.200 C 359.600 267.430,359.420 266.800,359.200 266.800 C 358.613 266.800,358.711 264.805,359.300 264.773 C 359.575 264.758,359.395 264.551,358.900 264.312 C 357.916 263.837,357.727 262.833,358.480 262.080 C 358.853 261.707,358.848 261.600,358.456 261.600 C 358.179 261.600,358.063 261.422,358.197 261.205 C 358.340 260.973,358.169 260.914,357.785 261.061 C 357.208 261.282,357.154 261.026,357.339 258.957 C 357.454 257.660,357.458 257.005,357.347 257.500 C 357.235 257.995,356.977 258.400,356.772 258.400 C 356.284 258.400,356.292 257.068,356.783 256.577 C 357.024 256.336,357.027 255.972,356.789 255.597 C 356.538 255.198,356.410 255.166,356.406 255.500 C 356.403 255.775,356.206 256.000,355.968 256.000 C 355.693 256.000,355.636 255.548,355.811 254.750 C 355.992 253.926,355.944 253.587,355.670 253.756 C 355.142 254.083,354.665 253.343,355.026 252.757 C 355.217 252.449,355.404 252.479,355.644 252.857 C 355.912 253.280,355.989 253.245,355.994 252.700 C 355.997 252.315,355.820 252.000,355.600 252.000 C 355.380 252.000,355.187 251.685,355.172 251.300 C 355.147 250.690,355.105 250.699,354.841 251.373 C 354.624 251.927,354.452 252.007,354.235 251.656 C 354.068 251.386,354.149 250.903,354.415 250.582 C 354.856 250.050,354.677 249.830,353.900 249.953 C 353.735 249.979,353.603 249.595,353.606 249.100 C 353.611 248.372,353.686 248.315,354.000 248.800 C 354.335 249.318,354.389 249.308,354.394 248.727 C 354.397 248.357,354.040 247.940,353.600 247.800 C 353.160 247.660,352.800 247.278,352.800 246.949 C 352.800 246.603,353.010 246.459,353.300 246.607 C 353.575 246.747,353.395 246.503,352.900 246.066 C 352.016 245.286,351.617 244.116,352.400 244.600 C 352.620 244.736,352.800 244.657,352.800 244.424 C 352.800 244.028,352.233 243.831,351.473 243.962 C 351.294 243.992,351.204 243.609,351.273 243.109 C 351.352 242.546,351.210 242.238,350.900 242.300 C 350.604 242.359,350.400 241.982,350.400 241.376 C 350.400 240.796,350.227 240.460,350.000 240.600 C 349.772 240.741,349.600 240.396,349.600 239.800 C 349.600 239.204,349.428 238.859,349.200 239.000 C 348.980 239.136,348.800 238.877,348.800 238.424 C 348.800 237.971,348.620 237.600,348.400 237.600 C 348.180 237.600,348.000 237.240,348.000 236.800 C 348.000 236.360,347.820 236.000,347.600 236.000 C 347.380 236.000,347.200 235.629,347.200 235.176 C 347.200 234.723,347.020 234.464,346.800 234.600 C 346.572 234.741,346.400 234.396,346.400 233.800 C 346.400 233.204,346.228 232.859,346.000 233.000 C 345.780 233.136,345.600 232.982,345.600 232.657 C 345.600 232.332,345.825 231.963,346.100 231.837 C 346.375 231.711,346.169 231.716,345.641 231.849 C 344.816 232.057,344.714 231.973,344.904 231.246 C 345.052 230.681,344.938 230.400,344.563 230.400 C 343.866 230.400,343.821 229.739,344.500 229.465 C 344.775 229.354,344.595 229.249,344.100 229.232 C 343.565 229.213,343.200 228.947,343.200 228.576 C 343.200 228.207,343.388 228.069,343.662 228.238 C 343.941 228.411,344.015 228.348,343.849 228.079 C 343.698 227.835,343.310 227.736,342.987 227.860 C 342.621 228.001,342.400 227.844,342.400 227.443 C 342.400 227.089,342.220 226.800,342.000 226.800 C 341.780 226.800,341.600 226.530,341.600 226.200 C 341.600 225.870,341.401 225.600,341.157 225.600 C 340.914 225.600,340.823 225.317,340.956 224.971 C 341.254 224.194,340.501 222.690,339.977 223.014 C 339.445 223.343,338.288 222.106,338.622 221.565 C 338.931 221.065,338.053 219.200,337.509 219.200 C 337.313 219.200,337.263 219.378,337.397 219.595 C 337.539 219.825,337.372 219.887,336.998 219.744 C 336.644 219.608,336.440 219.272,336.545 218.998 C 336.654 218.715,336.452 218.521,336.079 218.550 C 335.661 218.582,335.253 218.093,334.963 217.216 C 334.539 215.933,332.907 213.753,331.004 211.926 C 330.488 211.430,329.890 211.241,329.304 211.388 C 328.356 211.626,328.037 211.033,328.900 210.637 C 329.175 210.511,328.968 210.516,328.439 210.650 C 327.659 210.847,327.527 210.768,327.735 210.225 C 327.893 209.815,327.831 209.657,327.574 209.816 C 327.345 209.958,326.831 209.697,326.432 209.237 C 326.033 208.777,325.502 208.400,325.253 208.400 C 325.004 208.400,324.845 208.175,324.900 207.900 C 324.955 207.625,324.756 207.451,324.459 207.514 C 324.161 207.576,323.600 207.261,323.212 206.814 C 322.824 206.366,322.200 206.000,321.826 206.000 C 321.321 206.000,321.204 205.768,321.369 205.100 C 321.492 204.605,321.489 204.425,321.363 204.700 C 320.964 205.569,320.335 205.240,320.599 204.300 C 320.781 203.653,320.744 203.557,320.467 203.958 C 320.009 204.621,318.757 204.257,318.941 203.515 C 319.011 203.232,318.993 203.135,318.901 203.300 C 318.652 203.745,317.600 203.664,317.600 203.200 C 317.600 202.980,317.330 202.800,317.000 202.800 C 316.670 202.800,316.400 202.620,316.400 202.400 C 316.400 202.180,316.046 202.000,315.613 202.000 C 315.102 202.000,314.901 201.803,315.040 201.440 C 315.158 201.133,315.062 200.762,314.827 200.617 C 314.592 200.472,314.400 200.543,314.400 200.776 C 314.400 201.518,313.701 201.231,313.484 200.400 C 313.369 199.960,313.067 199.600,312.814 199.600 C 312.560 199.600,312.464 199.780,312.600 200.000 C 312.736 200.220,312.556 200.400,312.200 200.400 C 311.844 200.400,311.664 200.220,311.800 200.000 C 311.940 199.774,311.612 199.600,311.047 199.600 C 310.497 199.600,309.936 199.420,309.800 199.200 C 309.664 198.980,309.203 198.800,308.776 198.800 C 308.255 198.800,308.000 198.525,308.000 197.963 C 308.000 197.203,307.808 197.139,305.901 197.263 C 304.681 197.343,303.800 197.233,303.795 197.000 C 303.780 196.177,303.123 195.600,302.200 195.600 C 301.676 195.600,301.136 195.420,301.000 195.200 C 300.864 194.980,300.448 194.814,300.076 194.832 C 299.656 194.851,299.590 194.940,299.902 195.066 C 300.611 195.351,300.107 196.000,299.176 196.000 C 298.306 196.000,298.133 195.392,298.900 195.031 C 299.175 194.902,298.468 194.891,297.330 195.008 C 296.112 195.132,295.155 195.051,295.006 194.810 C 294.855 194.565,295.286 194.376,296.076 194.340 C 297.212 194.288,297.145 194.244,295.600 194.027 C 294.610 193.888,293.629 193.915,293.420 194.087 C 292.894 194.520,290.497 194.481,290.221 194.034 C 290.097 193.833,290.221 193.577,290.498 193.466 C 290.774 193.354,290.493 193.249,289.874 193.232 C 289.254 193.214,288.403 193.016,287.983 192.791 C 287.366 192.461,287.263 192.499,287.452 192.991 C 287.652 193.512,287.099 193.600,283.643 193.600 C 281.064 193.600,279.600 193.447,279.600 193.176 C 279.600 192.943,279.744 192.842,279.919 192.950 C 280.095 193.058,280.500 192.982,280.819 192.780 C 281.215 192.529,280.762 192.420,279.400 192.438 C 278.300 192.452,277.625 192.554,277.900 192.665 M302.800 196.400 C 302.024 196.901,301.600 196.901,301.600 196.400 C 301.600 196.180,302.005 196.003,302.500 196.006 C 303.228 196.011,303.285 196.086,302.800 196.400 M266.624 197.413 C 266.196 197.736,265.566 197.997,265.224 197.994 C 264.835 197.990,264.977 197.779,265.600 197.433 C 266.937 196.692,267.594 196.678,266.624 197.413 M245.200 211.200 C 245.200 211.420,244.941 211.600,244.624 211.600 C 244.307 211.600,243.936 211.420,243.800 211.200 C 243.664 210.980,243.923 210.800,244.376 210.800 C 244.829 210.800,245.200 210.980,245.200 211.200 M357.200 369.629 C 357.200 370.056,356.229 371.200,355.866 371.200 C 355.761 371.200,355.883 370.751,356.138 370.203 C 356.612 369.181,357.200 368.863,357.200 369.629 " stroke="none" fill="#2484fc" fill-rule="evenodd"></path><path id="path2" d="M182.100 0.272 C 180.505 0.362,179.200 0.607,179.200 0.818 C 179.200 1.028,178.390 1.200,177.400 1.200 C 176.410 1.200,175.600 1.380,175.600 1.600 C 175.600 1.820,174.801 2.000,173.824 2.000 C 172.847 2.000,171.936 2.180,171.800 2.400 C 171.664 2.620,170.944 2.800,170.200 2.800 C 169.456 2.800,168.736 2.980,168.600 3.200 C 168.464 3.420,167.924 3.600,167.400 3.600 C 166.876 3.600,166.336 3.780,166.200 4.000 C 166.064 4.220,165.603 4.400,165.176 4.400 C 164.749 4.400,164.400 4.580,164.400 4.800 C 164.400 5.020,163.860 5.200,163.200 5.200 C 162.540 5.200,162.000 5.380,162.000 5.600 C 162.000 5.820,161.676 6.000,161.280 6.000 C 160.386 6.000,158.407 6.894,158.403 7.300 C 158.401 7.465,158.040 7.600,157.600 7.600 C 157.160 7.600,156.800 7.758,156.800 7.950 C 156.800 8.143,156.215 8.438,155.500 8.606 C 154.785 8.774,154.110 8.951,154.000 8.999 C 153.890 9.047,153.035 9.409,152.100 9.804 C 151.165 10.198,150.400 10.674,150.400 10.861 C 150.400 11.047,150.040 11.200,149.600 11.200 C 149.160 11.200,148.800 11.380,148.800 11.600 C 148.800 11.820,148.564 12.000,148.275 12.000 C 147.987 12.000,147.402 12.315,146.975 12.700 C 146.549 13.085,145.676 13.670,145.037 14.000 C 144.397 14.330,143.343 15.095,142.694 15.700 C 142.046 16.305,141.337 16.800,141.118 16.800 C 140.900 16.800,140.217 17.340,139.600 18.000 C 138.983 18.660,138.270 19.200,138.014 19.200 C 137.758 19.200,136.671 20.100,135.600 21.200 C 134.529 22.300,133.552 23.200,133.431 23.200 C 132.721 23.200,124.800 30.849,124.800 31.534 C 124.800 31.790,124.620 32.000,124.400 32.000 C 124.180 32.000,124.000 32.192,124.000 32.426 C 124.000 32.660,123.100 33.729,122.000 34.800 C 120.900 35.871,120.000 36.958,120.000 37.214 C 120.000 37.470,119.460 38.183,118.800 38.800 C 118.140 39.417,117.600 40.120,117.600 40.364 C 117.600 40.608,117.076 41.356,116.435 42.027 C 115.794 42.697,114.987 43.841,114.642 44.568 C 114.297 45.295,113.741 46.117,113.407 46.394 C 113.073 46.671,112.800 47.146,112.800 47.449 C 112.800 47.752,112.620 48.000,112.400 48.000 C 112.180 48.000,112.000 48.360,112.000 48.800 C 112.000 49.240,111.841 49.600,111.646 49.600 C 111.452 49.600,110.878 50.635,110.371 51.900 C 109.864 53.165,109.288 54.310,109.091 54.445 C 108.893 54.579,108.743 54.803,108.756 54.943 C 108.829 55.694,108.251 57.600,107.950 57.600 C 107.758 57.600,107.600 57.960,107.600 58.400 C 107.600 58.840,107.420 59.200,107.200 59.200 C 106.980 59.200,106.800 59.639,106.800 60.176 C 106.800 60.713,106.620 61.264,106.400 61.400 C 106.180 61.536,106.000 62.087,106.000 62.624 C 106.000 63.161,105.820 63.600,105.600 63.600 C 105.380 63.600,105.200 64.050,105.200 64.600 C 105.200 65.150,105.020 65.600,104.800 65.600 C 104.580 65.600,104.400 66.230,104.400 67.000 C 104.400 67.770,104.220 68.400,104.000 68.400 C 103.780 68.400,103.600 69.120,103.600 70.000 C 103.600 70.880,103.420 71.600,103.200 71.600 C 102.980 71.600,102.800 72.320,102.800 73.200 C 102.800 74.080,102.620 74.800,102.400 74.800 C 102.180 74.800,102.000 75.610,102.000 76.600 C 102.000 77.590,101.820 78.400,101.600 78.400 C 101.371 78.400,101.200 79.600,101.200 81.200 C 101.200 82.800,101.029 84.000,100.800 84.000 C 100.542 84.000,100.400 88.400,100.400 96.400 C 100.400 104.400,100.542 108.800,100.800 108.800 C 101.029 108.800,101.200 110.000,101.200 111.600 C 101.200 113.200,101.371 114.400,101.600 114.400 C 101.820 114.400,102.000 115.300,102.000 116.400 C 102.000 117.500,102.180 118.400,102.400 118.400 C 102.620 118.400,102.800 119.120,102.800 120.000 C 102.800 120.880,102.980 121.600,103.200 121.600 C 103.420 121.600,103.600 122.219,103.600 122.976 C 103.600 123.733,103.780 124.464,104.000 124.600 C 104.220 124.736,104.400 125.287,104.400 125.824 C 104.400 126.361,104.580 126.800,104.800 126.800 C 105.020 126.800,105.200 127.340,105.200 128.000 C 105.200 128.660,105.380 129.200,105.600 129.200 C 105.820 129.200,106.000 129.740,106.000 130.400 C 106.000 131.060,106.180 131.600,106.400 131.600 C 106.620 131.600,106.800 132.039,106.800 132.576 C 106.800 133.113,106.980 133.664,107.200 133.800 C 107.420 133.936,107.600 134.397,107.600 134.824 C 107.600 135.251,107.780 135.600,108.000 135.600 C 108.220 135.600,108.400 135.865,108.400 136.189 C 108.400 136.928,110.457 141.353,110.884 141.533 C 111.058 141.607,111.200 142.012,111.200 142.433 C 111.200 142.855,111.380 143.200,111.600 143.200 C 111.820 143.200,112.000 143.436,112.000 143.725 C 112.000 144.013,112.360 144.636,112.800 145.108 C 113.240 145.580,113.600 146.244,113.600 146.583 C 113.600 146.922,113.758 147.200,113.951 147.200 C 114.145 147.200,114.527 147.740,114.800 148.400 C 115.073 149.060,115.455 149.600,115.649 149.600 C 115.842 149.600,116.000 149.843,116.000 150.141 C 116.000 150.438,116.540 151.246,117.200 151.937 C 117.860 152.628,118.400 153.348,118.400 153.537 C 118.400 153.726,118.940 154.446,119.600 155.137 C 120.260 155.828,120.800 156.510,120.800 156.652 C 120.800 156.795,121.835 157.922,123.100 159.156 C 124.365 160.390,125.905 162.144,126.522 163.054 C 127.586 164.622,129.734 166.800,130.216 166.800 C 130.338 166.800,131.677 168.056,133.191 169.590 C 134.704 171.125,136.167 172.430,136.440 172.490 C 136.714 172.551,137.575 173.185,138.352 173.900 C 139.130 174.615,140.017 175.200,140.323 175.200 C 140.629 175.200,141.383 175.740,142.000 176.400 C 142.617 177.060,143.319 177.600,143.560 177.600 C 143.802 177.600,144.000 177.780,144.000 178.000 C 144.000 178.220,144.360 178.400,144.800 178.400 C 145.240 178.400,145.600 178.580,145.600 178.800 C 145.600 179.020,145.870 179.200,146.200 179.200 C 146.530 179.200,146.800 179.380,146.800 179.600 C 146.800 179.820,147.070 180.000,147.400 180.000 C 147.730 180.000,148.000 180.180,148.000 180.400 C 148.000 180.620,148.320 180.800,148.712 180.800 C 149.103 180.800,149.683 181.160,150.000 181.600 C 150.317 182.040,150.897 182.400,151.288 182.400 C 151.680 182.400,152.000 182.580,152.000 182.800 C 152.000 183.020,152.360 183.200,152.800 183.200 C 153.240 183.200,153.600 183.380,153.600 183.600 C 153.600 183.820,153.960 184.000,154.400 184.000 C 154.840 184.000,155.200 184.180,155.200 184.400 C 155.200 184.620,155.542 184.800,155.959 184.800 C 156.377 184.800,157.745 185.340,159.000 186.000 C 160.255 186.660,161.623 187.200,162.041 187.200 C 162.458 187.200,162.800 187.380,162.800 187.600 C 162.800 187.820,163.340 188.000,164.000 188.000 C 164.660 188.000,165.200 188.180,165.200 188.400 C 165.200 188.620,165.639 188.800,166.176 188.800 C 166.713 188.800,167.264 188.980,167.400 189.200 C 167.536 189.420,168.166 189.600,168.800 189.600 C 169.434 189.600,170.052 189.761,170.174 189.958 C 170.295 190.155,171.071 190.410,171.897 190.525 C 172.724 190.640,174.210 190.922,175.200 191.150 C 176.190 191.378,177.956 191.573,179.124 191.583 C 180.434 191.593,181.152 191.753,181.000 192.000 C 180.844 192.252,181.796 192.400,183.576 192.400 C 185.192 192.400,186.400 192.571,186.400 192.800 C 186.400 193.346,207.462 193.346,207.800 192.800 C 207.936 192.580,209.196 192.400,210.600 192.400 C 212.004 192.400,213.264 192.220,213.400 192.000 C 213.536 191.780,214.582 191.592,215.724 191.583 C 216.866 191.573,218.610 191.380,219.600 191.154 C 220.590 190.927,221.987 190.645,222.704 190.527 C 223.421 190.408,224.106 190.151,224.227 189.956 C 224.348 189.760,224.977 189.600,225.624 189.600 C 226.271 189.600,226.800 189.420,226.800 189.200 C 226.800 188.980,227.340 188.800,228.000 188.800 C 228.660 188.800,229.200 188.620,229.200 188.400 C 229.200 188.180,229.740 188.000,230.400 188.000 C 231.060 188.000,231.600 187.820,231.600 187.600 C 231.600 187.380,232.039 187.200,232.576 187.200 C 233.113 187.200,233.664 187.020,233.800 186.800 C 233.936 186.580,234.397 186.400,234.824 186.400 C 235.251 186.400,235.600 186.220,235.600 186.000 C 235.600 185.780,235.960 185.600,236.400 185.600 C 236.840 185.600,237.200 185.420,237.200 185.200 C 237.200 184.980,237.560 184.800,238.000 184.800 C 238.440 184.800,238.800 184.620,238.800 184.400 C 238.800 184.180,239.149 184.000,239.576 184.000 C 240.003 184.000,240.464 183.820,240.600 183.600 C 240.736 183.380,241.197 183.200,241.624 183.200 C 242.051 183.200,242.400 183.042,242.400 182.849 C 242.400 182.655,242.940 182.273,243.600 182.000 C 244.260 181.727,244.800 181.345,244.800 181.151 C 244.800 180.958,245.120 180.800,245.512 180.800 C 245.903 180.800,246.483 180.440,246.800 180.000 C 247.117 179.560,247.697 179.200,248.088 179.200 C 248.480 179.200,248.800 179.020,248.800 178.800 C 248.800 178.580,249.120 178.400,249.512 178.400 C 249.903 178.400,250.483 178.040,250.800 177.600 C 251.117 177.160,251.613 176.800,251.903 176.800 C 252.192 176.800,252.827 176.437,253.314 175.992 C 253.801 175.548,255.369 174.333,256.797 173.292 C 261.316 169.998,275.200 155.667,275.200 154.295 C 275.200 154.089,275.740 153.417,276.400 152.800 C 277.060 152.183,277.600 151.431,277.600 151.128 C 277.600 150.825,277.960 150.317,278.400 150.000 C 278.840 149.683,279.200 149.103,279.200 148.712 C 279.200 148.320,279.380 148.000,279.600 148.000 C 279.820 148.000,280.000 147.680,280.000 147.288 C 280.000 146.897,280.360 146.317,280.800 146.000 C 281.240 145.683,281.600 145.103,281.600 144.712 C 281.600 144.320,281.758 144.000,281.951 144.000 C 282.145 144.000,282.527 143.460,282.800 142.800 C 283.073 142.140,283.455 141.600,283.649 141.600 C 283.842 141.600,284.000 141.251,284.000 140.824 C 284.000 140.397,284.180 139.936,284.400 139.800 C 284.620 139.664,284.800 139.203,284.800 138.776 C 284.800 138.349,284.980 138.000,285.200 138.000 C 285.420 138.000,285.600 137.640,285.600 137.200 C 285.600 136.760,285.780 136.400,286.000 136.400 C 286.220 136.400,286.400 136.040,286.400 135.600 C 286.400 135.160,286.580 134.800,286.800 134.800 C 287.020 134.800,287.200 134.440,287.200 134.000 C 287.200 133.560,287.380 133.200,287.600 133.200 C 287.820 133.200,288.000 132.660,288.000 132.000 C 288.000 131.340,288.180 130.800,288.400 130.800 C 288.620 130.800,288.800 130.260,288.800 129.600 C 288.800 128.940,288.980 128.400,289.200 128.400 C 289.420 128.400,289.600 127.860,289.600 127.200 C 289.600 126.540,289.780 126.000,290.000 126.000 C 290.220 126.000,290.400 125.471,290.400 124.824 C 290.400 124.177,290.570 123.542,290.777 123.414 C 290.984 123.286,291.277 121.926,291.428 120.391 C 291.580 118.856,291.860 117.600,292.052 117.600 C 292.243 117.600,292.400 116.520,292.400 115.200 C 292.400 113.867,292.578 112.800,292.800 112.800 C 293.029 112.800,293.200 111.600,293.200 110.000 C 293.200 108.400,293.371 107.200,293.600 107.200 C 293.857 107.200,294.000 103.333,294.000 96.400 C 294.000 89.467,293.857 85.600,293.600 85.600 C 293.371 85.600,293.200 84.400,293.200 82.800 C 293.200 81.200,293.029 80.000,292.800 80.000 C 292.580 80.000,292.400 79.010,292.400 77.800 C 292.400 76.590,292.239 75.600,292.042 75.600 C 291.845 75.600,291.556 74.160,291.400 72.400 C 291.244 70.640,290.955 69.200,290.758 69.200 C 290.561 69.200,290.397 68.795,290.394 68.300 C 290.387 67.324,289.518 64.585,289.074 64.141 C 288.923 63.990,288.800 63.447,288.800 62.933 C 288.800 62.420,288.620 62.000,288.400 62.000 C 288.180 62.000,288.000 61.638,288.000 61.195 C 288.000 60.752,287.792 59.987,287.538 59.495 C 286.567 57.618,286.400 57.193,286.400 56.605 C 286.400 56.272,286.220 56.000,286.000 56.000 C 285.780 56.000,285.600 55.640,285.600 55.200 C 285.600 54.760,285.420 54.400,285.200 54.400 C 284.980 54.400,284.800 54.040,284.800 53.600 C 284.800 53.160,284.620 52.800,284.400 52.800 C 284.180 52.800,284.000 52.440,284.000 52.000 C 284.000 51.560,283.820 51.200,283.600 51.200 C 283.380 51.200,283.200 50.840,283.200 50.400 C 283.200 49.960,283.020 49.600,282.800 49.600 C 282.580 49.600,282.400 49.364,282.400 49.075 C 282.400 48.787,282.085 48.194,281.700 47.758 C 280.812 46.753,279.617 44.809,279.329 43.900 C 279.207 43.515,278.948 43.200,278.753 43.200 C 278.559 43.200,278.400 43.002,278.400 42.760 C 278.400 42.519,277.860 41.817,277.200 41.200 C 276.540 40.583,276.000 39.874,276.000 39.623 C 276.000 39.372,275.817 38.949,275.593 38.683 C 274.041 36.844,273.600 36.237,273.600 35.946 C 273.600 35.764,272.430 34.445,271.000 33.015 C 269.570 31.585,268.400 30.276,268.400 30.105 C 268.400 29.382,263.527 24.800,262.758 24.800 C 262.518 24.800,261.291 23.720,260.031 22.400 C 258.771 21.080,257.601 20.000,257.431 20.000 C 257.260 20.000,256.617 19.460,256.000 18.800 C 255.383 18.140,254.663 17.600,254.400 17.600 C 254.137 17.600,253.417 17.060,252.800 16.400 C 252.183 15.740,251.431 15.200,251.128 15.200 C 250.825 15.200,250.317 14.840,250.000 14.400 C 249.683 13.960,249.103 13.600,248.712 13.600 C 248.320 13.600,248.000 13.420,248.000 13.200 C 248.000 12.980,247.680 12.800,247.288 12.800 C 246.897 12.800,246.317 12.440,246.000 12.000 C 245.683 11.560,245.103 11.200,244.712 11.200 C 244.320 11.200,244.000 11.020,244.000 10.800 C 244.000 10.580,243.640 10.400,243.200 10.400 C 242.760 10.400,242.400 10.262,242.400 10.094 C 242.400 9.723,239.431 8.400,238.597 8.400 C 238.269 8.400,238.000 8.220,238.000 8.000 C 238.000 7.780,237.640 7.600,237.200 7.600 C 236.760 7.600,236.400 7.420,236.400 7.200 C 236.400 6.980,236.040 6.800,235.600 6.800 C 235.160 6.800,234.800 6.620,234.800 6.400 C 234.800 6.180,234.260 6.000,233.600 6.000 C 232.940 6.000,232.400 5.820,232.400 5.600 C 232.400 5.380,231.860 5.200,231.200 5.200 C 230.540 5.200,230.000 5.020,230.000 4.800 C 230.000 4.580,229.460 4.400,228.800 4.400 C 228.140 4.400,227.600 4.220,227.600 4.000 C 227.600 3.780,227.060 3.600,226.400 3.600 C 225.740 3.600,225.200 3.420,225.200 3.200 C 225.200 2.980,224.570 2.800,223.800 2.800 C 223.030 2.800,222.400 2.620,222.400 2.400 C 222.400 2.180,221.680 2.000,220.800 2.000 C 219.920 2.000,219.200 1.820,219.200 1.600 C 219.200 1.380,218.315 1.200,217.233 1.200 C 216.067 1.200,215.202 1.006,215.108 0.723 C 214.948 0.244,188.920 -0.111,182.100 0.272 " stroke="none" fill="#f8b377" fill-rule="evenodd"></path><path id="path3" d="" stroke="none" fill="#90a0100" fill-rule="evenodd"></path><path id="path4" d="" stroke="none" fill="#44a0100" fill-rule="evenodd"></path></g></svg>