<svg id="svg" version="1.1" xmlns="http://www.w3.org/2000/svg" xmlns:xlink="http://www.w3.org/1999/xlink" width="400" height="400" viewBox="0, 0, 400,400"><g id="svgg"><path id="path0" d="M139.748 87.366 C 137.895 88.952,137.821 89.117,132.322 103.800 C 131.663 105.560,130.961 107.405,130.762 107.900 C 130.563 108.395,130.237 109.205,130.038 109.700 C 129.839 110.195,129.134 112.040,128.471 113.800 C 127.808 115.560,126.530 118.921,125.633 121.270 C 123.291 127.393,123.626 129.991,127.000 131.887 C 130.861 134.058,133.992 132.457,136.055 127.259 L 137.110 124.600 143.786 124.600 L 150.461 124.600 151.190 126.670 C 153.131 132.182,156.543 134.120,160.446 131.926 C 164.195 129.819,164.277 127.627,160.935 118.800 C 158.210 111.601,156.754 107.743,155.162 103.500 C 154.481 101.685,153.778 99.840,153.600 99.400 C 153.422 98.960,152.705 97.070,152.007 95.200 C 151.309 93.330,150.572 91.487,150.369 91.105 C 150.166 90.723,150.000 90.154,150.000 89.839 C 150.000 86.551,142.745 84.801,139.748 87.366 M179.428 86.859 C 169.744 90.132,166.421 100.873,172.832 108.176 C 174.251 109.791,176.289 110.858,183.200 113.600 C 189.137 115.956,190.074 116.588,189.922 118.133 C 189.516 122.267,182.242 122.078,177.405 117.808 C 172.520 113.498,165.455 118.360,168.200 124.143 C 170.579 129.156,181.429 133.687,187.944 132.389 C 199.408 130.104,204.852 120.567,199.926 111.400 C 198.719 109.154,193.481 104.800,191.987 104.800 C 191.768 104.800,191.277 104.635,190.895 104.433 C 189.482 103.686,186.396 102.400,186.016 102.400 C 184.710 102.400,181.200 100.310,181.200 99.532 C 181.200 96.765,186.835 96.851,191.072 99.683 C 196.971 103.625,203.558 96.986,199.107 91.585 C 197.914 90.138,194.242 88.010,191.600 87.235 C 190.610 86.944,189.278 86.548,188.640 86.353 C 186.643 85.745,181.965 86.001,179.428 86.859 M231.959 86.908 C 229.121 88.804,229.173 88.361,229.293 109.800 C 229.413 131.373,229.276 130.406,232.445 132.023 C 235.279 133.469,238.074 132.689,240.163 129.872 C 240.940 128.824,241.010 128.126,241.134 120.172 C 241.208 115.457,241.388 111.600,241.534 111.600 C 241.680 111.601,242.842 113.086,244.115 114.900 C 256.788 132.963,256.647 132.801,259.759 132.799 C 261.758 132.797,263.728 131.666,264.802 129.904 C 265.905 128.094,266.053 91.377,264.966 89.098 C 263.044 85.066,256.958 84.916,254.638 88.843 C 254.107 89.742,254.000 91.367,254.000 98.495 C 254.000 108.374,254.003 108.364,251.835 105.237 C 250.936 103.940,248.400 100.321,246.200 97.196 C 244.000 94.071,241.518 90.544,240.685 89.359 C 238.254 85.902,234.883 84.955,231.959 86.908 M292.400 86.383 C 291.850 86.559,290.590 86.941,289.600 87.233 C 280.111 90.027,272.995 100.421,273.721 110.427 C 275.204 130.894,298.947 140.002,313.200 125.573 C 326.336 112.274,319.922 90.838,301.494 86.453 C 299.342 85.941,293.913 85.899,292.400 86.383 M42.905 89.887 C 43.514 89.979,44.414 89.977,44.905 89.882 C 45.397 89.787,44.900 89.711,43.800 89.714 C 42.700 89.717,42.297 89.795,42.905 89.887 M353.568 90.300 C 353.118 90.896,353.122 90.925,353.599 90.500 C 354.512 89.686,357.899 89.883,359.338 90.833 L 360.600 91.666 359.400 90.635 C 357.898 89.344,354.442 89.146,353.568 90.300 M46.000 90.125 C 46.000 90.194,46.585 90.779,47.300 91.425 L 48.600 92.600 47.425 91.300 C 46.330 90.088,46.000 89.816,46.000 90.125 M363.200 96.000 C 363.670 96.660,364.144 97.200,364.254 97.200 C 364.364 97.200,364.070 96.660,363.600 96.000 C 363.130 95.340,362.656 94.800,362.546 94.800 C 362.436 94.800,362.730 95.340,363.200 96.000 M346.827 98.509 C 345.355 100.196,345.141 100.548,346.162 99.600 C 347.504 98.354,349.460 95.985,349.127 96.009 C 349.057 96.014,348.022 97.139,346.827 98.509 M34.000 99.000 C 33.028 99.990,32.323 100.800,32.433 100.800 C 32.543 100.800,33.428 99.990,34.400 99.000 C 35.372 98.010,36.077 97.200,35.967 97.200 C 35.857 97.200,34.972 98.010,34.000 99.000 M301.688 98.578 C 309.435 102.165,311.152 111.892,305.061 117.686 C 302.835 119.804,299.683 121.200,297.128 121.200 C 287.548 121.200,281.880 110.448,287.275 102.511 C 290.343 97.999,296.694 96.265,301.688 98.578 M370.367 102.945 C 370.900 103.601,372.400 104.593,372.400 104.289 C 372.400 104.213,371.815 103.722,371.100 103.199 C 370.296 102.610,370.016 102.513,370.367 102.945 M24.101 109.400 C 24.105 110.280,24.187 110.593,24.283 110.095 C 24.379 109.598,24.375 108.878,24.275 108.495 C 24.175 108.113,24.096 108.520,24.101 109.400 M144.896 109.900 C 145.646 112.228,145.556 112.400,143.576 112.400 C 142.709 112.400,141.999 112.265,141.998 112.100 C 141.992 111.222,143.425 108.000,143.821 108.000 C 144.075 108.000,144.559 108.855,144.896 109.900 M365.986 119.500 L 363.800 121.800 366.100 119.614 C 367.365 118.411,368.400 117.376,368.400 117.314 C 368.400 117.017,368.018 117.363,365.986 119.500 M34.400 120.125 C 34.400 120.194,34.985 120.779,35.700 121.425 L 37.000 122.600 35.825 121.300 C 34.730 120.088,34.400 119.816,34.400 120.125 M361.960 124.300 C 361.257 125.345,360.214 126.737,359.641 127.394 C 358.700 128.473,358.691 128.511,359.549 127.794 C 360.491 127.005,363.808 122.400,363.434 122.400 C 363.326 122.400,362.663 123.255,361.960 124.300 M352.198 127.137 C 352.634 127.652,353.353 128.259,353.796 128.486 C 354.645 128.921,354.521 128.787,352.603 127.194 C 351.448 126.235,351.434 126.233,352.198 127.137 M39.967 127.345 C 40.500 128.001,42.000 128.993,42.000 128.689 C 42.000 128.613,41.415 128.122,40.700 127.599 C 39.896 127.010,39.616 126.913,39.967 127.345 M356.400 128.800 L 354.600 129.080 356.276 129.140 C 357.198 129.173,358.064 129.020,358.200 128.800 C 358.336 128.580,358.392 128.427,358.324 128.460 C 358.256 128.493,357.390 128.646,356.400 128.800 M32.267 148.667 C 32.120 148.813,32.000 151.983,32.000 155.709 C 32.000 163.656,32.811 166.262,36.113 168.931 C 38.436 170.808,42.147 172.409,41.410 171.216 C 41.268 170.987,40.801 170.800,40.371 170.800 C 38.474 170.800,34.440 167.359,33.575 165.003 C 33.332 164.342,32.968 163.487,32.767 163.105 C 32.565 162.723,32.400 159.350,32.400 155.608 L 32.400 148.806 59.700 148.700 L 87.000 148.594 59.767 148.497 C 44.788 148.444,32.413 148.520,32.267 148.667 M367.654 161.067 C 367.625 161.544,367.496 162.264,367.370 162.667 C 367.152 163.361,367.164 163.362,367.596 162.688 C 367.847 162.297,367.975 161.577,367.881 161.088 C 367.709 160.201,367.709 160.201,367.654 161.067 M42.700 171.862 L 43.600 172.056 43.600 187.828 L 43.600 203.600 25.977 203.600 L 8.355 203.600 8.542 215.300 C 8.760 228.929,8.892 231.449,9.459 232.780 C 9.689 233.319,9.801 234.418,9.708 235.223 C 9.615 236.028,9.765 237.477,10.041 238.443 C 10.318 239.409,10.568 240.290,10.596 240.400 C 10.748 240.993,11.233 244.011,11.398 245.398 C 11.503 246.277,11.761 247.054,11.972 247.124 C 12.183 247.194,12.255 247.513,12.132 247.833 C 12.009 248.153,12.104 248.906,12.342 249.507 C 12.580 250.108,12.857 251.320,12.958 252.200 C 13.185 254.172,14.513 259.116,15.122 260.255 C 15.369 260.717,15.458 261.209,15.319 261.348 C 15.179 261.487,15.253 262.006,15.483 262.501 C 16.470 264.627,16.800 265.709,16.800 266.819 C 16.800 267.468,16.980 268.000,17.200 268.000 C 17.420 268.000,17.600 268.360,17.600 268.800 C 17.600 269.240,17.780 269.600,18.000 269.600 C 18.220 269.600,18.400 270.230,18.400 271.000 C 18.400 271.770,18.580 272.400,18.800 272.400 C 19.020 272.400,19.200 272.850,19.200 273.400 C 19.200 273.950,19.380 274.400,19.600 274.400 C 19.820 274.400,20.000 274.738,20.000 275.151 C 20.000 275.564,20.263 276.531,20.584 277.300 C 20.905 278.069,21.040 278.840,20.884 279.013 C 20.728 279.187,20.825 279.199,21.100 279.041 C 21.445 278.842,21.600 279.071,21.600 279.776 C 21.600 280.339,21.780 280.800,22.000 280.800 C 22.220 280.800,22.400 281.250,22.400 281.800 C 22.400 282.350,22.580 282.800,22.800 282.800 C 23.020 282.800,23.200 283.171,23.200 283.624 C 23.200 284.077,23.380 284.336,23.600 284.200 C 23.826 284.060,24.000 284.388,24.000 284.953 C 24.000 285.503,24.180 286.064,24.400 286.200 C 24.620 286.336,24.800 286.797,24.800 287.224 C 24.800 287.651,24.974 288.000,25.187 288.000 C 25.401 288.000,25.482 288.241,25.369 288.536 C 25.256 288.831,25.431 289.294,25.758 289.565 C 26.085 289.836,26.254 290.314,26.135 290.626 C 26.015 290.938,26.192 291.299,26.528 291.428 C 26.863 291.556,27.240 291.927,27.364 292.252 C 27.492 292.583,27.418 292.735,27.195 292.597 C 26.503 292.169,26.768 292.725,27.775 293.811 C 28.311 294.390,28.865 295.387,29.006 296.027 C 29.147 296.667,29.428 297.294,29.631 297.419 C 29.834 297.545,30.000 298.097,30.000 298.647 C 30.000 299.197,30.160 299.548,30.355 299.428 C 30.550 299.307,31.190 300.151,31.777 301.304 C 33.431 304.553,34.885 306.987,35.260 307.133 C 35.447 307.207,35.600 307.488,35.600 307.758 C 35.600 308.028,35.915 308.598,36.301 309.025 C 36.686 309.451,37.434 310.655,37.963 311.700 C 38.493 312.745,39.077 313.600,39.263 313.600 C 39.448 313.600,39.600 313.881,39.600 314.224 C 39.600 314.567,39.780 314.736,40.000 314.600 C 40.220 314.464,40.400 314.652,40.400 315.019 C 40.400 315.385,40.850 316.219,41.400 316.873 C 41.950 317.527,42.400 318.318,42.400 318.631 C 42.400 318.944,42.580 319.200,42.800 319.200 C 43.020 319.200,43.200 319.468,43.200 319.795 C 43.200 320.326,43.732 321.133,45.013 322.545 C 45.240 322.795,45.866 323.630,46.404 324.400 C 46.942 325.170,47.792 326.213,48.291 326.718 C 48.791 327.223,49.200 327.789,49.200 327.976 C 49.200 328.163,50.010 329.174,51.000 330.222 C 51.990 331.270,52.800 332.289,52.800 332.486 C 52.800 332.683,53.837 333.869,55.105 335.122 C 56.372 336.375,58.114 338.268,58.976 339.328 C 60.914 341.713,67.535 348.350,69.381 349.758 C 70.132 350.331,71.642 351.655,72.736 352.700 C 73.830 353.745,75.497 355.230,76.440 356.000 C 77.384 356.770,78.480 357.715,78.878 358.100 C 79.275 358.485,79.746 358.800,79.925 358.800 C 80.103 358.800,80.655 359.178,81.151 359.640 C 81.647 360.102,82.176 360.357,82.326 360.207 C 82.477 360.057,82.690 335.188,82.800 304.943 L 83.000 249.952 62.000 250.007 C 38.739 250.069,39.290 250.111,36.572 248.057 C 27.764 241.400,31.439 226.952,42.102 226.314 L 44.005 226.200 43.902 199.000 L 43.800 171.800 42.800 171.734 C 41.919 171.677,41.907 171.692,42.700 171.862 M356.267 171.867 C 356.120 172.013,356.000 184.341,356.000 199.261 L 356.000 226.388 344.500 226.520 L 333.000 226.652 346.400 226.664 C 353.770 226.671,360.160 226.811,360.600 226.975 C 369.922 230.444,371.082 243.146,362.564 248.491 C 360.079 250.050,359.670 250.075,337.800 250.018 L 317.000 249.963 317.103 305.182 C 317.193 353.837,317.277 360.400,317.803 360.400 C 318.131 360.400,318.400 360.220,318.400 360.000 C 318.400 359.780,318.670 359.600,319.000 359.600 C 319.330 359.600,319.600 359.448,319.600 359.261 C 319.600 359.075,319.942 358.760,320.360 358.561 C 321.232 358.147,324.471 355.427,327.222 352.800 C 329.345 350.772,330.724 349.600,330.986 349.600 C 331.349 349.600,341.600 339.023,341.600 338.649 C 341.600 338.515,342.860 337.131,344.400 335.572 C 345.940 334.014,347.200 332.568,347.200 332.359 C 347.200 332.150,348.010 331.169,349.000 330.179 C 349.990 329.189,350.800 328.212,350.800 328.008 C 350.800 327.803,351.206 327.223,351.703 326.718 C 353.127 325.270,356.456 320.698,356.862 319.634 C 357.065 319.102,357.540 318.382,357.918 318.034 C 358.296 317.685,358.860 316.905,359.170 316.300 C 359.481 315.695,359.885 315.200,360.068 315.200 C 360.250 315.200,360.400 314.840,360.400 314.400 C 360.400 313.960,360.558 313.600,360.751 313.600 C 360.945 313.600,361.327 313.060,361.600 312.400 C 361.873 311.740,362.255 311.200,362.449 311.200 C 362.642 311.200,362.800 311.007,362.800 310.772 C 362.800 310.537,363.311 309.592,363.937 308.672 C 364.562 307.752,365.615 306.010,366.278 304.800 C 366.940 303.590,367.897 301.880,368.404 301.000 C 368.911 300.120,369.540 298.998,369.802 298.506 C 370.064 298.014,370.357 297.691,370.454 297.787 C 370.550 297.883,370.669 297.476,370.718 296.881 C 370.767 296.286,370.985 295.740,371.203 295.667 C 371.422 295.593,371.600 295.278,371.600 294.967 C 371.600 294.655,371.772 294.400,371.982 294.400 C 372.192 294.400,372.482 293.767,372.627 292.994 C 372.772 292.221,373.186 291.417,373.546 291.207 C 373.906 290.996,374.037 290.819,373.838 290.812 C 373.639 290.805,373.761 290.485,374.110 290.100 C 374.458 289.715,374.760 289.266,374.781 289.102 C 374.971 287.616,375.362 286.400,375.650 286.400 C 375.843 286.400,376.000 286.128,376.000 285.795 C 376.000 285.187,376.134 284.861,377.332 282.556 C 377.688 281.872,377.864 281.197,377.723 281.056 C 377.582 280.915,377.677 280.800,377.933 280.800 C 378.190 280.800,378.400 280.440,378.400 280.000 C 378.400 279.560,378.560 279.200,378.755 279.200 C 378.950 279.200,379.196 278.705,379.302 278.100 C 379.507 276.929,380.674 273.462,381.253 272.305 C 381.444 271.923,381.600 271.338,381.600 271.005 C 381.600 270.672,381.741 270.400,381.913 270.400 C 382.085 270.400,382.266 269.905,382.316 269.300 C 382.365 268.695,382.694 267.592,383.046 266.849 C 383.398 266.106,383.774 264.936,383.883 264.249 C 383.991 263.562,384.241 262.697,384.440 262.326 C 384.638 261.956,384.800 261.201,384.800 260.650 C 384.800 260.098,384.980 259.536,385.200 259.400 C 385.420 259.264,385.600 258.724,385.600 258.200 C 385.600 257.676,385.780 257.136,386.000 257.000 C 386.220 256.864,386.400 256.054,386.400 255.200 C 386.400 254.346,386.580 253.536,386.800 253.400 C 387.020 253.264,387.200 252.523,387.200 251.753 C 387.200 250.983,387.344 250.442,387.520 250.551 C 387.696 250.659,387.891 250.175,387.953 249.474 C 388.096 247.854,388.317 246.200,388.390 246.200 C 388.421 246.200,388.520 245.494,388.610 244.632 C 388.700 243.769,388.939 242.959,389.140 242.832 C 389.341 242.704,389.475 242.150,389.437 241.600 C 389.399 241.050,389.530 239.880,389.728 239.000 C 389.926 238.120,390.130 236.500,390.181 235.400 C 390.233 234.300,390.406 233.102,390.566 232.737 C 391.008 231.731,391.261 226.524,391.452 214.500 L 391.625 203.600 374.012 203.600 L 356.400 203.600 356.400 187.833 C 356.400 175.594,356.512 172.022,356.900 171.865 C 357.179 171.752,357.209 171.649,356.967 171.632 C 356.728 171.614,356.413 171.720,356.267 171.867 M147.000 187.591 C 136.435 189.511,134.073 203.914,143.419 209.426 C 146.440 211.208,147.921 211.245,202.400 210.913 L 253.800 210.600 255.640 209.693 C 265.084 205.040,264.209 190.796,254.314 188.119 C 252.358 187.590,149.784 187.085,147.000 187.591 M66.500 226.699 C 69.965 226.766,75.635 226.766,79.100 226.699 C 82.565 226.633,79.730 226.578,72.800 226.578 C 65.870 226.578,63.035 226.633,66.500 226.699 M131.300 226.676 C 131.685 226.776,132.315 226.776,132.700 226.676 C 133.085 226.575,132.770 226.493,132.000 226.493 C 131.230 226.493,130.915 226.575,131.300 226.676 M192.100 226.700 C 206.125 226.758,229.075 226.758,243.100 226.700 C 257.125 226.642,245.650 226.594,217.600 226.594 C 189.550 226.594,178.075 226.642,192.100 226.700 M314.900 226.676 C 315.285 226.776,315.915 226.776,316.300 226.676 C 316.685 226.575,316.370 226.493,315.600 226.493 C 314.830 226.493,314.515 226.575,314.900 226.676 M88.000 227.694 C 88.110 227.813,89.100 228.587,90.200 229.412 C 91.378 230.295,91.840 230.519,91.324 229.956 C 90.842 229.430,89.852 228.657,89.124 228.238 C 88.396 227.819,87.890 227.574,88.000 227.694 M125.183 229.900 L 123.400 231.800 125.393 230.000 C 126.488 229.010,127.463 228.155,127.559 228.100 C 127.655 228.045,127.561 228.000,127.350 228.000 C 127.139 228.000,126.164 228.855,125.183 229.900 M308.783 229.900 L 307.000 231.800 308.993 230.000 C 310.088 229.010,311.063 228.155,311.159 228.100 C 311.255 228.045,311.161 228.000,310.950 228.000 C 310.739 228.000,309.764 228.855,308.783 229.900 M92.578 232.000 C 92.931 232.550,93.407 233.693,93.636 234.540 C 93.865 235.388,94.126 236.007,94.215 235.918 C 94.554 235.580,93.547 232.826,92.758 231.932 L 91.936 231.000 92.578 232.000 M94.501 238.200 C 94.505 239.080,94.587 239.393,94.683 238.895 C 94.779 238.398,94.775 237.678,94.675 237.295 C 94.575 236.913,94.496 237.320,94.501 238.200 M94.000 240.503 C 94.000 240.559,93.823 241.222,93.607 241.976 C 93.391 242.729,93.368 243.178,93.555 242.973 C 93.964 242.526,94.503 240.400,94.208 240.400 C 94.093 240.400,94.000 240.446,94.000 240.503 M92.034 245.033 C 91.512 245.794,90.211 246.984,89.142 247.676 C 87.115 248.990,86.551 249.572,88.100 248.752 C 90.350 247.561,93.650 244.316,93.135 243.801 C 93.051 243.717,92.555 244.272,92.034 245.033 M84.400 249.600 C 83.596 249.857,83.557 249.923,84.200 249.932 C 84.640 249.938,85.360 249.789,85.800 249.600 C 86.819 249.162,85.768 249.162,84.400 249.600 M267.600 249.600 C 266.216 249.891,266.214 249.895,267.400 249.941 C 268.060 249.967,268.870 249.813,269.200 249.600 C 269.866 249.170,269.645 249.170,267.600 249.600 M137.603 320.500 C 137.715 359.275,137.850 391.027,137.903 391.059 C 137.956 391.092,139.260 391.245,140.800 391.400 C 142.340 391.555,143.600 391.843,143.600 392.041 C 143.600 392.238,143.960 392.400,144.400 392.400 C 144.840 392.400,145.200 392.580,145.200 392.800 C 145.200 393.020,146.111 393.200,147.224 393.200 C 148.471 393.200,149.152 393.353,149.000 393.600 C 148.764 393.982,149.803 394.194,151.300 394.068 C 151.685 394.036,152.000 394.187,152.000 394.405 C 152.000 394.622,152.540 394.800,153.200 394.800 C 153.890 394.800,154.403 395.012,154.406 395.300 C 154.410 395.633,154.542 395.600,154.800 395.200 C 155.058 394.800,155.190 394.767,155.194 395.100 C 155.198 395.414,155.783 395.600,156.767 395.600 C 157.628 395.600,158.393 395.777,158.467 395.994 C 158.540 396.210,159.455 396.419,160.500 396.458 C 161.545 396.498,162.400 396.681,162.400 396.865 C 162.400 397.049,163.030 397.200,163.800 397.200 C 164.650 397.200,165.202 397.396,165.206 397.700 C 165.210 398.039,165.349 398.007,165.637 397.600 C 165.956 397.148,166.111 397.124,166.264 397.500 C 166.396 397.827,167.355 398.000,169.033 398.000 C 170.478 398.000,171.600 398.175,171.600 398.400 C 171.600 398.620,172.284 398.800,173.120 398.800 C 173.956 398.800,174.865 399.025,175.140 399.300 C 175.529 399.689,180.863 399.800,199.086 399.800 C 217.488 399.800,222.569 399.692,222.700 399.300 C 222.815 398.956,223.856 398.800,226.033 398.800 C 227.775 398.800,229.200 398.665,229.200 398.500 C 229.200 398.335,230.145 398.144,231.300 398.076 C 232.455 398.008,233.460 397.783,233.533 397.576 C 233.607 397.369,233.842 397.200,234.057 397.200 C 234.272 397.200,234.320 397.425,234.165 397.700 C 233.939 398.100,233.990 398.100,234.421 397.700 C 234.718 397.425,235.813 397.200,236.856 397.200 C 237.899 397.200,238.864 397.020,239.000 396.800 C 239.136 396.580,239.777 396.400,240.424 396.400 C 241.095 396.400,241.603 396.185,241.606 395.900 C 241.610 395.567,241.742 395.600,242.000 396.000 C 242.258 396.400,242.390 396.433,242.394 396.100 C 242.397 395.816,242.903 395.600,243.567 395.600 C 244.208 395.600,244.825 395.375,244.936 395.100 C 245.094 394.711,245.224 394.721,245.520 395.143 C 245.785 395.522,245.982 395.552,246.174 395.243 C 246.324 394.999,246.797 394.800,247.224 394.800 C 247.651 394.800,248.003 394.575,248.006 394.300 C 248.010 393.966,248.138 393.998,248.389 394.397 C 248.690 394.872,248.868 394.892,249.263 394.497 C 249.537 394.223,250.084 394.000,250.480 394.000 C 250.876 394.000,251.203 393.775,251.206 393.500 C 251.210 393.167,251.342 393.200,251.600 393.600 C 251.858 394.000,251.990 394.033,251.994 393.700 C 251.997 393.425,252.450 393.200,253.000 393.200 C 253.550 393.200,254.000 393.020,254.000 392.800 C 254.000 392.580,254.609 392.400,255.354 392.400 C 256.099 392.400,257.224 392.131,257.854 391.802 C 258.484 391.474,259.495 391.204,260.100 391.202 C 260.705 391.201,261.200 391.020,261.200 390.800 C 261.200 390.580,261.425 390.445,261.700 390.500 C 262.098 390.580,262.241 376.242,262.400 320.300 L 262.600 250.000 200.000 250.000 L 137.400 250.000 137.603 320.500 " stroke="none" fill="#6cbcf8" fill-rule="evenodd"></path><path id="path1" d="M40.958 90.709 C 40.495 91.089,39.513 92.296,38.776 93.391 C 36.036 97.463,32.687 100.899,28.826 103.600 C 22.607 107.951,22.580 110.853,28.719 114.975 C 31.982 117.166,36.127 121.333,38.387 124.696 C 41.339 129.087,43.986 129.980,46.909 127.571 C 47.729 126.895,48.400 126.177,48.400 125.975 C 48.400 124.450,55.334 117.162,59.415 114.397 C 64.651 110.850,64.582 107.655,59.193 103.995 C 55.864 101.734,52.448 98.466,50.380 95.563 C 46.306 89.844,43.667 88.485,40.958 90.709 M353.358 90.709 C 352.895 91.089,351.913 92.296,351.176 93.391 C 349.818 95.410,349.689 95.582,347.783 97.911 C 346.589 99.370,341.061 104.000,340.512 104.000 C 340.319 104.000,339.405 104.727,338.481 105.615 C 335.343 108.629,336.201 111.673,341.118 114.974 C 344.382 117.166,348.526 121.332,350.787 124.696 C 354.596 130.363,357.834 130.353,361.689 124.663 C 363.866 121.451,368.374 116.911,371.421 114.864 C 376.633 111.362,377.212 107.541,372.943 104.814 C 368.651 102.072,364.827 98.356,361.988 94.168 C 359.182 90.031,355.824 88.684,353.358 90.709 M59.700 148.700 L 32.400 148.806 32.400 155.608 C 32.400 159.350,32.565 162.723,32.767 163.105 C 32.968 163.487,33.332 164.342,33.575 165.003 C 34.426 167.320,38.472 170.800,40.315 170.800 C 40.714 170.800,41.211 170.965,41.420 171.166 C 41.629 171.368,42.250 171.593,42.800 171.666 L 43.800 171.800 43.903 199.100 L 44.006 226.400 64.398 226.400 C 83.563 226.400,84.914 226.446,86.819 227.171 C 98.657 231.668,96.504 247.998,83.800 250.080 C 83.006 250.210,82.999 250.599,82.800 305.605 C 82.597 361.909,82.599 362.000,83.975 362.000 C 84.213 362.000,84.972 362.540,85.663 363.200 C 86.354 363.860,87.122 364.400,87.371 364.400 C 87.620 364.400,88.083 364.760,88.400 365.200 C 88.717 365.640,89.173 366.000,89.413 366.000 C 89.653 366.000,90.198 366.322,90.625 366.717 C 91.051 367.111,92.300 368.045,93.400 368.793 C 94.500 369.541,95.460 370.299,95.533 370.477 C 95.607 370.655,95.984 370.800,96.371 370.800 C 96.759 370.800,97.402 371.160,97.800 371.600 C 98.198 372.040,98.751 372.400,99.029 372.400 C 99.306 372.400,99.593 372.557,99.667 372.749 C 99.835 373.191,103.796 375.200,104.498 375.200 C 104.787 375.200,105.283 375.560,105.600 376.000 C 105.917 376.440,106.497 376.800,106.888 376.800 C 107.280 376.800,107.600 376.980,107.600 377.200 C 107.600 377.420,107.960 377.600,108.400 377.600 C 108.840 377.600,109.200 377.780,109.200 378.000 C 109.200 378.220,109.470 378.400,109.800 378.400 C 110.130 378.400,110.400 378.580,110.400 378.800 C 110.400 379.020,110.760 379.200,111.200 379.200 C 111.640 379.200,112.000 379.380,112.000 379.600 C 112.000 379.820,112.360 380.000,112.800 380.000 C 113.240 380.000,113.600 380.180,113.600 380.400 C 113.600 380.620,113.960 380.800,114.400 380.800 C 114.840 380.800,115.200 380.980,115.200 381.200 C 115.200 381.420,115.560 381.600,116.000 381.600 C 116.440 381.600,116.800 381.780,116.800 382.000 C 116.800 382.220,117.160 382.400,117.600 382.400 C 118.040 382.400,118.400 382.580,118.400 382.800 C 118.400 383.020,118.665 383.200,118.988 383.200 C 119.311 383.200,120.217 383.560,121.000 384.000 C 121.783 384.440,122.779 384.800,123.212 384.800 C 123.645 384.800,124.000 384.980,124.000 385.200 C 124.000 385.420,124.360 385.600,124.800 385.600 C 125.240 385.600,125.600 385.780,125.600 386.000 C 125.600 386.220,125.872 386.400,126.205 386.400 C 126.538 386.400,127.168 386.580,127.605 386.800 C 128.042 387.020,128.758 387.380,129.195 387.600 C 129.632 387.820,130.352 388.000,130.795 388.000 C 131.238 388.000,131.600 388.147,131.600 388.328 C 131.600 388.508,132.511 388.904,133.625 389.207 C 134.739 389.510,135.740 389.903,135.849 390.079 C 135.958 390.256,136.397 390.400,136.825 390.400 C 137.592 390.400,137.601 389.492,137.501 320.300 L 137.400 250.200 134.000 249.959 C 120.907 249.032,116.920 233.022,128.400 227.470 L 130.200 226.600 198.800 226.487 C 269.398 226.370,269.079 226.364,271.996 227.871 C 279.954 231.980,279.836 245.044,271.809 248.582 C 269.359 249.661,268.937 249.759,265.800 249.977 L 262.600 250.200 262.499 320.300 C 262.399 389.492,262.408 390.400,263.175 390.400 C 263.603 390.400,264.064 390.220,264.200 390.000 C 264.336 389.780,264.887 389.600,265.424 389.600 C 265.961 389.600,266.400 389.420,266.400 389.200 C 266.400 388.980,266.850 388.800,267.400 388.800 C 267.950 388.800,268.400 388.620,268.400 388.400 C 268.400 388.180,268.726 388.000,269.125 388.000 C 269.781 388.000,272.315 386.973,274.095 385.985 C 274.477 385.773,275.062 385.600,275.395 385.600 C 275.728 385.600,276.000 385.420,276.000 385.200 C 276.000 384.980,276.439 384.800,276.976 384.800 C 277.513 384.800,278.064 384.620,278.200 384.400 C 278.336 384.180,278.797 384.000,279.224 384.000 C 279.651 384.000,280.000 383.820,280.000 383.600 C 280.000 383.380,280.360 383.200,280.800 383.200 C 281.240 383.200,281.600 383.020,281.600 382.800 C 281.600 382.580,281.960 382.400,282.400 382.400 C 282.840 382.400,283.200 382.220,283.200 382.000 C 283.200 381.780,283.560 381.600,284.000 381.600 C 284.440 381.600,284.800 381.420,284.800 381.200 C 284.800 380.980,285.160 380.800,285.600 380.800 C 286.040 380.800,286.400 380.620,286.400 380.400 C 286.400 380.180,286.760 380.000,287.200 380.000 C 287.640 380.000,288.000 379.820,288.000 379.600 C 288.000 379.380,288.360 379.200,288.800 379.200 C 289.240 379.200,289.600 379.054,289.600 378.875 C 289.600 378.696,290.230 378.302,291.000 378.000 C 291.770 377.698,292.400 377.304,292.400 377.125 C 292.400 376.946,292.771 376.800,293.224 376.800 C 293.677 376.800,293.936 376.620,293.800 376.400 C 293.664 376.180,293.833 376.000,294.176 376.000 C 294.519 376.000,294.800 375.820,294.800 375.600 C 294.800 375.380,295.097 375.200,295.460 375.200 C 296.299 375.200,300.400 373.138,300.400 372.716 C 300.400 372.542,300.670 372.400,301.000 372.400 C 301.330 372.400,301.600 372.250,301.600 372.068 C 301.600 371.885,302.095 371.485,302.700 371.178 C 304.493 370.271,308.549 367.514,309.247 366.728 C 309.603 366.328,310.106 366.000,310.365 366.000 C 310.624 366.000,311.290 365.547,311.844 364.992 C 312.398 364.438,313.048 364.106,313.288 364.254 C 313.549 364.415,313.609 364.338,313.438 364.062 C 313.281 363.808,313.367 363.600,313.629 363.600 C 313.892 363.600,314.409 363.251,314.778 362.825 C 315.148 362.399,315.705 361.994,316.016 361.925 C 316.327 361.856,316.765 361.620,316.990 361.400 C 317.903 360.508,317.120 250.228,316.200 250.095 C 306.203 248.651,301.882 236.961,308.724 229.870 C 311.978 226.498,311.082 226.614,334.897 226.490 L 355.994 226.380 356.097 199.126 L 356.200 171.873 358.756 171.152 C 365.736 169.184,367.800 165.498,367.800 155.000 L 367.800 148.600 227.400 148.597 C 150.180 148.595,74.715 148.641,59.700 148.700 M254.314 188.119 C 264.209 190.796,265.084 205.040,255.640 209.693 L 253.800 210.600 202.400 210.913 C 147.921 211.245,146.440 211.208,143.419 209.426 C 134.073 203.914,136.435 189.511,147.000 187.591 C 149.784 187.085,252.358 187.590,254.314 188.119 M170.200 398.400 C 170.336 398.620,170.707 398.800,171.024 398.800 C 171.341 398.800,171.600 398.620,171.600 398.400 C 171.600 398.180,171.229 398.000,170.776 398.000 C 170.323 398.000,170.064 398.180,170.200 398.400 M222.800 399.200 C 222.800 399.708,224.014 399.708,224.800 399.200 C 225.255 398.906,225.086 398.811,224.100 398.806 C 223.385 398.803,222.800 398.980,222.800 399.200 " stroke="none" fill="#e5e8fb" fill-rule="evenodd"></path><path id="path2" d="M21.800 69.600 C 21.664 69.820,20.843 70.000,19.976 70.000 C 19.109 70.000,18.400 70.180,18.400 70.400 C 18.400 70.620,18.040 70.800,17.600 70.800 C 17.160 70.800,16.800 70.980,16.800 71.200 C 16.800 71.420,16.440 71.600,16.000 71.600 C 15.560 71.600,15.200 71.780,15.200 72.000 C 15.200 72.220,14.944 72.400,14.632 72.400 C 13.674 72.400,10.584 75.815,9.456 78.120 L 8.390 80.301 8.500 109.251 C 8.561 125.173,8.737 138.627,8.892 139.150 C 9.246 140.345,10.312 142.004,11.267 142.847 C 11.670 143.203,12.000 143.703,12.000 143.959 C 12.000 144.216,12.315 144.543,12.700 144.688 C 13.085 144.833,13.877 145.457,14.460 146.075 C 15.044 146.694,15.732 147.200,15.989 147.200 C 16.750 147.200,17.886 148.505,17.296 148.701 C 17.023 148.792,16.800 149.392,16.800 150.033 C 16.800 150.675,16.620 151.200,16.400 151.200 C 16.180 151.200,16.000 151.819,16.000 152.576 C 16.000 153.333,15.820 154.064,15.600 154.200 C 15.380 154.336,15.200 154.977,15.200 155.624 C 15.200 156.271,15.020 156.800,14.800 156.800 C 14.580 156.800,14.400 157.419,14.400 158.176 C 14.400 158.933,14.220 159.664,14.000 159.800 C 13.780 159.936,13.600 160.667,13.600 161.424 C 13.600 162.181,13.420 162.800,13.200 162.800 C 12.980 162.800,12.800 163.520,12.800 164.400 C 12.800 165.280,12.620 166.000,12.400 166.000 C 12.180 166.000,12.000 166.900,12.000 168.000 C 12.000 169.100,11.820 170.000,11.600 170.000 C 11.380 170.000,11.200 170.900,11.200 172.000 C 11.200 173.100,11.036 174.000,10.836 174.000 C 10.635 174.000,10.372 175.035,10.251 176.300 C 10.130 177.565,9.839 179.950,9.605 181.600 C 8.849 186.909,8.481 192.064,8.440 197.900 L 8.400 203.600 26.000 203.600 L 43.600 203.600 43.600 187.800 C 43.600 176.610,43.472 172.000,43.162 172.000 C 39.625 172.000,34.992 168.754,33.216 165.034 L 31.981 162.446 32.090 155.523 L 32.200 148.600 200.100 148.500 L 368.000 148.399 368.000 155.105 C 368.000 166.065,365.871 169.612,358.100 171.597 L 356.400 172.031 356.400 187.815 L 356.400 203.600 374.064 203.600 L 391.728 203.600 391.461 194.138 C 391.315 188.934,391.033 184.479,390.835 184.238 C 390.638 183.997,390.369 182.675,390.238 181.300 C 390.107 179.925,389.894 177.720,389.764 176.400 C 389.635 175.080,389.365 174.000,389.164 174.000 C 388.964 174.000,388.800 173.100,388.800 172.000 C 388.800 170.900,388.620 170.000,388.400 170.000 C 388.180 170.000,388.000 169.100,388.000 168.000 C 388.000 166.900,387.820 166.000,387.600 166.000 C 387.380 166.000,387.200 165.280,387.200 164.400 C 387.200 163.520,387.020 162.800,386.800 162.800 C 386.580 162.800,386.400 162.181,386.400 161.424 C 386.400 160.667,386.220 159.936,386.000 159.800 C 385.780 159.664,385.600 158.933,385.600 158.176 C 385.600 157.419,385.420 156.800,385.200 156.800 C 384.980 156.800,384.800 156.271,384.800 155.624 C 384.800 154.977,384.620 154.336,384.400 154.200 C 384.180 154.064,384.000 153.333,384.000 152.576 C 384.000 151.819,383.820 151.200,383.600 151.200 C 383.380 151.200,383.200 150.675,383.200 150.033 C 383.200 149.392,382.977 148.792,382.704 148.701 C 382.141 148.514,383.233 147.200,383.952 147.200 C 384.705 147.200,389.886 141.761,390.648 140.171 C 391.363 138.677,391.400 137.158,391.400 109.200 C 391.400 77.623,391.428 78.083,389.407 76.406 C 389.073 76.129,388.800 75.736,388.800 75.533 C 388.800 75.027,386.935 73.200,386.418 73.200 C 386.188 73.200,386.000 73.020,386.000 72.800 C 386.000 72.580,385.730 72.400,385.400 72.400 C 385.070 72.400,384.800 72.220,384.800 72.000 C 384.800 71.780,384.440 71.600,384.000 71.600 C 383.560 71.600,383.200 71.420,383.200 71.200 C 383.200 70.980,382.840 70.800,382.400 70.800 C 381.960 70.800,381.600 70.620,381.600 70.400 C 381.600 70.180,380.801 70.000,379.824 70.000 C 378.847 70.000,377.936 69.820,377.800 69.600 C 377.351 68.874,332.873 69.070,332.141 69.802 C 331.315 70.628,68.375 70.526,68.100 69.700 C 67.886 69.058,22.196 68.960,21.800 69.600 M109.634 86.816 C 117.760 89.401,120.759 93.386,117.900 97.801 C 115.978 100.769,113.152 101.209,109.000 99.184 C 100.416 94.998,91.182 100.617,91.669 109.728 C 92.175 119.193,102.473 124.257,109.366 118.429 C 116.683 112.242,124.150 120.427,117.294 127.121 C 109.884 134.356,98.217 134.626,88.800 127.781 C 83.395 123.852,79.610 116.188,79.624 109.200 C 79.655 94.079,95.444 82.302,109.634 86.816 M148.144 87.634 C 149.165 88.533,150.000 89.525,150.000 89.839 C 150.000 90.154,150.166 90.723,150.369 91.105 C 150.572 91.487,151.309 93.330,152.007 95.200 C 152.705 97.070,153.422 98.960,153.600 99.400 C 153.778 99.840,154.481 101.685,155.162 103.500 C 156.754 107.743,158.210 111.601,160.935 118.800 C 164.277 127.627,164.195 129.819,160.446 131.926 C 156.543 134.120,153.131 132.182,151.190 126.670 L 150.461 124.600 143.786 124.600 L 137.110 124.600 136.055 127.259 C 133.992 132.457,130.861 134.058,127.000 131.887 C 123.626 129.991,123.291 127.393,125.633 121.270 C 126.530 118.921,127.808 115.560,128.471 113.800 C 129.134 112.040,129.839 110.195,130.038 109.700 C 130.237 109.205,130.563 108.395,130.762 107.900 C 130.961 107.405,131.663 105.560,132.322 103.800 C 134.546 97.861,136.866 91.809,137.511 90.266 C 139.384 85.784,144.580 84.497,148.144 87.634 M188.640 86.353 C 189.278 86.548,190.610 86.944,191.600 87.235 C 194.242 88.010,197.914 90.138,199.107 91.585 C 203.558 96.986,196.971 103.625,191.072 99.683 C 186.835 96.851,181.200 96.765,181.200 99.532 C 181.200 100.310,184.710 102.400,186.016 102.400 C 186.396 102.400,189.482 103.686,190.895 104.433 C 191.277 104.635,191.768 104.800,191.987 104.800 C 193.481 104.800,198.719 109.154,199.926 111.400 C 204.852 120.567,199.408 130.104,187.944 132.389 C 181.429 133.687,170.579 129.156,168.200 124.143 C 165.455 118.360,172.520 113.498,177.405 117.808 C 182.242 122.078,189.516 122.267,189.922 118.133 C 190.074 116.588,189.137 115.956,183.200 113.600 C 173.987 109.944,172.462 108.849,170.543 104.510 C 166.108 94.482,177.571 82.981,188.640 86.353 M218.388 86.594 C 219.020 86.921,219.956 87.776,220.468 88.494 L 221.400 89.800 221.400 109.271 C 221.400 128.400,221.385 128.761,220.563 129.871 C 217.732 133.692,213.469 133.692,210.637 129.871 C 209.423 128.233,209.317 91.085,210.519 88.882 C 211.942 86.276,215.675 85.191,218.388 86.594 M238.005 86.603 C 238.646 86.934,239.852 88.175,240.685 89.359 C 241.518 90.544,244.000 94.071,246.200 97.196 C 248.400 100.321,250.936 103.940,251.835 105.237 C 254.003 108.364,254.000 108.374,254.000 98.495 C 254.000 91.367,254.107 89.742,254.638 88.843 C 256.958 84.916,263.044 85.066,264.966 89.098 C 266.053 91.377,265.905 128.094,264.802 129.904 C 261.442 135.414,257.446 133.884,250.915 124.585 C 248.448 121.073,245.388 116.715,244.115 114.900 C 242.842 113.086,241.680 111.601,241.534 111.600 C 241.388 111.600,241.208 115.457,241.134 120.172 C 240.985 129.690,240.926 129.911,238.004 131.900 C 235.657 133.497,231.866 132.638,230.161 130.123 C 229.017 128.435,228.774 91.409,229.893 89.208 C 231.344 86.351,235.153 85.128,238.005 86.603 M301.494 86.453 C 319.922 90.838,326.336 112.274,313.200 125.573 C 298.947 140.002,275.204 130.894,273.721 110.427 C 272.995 100.421,280.111 90.027,289.600 87.233 C 290.590 86.941,291.850 86.559,292.400 86.383 C 293.913 85.899,299.342 85.941,301.494 86.453 M46.517 90.406 C 47.081 90.850,48.523 92.605,49.721 94.306 C 52.452 98.185,54.587 100.352,58.400 103.119 C 64.839 107.791,65.063 110.817,59.263 114.758 C 54.802 117.789,51.636 121.118,48.354 126.229 C 45.576 130.554,41.945 130.092,38.278 124.945 C 34.876 120.172,31.659 117.032,26.872 113.814 C 22.352 110.776,22.959 107.740,28.999 103.180 C 33.145 100.050,35.990 97.148,38.417 93.575 C 41.147 89.555,44.010 88.435,46.517 90.406 M358.973 90.219 C 359.492 90.559,360.431 91.594,361.059 92.517 C 364.850 98.096,366.530 99.877,371.266 103.340 C 377.446 107.858,377.661 110.725,372.112 114.613 C 368.332 117.261,364.674 120.889,362.366 124.277 C 357.958 130.749,354.664 130.899,350.582 124.815 C 348.114 121.136,344.740 117.736,340.853 115.013 C 334.800 110.771,334.908 107.761,341.277 103.200 C 345.183 100.403,348.311 97.225,350.924 93.400 C 353.555 89.548,356.295 88.465,358.973 90.219 M293.000 98.091 C 280.627 102.501,283.967 121.200,297.128 121.200 C 299.683 121.200,302.835 119.804,305.061 117.686 C 314.038 109.146,304.672 93.930,293.000 98.091 M142.677 109.900 C 141.773 112.422,141.765 112.400,143.576 112.400 C 144.443 112.400,145.233 112.265,145.331 112.100 C 145.633 111.590,144.311 108.000,143.821 108.000 C 143.566 108.000,143.052 108.855,142.677 109.900 M41.600 226.286 C 29.712 227.585,28.167 247.271,39.755 249.793 C 41.952 250.271,82.375 250.027,84.800 249.521 C 94.818 247.432,97.742 234.507,89.473 228.859 C 86.652 226.932,86.109 226.883,64.471 226.611 C 53.180 226.469,43.730 226.303,43.471 226.243 C 43.212 226.182,42.370 226.202,41.600 226.286 M131.600 226.794 C 128.286 227.250,124.583 229.944,123.341 232.800 C 123.007 233.570,122.568 234.513,122.366 234.895 C 121.872 235.833,121.899 241.090,122.400 241.400 C 122.620 241.536,122.800 241.917,122.800 242.248 C 122.800 244.334,126.931 248.276,130.395 249.494 C 132.295 250.162,264.214 250.229,267.814 249.564 C 273.740 248.468,278.000 243.716,278.000 238.200 C 278.000 234.077,275.250 229.826,271.418 228.028 L 269.000 226.893 201.200 226.720 C 163.910 226.624,132.590 226.658,131.600 226.794 M315.200 226.784 C 311.872 227.261,308.180 229.950,306.941 232.800 C 306.607 233.570,306.168 234.513,305.966 234.895 C 305.472 235.833,305.499 241.090,306.000 241.400 C 306.220 241.536,306.400 241.917,306.400 242.248 C 306.400 244.356,310.504 248.291,313.932 249.470 C 315.559 250.029,357.658 250.306,359.800 249.772 C 370.487 247.104,371.118 230.412,360.659 227.033 C 359.626 226.699,317.406 226.468,315.200 226.784 M390.854 231.620 C 390.825 232.181,390.665 232.812,390.500 233.023 C 390.335 233.233,390.441 233.202,390.735 232.954 C 391.029 232.706,391.188 232.074,391.089 231.551 C 390.911 230.610,390.908 230.610,390.854 231.620 M10.400 241.933 C 10.400 242.630,10.583 243.200,10.808 243.200 C 11.050 243.200,11.108 242.753,10.951 242.100 C 10.575 240.530,10.400 240.477,10.400 241.933 M11.253 246.400 C 11.192 247.307,11.840 248.182,12.174 247.643 C 12.324 247.399,12.270 247.200,12.053 247.200 C 11.836 247.200,11.576 246.885,11.476 246.500 C 11.346 246.004,11.281 245.975,11.253 246.400 M12.006 250.100 C 12.003 250.705,12.180 251.200,12.400 251.200 C 12.906 251.200,12.906 250.383,12.400 249.600 C 12.098 249.132,12.011 249.243,12.006 250.100 M386.692 253.442 C 386.531 253.602,386.400 254.009,386.400 254.347 C 386.400 254.797,386.518 254.842,386.845 254.515 C 387.090 254.270,387.221 253.863,387.137 253.610 C 387.052 253.357,386.852 253.281,386.692 253.442 M16.006 265.100 C 16.003 265.595,16.180 266.000,16.400 266.000 C 16.901 266.000,16.901 265.576,16.400 264.800 C 16.086 264.315,16.011 264.372,16.006 265.100 M17.600 270.200 C 17.600 270.530,17.780 270.800,18.000 270.800 C 18.220 270.800,18.400 270.530,18.400 270.200 C 18.400 269.870,18.220 269.600,18.000 269.600 C 17.780 269.600,17.600 269.870,17.600 270.200 M372.950 291.787 C 372.826 292.110,372.817 292.605,372.931 292.887 C 373.044 293.169,373.151 293.010,373.168 292.533 C 373.186 292.057,373.425 291.576,373.700 291.465 C 374.092 291.307,374.089 291.256,373.687 291.232 C 373.406 291.214,373.074 291.464,372.950 291.787 M27.600 294.111 C 27.600 294.490,27.780 294.800,28.000 294.800 C 28.220 294.800,28.400 295.160,28.400 295.600 C 28.400 296.040,28.574 296.400,28.787 296.400 C 29.228 296.400,28.923 295.378,28.134 294.211 C 27.667 293.522,27.600 293.509,27.600 294.111 M367.445 302.588 C 367.080 303.144,366.922 303.600,367.095 303.600 C 367.484 303.600,368.519 301.986,368.282 301.749 C 368.186 301.653,367.810 302.031,367.445 302.588 " stroke="none" fill="#6a4dc5" fill-rule="evenodd"></path><path id="path3" d="M185.700 0.274 C 184.325 0.364,183.200 0.610,183.200 0.819 C 183.200 1.029,182.480 1.200,181.600 1.200 C 180.720 1.200,180.000 1.380,180.000 1.600 C 180.000 1.820,179.471 2.000,178.824 2.000 C 178.177 2.000,177.536 2.180,177.400 2.400 C 177.264 2.620,176.724 2.800,176.200 2.800 C 175.676 2.800,175.136 2.980,175.000 3.200 C 174.864 3.420,174.403 3.600,173.976 3.600 C 173.549 3.600,173.200 3.780,173.200 4.000 C 173.200 4.220,172.660 4.400,172.000 4.400 C 171.340 4.400,170.800 4.580,170.800 4.800 C 170.800 5.020,170.440 5.200,170.000 5.200 C 169.560 5.200,169.200 5.380,169.200 5.600 C 169.200 5.820,168.840 6.000,168.400 6.000 C 167.960 6.000,167.600 6.180,167.600 6.400 C 167.600 6.620,167.240 6.800,166.800 6.800 C 166.360 6.800,166.000 6.980,166.000 7.200 C 166.000 7.420,165.640 7.600,165.200 7.600 C 164.760 7.600,164.400 7.780,164.400 8.000 C 164.400 8.220,164.065 8.400,163.656 8.400 C 163.247 8.400,162.249 8.850,161.438 9.400 C 160.628 9.950,159.832 10.400,159.671 10.400 C 159.509 10.400,159.117 10.760,158.800 11.200 C 158.483 11.640,157.987 12.000,157.698 12.000 C 157.410 12.000,156.543 12.630,155.773 13.400 C 155.003 14.170,154.205 14.800,153.998 14.800 C 153.367 14.800,143.946 24.389,144.190 24.784 C 144.316 24.987,143.085 27.099,141.455 29.477 C 137.645 35.034,135.354 39.073,134.012 42.600 C 133.611 43.652,133.007 45.160,132.490 46.400 C 130.447 51.295,128.764 59.963,128.666 66.089 L 128.600 70.200 198.600 70.200 L 268.600 70.200 268.735 67.600 C 269.315 56.451,263.191 39.253,254.544 27.747 C 253.365 26.178,252.400 24.533,252.400 24.091 C 252.400 23.279,245.981 16.400,245.223 16.400 C 245.005 16.400,244.236 15.812,243.513 15.093 C 242.791 14.375,241.570 13.348,240.800 12.813 C 240.030 12.277,239.310 11.740,239.200 11.619 C 238.895 11.284,237.606 10.516,235.400 9.353 C 234.300 8.773,233.340 8.141,233.267 7.949 C 233.193 7.757,232.788 7.600,232.367 7.600 C 231.945 7.600,231.600 7.420,231.600 7.200 C 231.600 6.980,231.240 6.800,230.800 6.800 C 230.360 6.800,230.000 6.620,230.000 6.400 C 230.000 6.180,229.651 6.000,229.224 6.000 C 228.797 6.000,228.336 5.820,228.200 5.600 C 228.064 5.380,227.513 5.200,226.976 5.200 C 226.439 5.200,226.000 5.020,226.000 4.800 C 226.000 4.580,225.640 4.400,225.200 4.400 C 224.760 4.400,224.400 4.220,224.400 4.000 C 224.400 3.780,223.961 3.600,223.424 3.600 C 222.887 3.600,222.336 3.420,222.200 3.200 C 222.064 2.980,221.513 2.800,220.976 2.800 C 220.439 2.800,220.000 2.620,220.000 2.400 C 220.000 2.180,219.381 2.000,218.624 2.000 C 217.867 2.000,217.136 1.820,217.000 1.600 C 216.864 1.380,216.058 1.200,215.210 1.200 C 214.341 1.200,213.595 0.984,213.502 0.706 C 213.337 0.212,191.761 -0.124,185.700 0.274 M97.400 86.581 C 76.392 92.834,73.299 119.733,92.400 130.063 C 97.062 132.584,102.801 133.393,107.707 132.220 C 117.515 129.876,122.894 122.521,118.219 117.846 C 115.698 115.324,112.815 115.512,109.373 118.422 C 102.448 124.278,92.177 119.235,91.669 109.728 C 91.182 100.618,100.412 95.001,109.000 99.182 C 114.281 101.754,118.803 99.688,118.799 94.706 C 118.793 88.720,106.233 83.951,97.400 86.581 M212.519 86.784 C 209.747 88.474,209.800 88.035,209.800 109.471 C 209.800 128.397,209.815 128.762,210.637 129.871 C 213.469 133.692,217.732 133.692,220.563 129.871 C 221.385 128.761,221.400 128.400,221.400 109.271 L 221.400 89.800 220.468 88.494 C 218.678 85.983,215.096 85.213,212.519 86.784 " stroke="none" fill="#fbcf3f" fill-rule="evenodd"></path><path id="path4" d="M252.400 24.447 C 252.400 24.693,253.365 26.178,254.544 27.747 C 263.212 39.282,269.338 56.519,268.744 67.701 L 268.600 70.402 299.867 70.401 C 317.064 70.400,331.419 70.291,331.767 70.157 C 332.791 69.764,332.495 68.628,331.163 67.842 C 330.482 67.440,328.813 66.006,327.454 64.655 C 326.094 63.305,324.356 61.718,323.591 61.128 C 322.826 60.538,321.570 59.504,320.800 58.829 C 320.030 58.154,319.247 57.601,319.060 57.601 C 318.874 57.600,318.217 57.060,317.600 56.400 C 316.983 55.740,316.263 55.200,316.000 55.200 C 315.737 55.200,315.017 54.660,314.400 54.000 C 313.783 53.340,313.031 52.800,312.728 52.800 C 312.425 52.800,311.917 52.440,311.600 52.000 C 311.283 51.560,310.769 51.200,310.459 51.200 C 310.148 51.200,309.603 50.874,309.247 50.475 C 308.891 50.076,307.700 49.142,306.600 48.398 C 305.500 47.655,304.540 46.901,304.467 46.723 C 304.393 46.545,304.071 46.400,303.750 46.400 C 303.429 46.400,302.780 46.040,302.308 45.600 C 301.836 45.160,301.213 44.800,300.925 44.800 C 300.636 44.800,300.400 44.620,300.400 44.400 C 300.400 44.180,300.203 44.000,299.962 44.000 C 299.721 44.000,299.035 43.652,298.437 43.227 C 297.840 42.801,296.885 42.336,296.315 42.193 C 295.745 42.050,294.909 41.588,294.456 41.167 C 294.004 40.745,293.356 40.400,293.017 40.400 C 292.678 40.400,292.400 40.254,292.400 40.075 C 292.400 39.896,291.770 39.502,291.000 39.200 C 290.230 38.898,289.600 38.504,289.600 38.325 C 289.600 38.146,289.240 38.000,288.800 38.000 C 288.360 38.000,288.000 37.820,288.000 37.600 C 288.000 37.380,287.640 37.200,287.200 37.200 C 286.760 37.200,286.400 37.020,286.400 36.800 C 286.400 36.580,286.040 36.400,285.600 36.400 C 285.160 36.400,284.800 36.220,284.800 36.000 C 284.800 35.780,284.440 35.600,284.000 35.600 C 283.560 35.600,283.200 35.420,283.200 35.200 C 283.200 34.980,282.840 34.800,282.400 34.800 C 281.960 34.800,281.600 34.620,281.600 34.400 C 281.600 34.180,281.240 34.000,280.800 34.000 C 280.360 34.000,280.000 33.820,280.000 33.600 C 280.000 33.380,279.651 33.200,279.224 33.200 C 278.797 33.200,278.336 33.020,278.200 32.800 C 278.064 32.580,277.513 32.400,276.976 32.400 C 276.439 32.400,276.000 32.264,276.000 32.098 C 276.000 31.931,275.415 31.560,274.700 31.271 C 273.985 30.983,273.087 30.579,272.705 30.374 C 272.323 30.168,271.738 30.000,271.405 30.000 C 271.072 30.000,270.800 29.820,270.800 29.600 C 270.800 29.380,270.260 29.200,269.600 29.200 C 268.940 29.200,268.400 29.020,268.400 28.800 C 268.400 28.580,268.051 28.400,267.624 28.400 C 267.197 28.400,266.736 28.220,266.600 28.000 C 266.464 27.780,265.913 27.600,265.376 27.600 C 264.839 27.600,264.400 27.420,264.400 27.200 C 264.400 26.980,263.948 26.800,263.395 26.800 C 262.842 26.800,262.077 26.637,261.695 26.437 C 260.672 25.902,256.822 24.800,255.978 24.800 C 255.576 24.800,255.136 24.620,255.000 24.400 C 254.661 23.851,252.400 23.892,252.400 24.447 M141.000 25.480 C 139.900 25.812,138.687 26.245,138.305 26.442 C 137.923 26.639,137.158 26.800,136.605 26.800 C 136.052 26.800,135.600 26.947,135.600 27.128 C 135.600 27.308,134.700 27.700,133.600 28.000 C 132.500 28.300,131.600 28.692,131.600 28.872 C 131.600 29.053,131.238 29.200,130.795 29.200 C 130.352 29.200,129.632 29.380,129.195 29.600 C 128.758 29.820,128.042 30.180,127.605 30.400 C 127.168 30.620,126.538 30.800,126.205 30.800 C 125.872 30.800,125.600 30.980,125.600 31.200 C 125.600 31.420,125.240 31.600,124.800 31.600 C 124.360 31.600,124.000 31.747,124.000 31.928 C 124.000 32.108,123.100 32.500,122.000 32.800 C 120.900 33.100,120.000 33.492,120.000 33.672 C 120.000 33.853,119.640 34.000,119.200 34.000 C 118.760 34.000,118.400 34.180,118.400 34.400 C 118.400 34.620,118.040 34.800,117.600 34.800 C 117.160 34.800,116.800 34.980,116.800 35.200 C 116.800 35.420,116.440 35.600,116.000 35.600 C 115.560 35.600,115.200 35.780,115.200 36.000 C 115.200 36.220,114.840 36.400,114.400 36.400 C 113.960 36.400,113.600 36.580,113.600 36.800 C 113.600 37.020,113.240 37.200,112.800 37.200 C 112.360 37.200,112.000 37.380,112.000 37.600 C 112.000 37.820,111.640 38.000,111.200 38.000 C 110.760 38.000,110.400 38.180,110.400 38.400 C 110.400 38.620,110.130 38.800,109.800 38.800 C 109.470 38.800,109.200 38.980,109.200 39.200 C 109.200 39.420,108.840 39.600,108.400 39.600 C 107.960 39.600,107.600 39.780,107.600 40.000 C 107.600 40.220,107.322 40.400,106.983 40.400 C 106.644 40.400,105.996 40.745,105.544 41.167 C 105.091 41.588,104.255 42.050,103.685 42.193 C 103.115 42.336,102.160 42.801,101.563 43.227 C 100.965 43.652,100.279 44.000,100.038 44.000 C 99.797 44.000,99.600 44.180,99.600 44.400 C 99.600 44.620,99.364 44.800,99.075 44.800 C 98.787 44.800,98.164 45.160,97.692 45.600 C 97.220 46.040,96.556 46.400,96.217 46.400 C 95.878 46.400,95.600 46.538,95.600 46.706 C 95.600 46.874,94.880 47.456,94.000 48.000 C 93.120 48.544,92.400 49.126,92.400 49.294 C 92.400 49.462,92.170 49.600,91.888 49.600 C 91.607 49.600,91.117 49.960,90.800 50.400 C 90.483 50.840,89.943 51.200,89.600 51.200 C 89.257 51.200,88.717 51.560,88.400 52.000 C 88.083 52.440,87.575 52.800,87.272 52.800 C 86.969 52.800,86.217 53.340,85.600 54.000 C 84.983 54.660,84.308 55.200,84.099 55.200 C 83.890 55.200,83.154 55.740,82.463 56.400 C 81.772 57.060,81.071 57.600,80.904 57.601 C 80.737 57.601,79.970 58.154,79.200 58.829 C 78.430 59.504,77.174 60.538,76.409 61.128 C 75.644 61.718,73.906 63.305,72.546 64.655 C 71.187 66.006,69.518 67.440,68.837 67.842 C 67.479 68.644,67.439 68.726,67.991 69.600 C 68.322 70.123,72.228 70.213,98.485 70.304 L 128.600 70.408 128.646 66.304 C 128.715 60.213,130.429 51.340,132.490 46.400 C 132.719 45.850,133.039 45.040,133.200 44.600 C 134.974 39.755,137.182 35.709,141.445 29.490 C 145.129 24.116,145.142 24.230,141.000 25.480 M156.724 70.299 C 159.873 70.367,164.913 70.367,167.924 70.299 C 170.936 70.231,168.360 70.176,162.200 70.176 C 156.040 70.176,153.576 70.232,156.724 70.299 " stroke="none" fill="#fb4454" fill-rule="evenodd"></path></g></svg>