<svg id="svg" version="1.1" xmlns="http://www.w3.org/2000/svg" xmlns:xlink="http://www.w3.org/1999/xlink" width="400" height="400" viewBox="0, 0, 400,400"><g id="svgg"><path id="path0" d="M275.035 223.543 C 274.919 223.732,275.007 224.947,275.232 226.243 C 275.456 227.539,275.800 229.590,275.996 230.800 C 276.191 232.010,277.362 238.940,278.596 246.200 C 281.129 261.094,281.155 262.167,279.077 265.657 C 275.876 271.030,269.189 273.002,263.600 270.221 C 261.442 269.147,253.449 264.975,249.000 262.600 C 247.240 261.661,243.190 259.541,240.000 257.889 C 236.810 256.237,233.120 254.307,231.800 253.600 C 230.480 252.893,226.790 250.960,223.600 249.305 C 220.410 247.651,216.720 245.713,215.400 244.999 C 207.582 240.773,200.488 237.245,200.262 237.472 C 200.118 237.616,200.000 255.703,200.000 277.667 L 200.000 317.600 229.176 317.600 C 248.196 317.600,258.439 317.461,258.600 317.200 C 258.762 316.938,270.777 316.800,293.341 316.800 L 327.835 316.800 328.304 314.500 C 328.966 311.259,329.488 230.400,328.847 230.400 C 328.601 230.400,328.400 230.040,328.400 229.600 C 328.400 229.160,328.220 228.800,328.000 228.800 C 327.780 228.800,327.600 228.530,327.600 228.200 C 327.600 227.870,327.420 227.600,327.200 227.600 C 326.980 227.600,326.800 227.407,326.800 227.171 C 326.800 226.618,325.782 225.600,325.229 225.600 C 324.993 225.600,324.800 225.420,324.800 225.200 C 324.800 224.980,324.530 224.800,324.200 224.800 C 323.870 224.800,323.600 224.620,323.600 224.400 C 323.600 224.180,323.240 224.000,322.800 224.000 C 322.360 224.000,322.000 223.820,322.000 223.600 C 322.000 223.099,275.344 223.043,275.035 223.543 M7.801 270.398 C 7.665 270.619,7.203 270.800,6.776 270.800 C 6.349 270.800,6.000 270.980,6.000 271.200 C 6.000 271.420,5.712 271.600,5.360 271.600 C 4.541 271.600,1.453 274.858,0.631 276.591 C -0.291 278.535,-0.226 285.696,0.731 287.600 C 1.878 289.881,2.979 291.595,3.300 291.597 C 3.465 291.599,3.600 291.870,3.600 292.200 C 3.600 292.530,3.780 292.800,4.000 292.800 C 4.220 292.800,4.400 292.988,4.400 293.217 C 4.400 293.446,4.760 294.020,5.200 294.492 C 5.640 294.964,6.000 295.587,6.000 295.875 C 6.000 296.164,6.180 296.400,6.400 296.400 C 6.620 296.400,6.800 296.771,6.800 297.224 C 6.800 297.677,6.980 297.936,7.200 297.800 C 7.420 297.664,7.600 297.833,7.600 298.176 C 7.600 298.519,7.780 298.800,8.000 298.800 C 8.220 298.800,8.400 299.070,8.400 299.400 C 8.400 299.730,8.580 300.000,8.800 300.000 C 9.020 300.000,9.200 300.270,9.200 300.600 C 9.200 300.930,9.560 301.560,10.000 302.000 C 10.440 302.440,10.800 302.911,10.800 303.046 C 10.800 303.182,11.430 304.151,12.200 305.200 C 12.970 306.249,13.600 307.280,13.600 307.492 C 13.600 307.703,13.960 308.202,14.400 308.600 C 14.840 308.998,15.200 309.484,15.200 309.679 C 15.200 309.874,15.560 310.420,16.000 310.892 C 16.440 311.364,16.800 311.987,16.800 312.275 C 16.800 312.564,16.968 312.800,17.173 312.800 C 17.378 312.800,17.653 313.138,17.784 313.551 C 17.916 313.964,18.467 314.819,19.011 315.451 C 20.180 316.811,20.250 317.573,19.300 318.625 C 18.915 319.051,18.345 319.895,18.032 320.500 C 17.720 321.105,17.315 321.600,17.132 321.600 C 16.950 321.600,16.789 321.825,16.776 322.100 C 16.763 322.375,15.229 324.760,13.367 327.400 C 11.504 330.040,9.787 332.695,9.551 333.300 C 9.315 333.905,8.959 334.400,8.761 334.400 C 8.562 334.400,8.400 334.670,8.400 335.000 C 8.400 335.330,8.220 335.600,8.000 335.600 C 7.780 335.600,7.600 335.870,7.600 336.200 C 7.600 336.530,7.420 336.800,7.200 336.800 C 6.980 336.800,6.800 336.988,6.800 337.217 C 6.800 337.446,6.440 338.020,6.000 338.492 C 5.560 338.964,5.200 339.587,5.200 339.875 C 5.200 340.164,5.020 340.400,4.800 340.400 C 4.580 340.400,4.400 340.642,4.400 340.938 C 4.400 341.234,4.040 341.802,3.600 342.200 C 3.160 342.598,2.800 343.166,2.800 343.462 C 2.800 343.758,2.620 344.000,2.400 344.000 C 2.180 344.000,2.000 344.270,2.000 344.600 C 2.000 344.930,1.862 345.200,1.694 345.200 C 0.138 345.200,-0.691 355.023,0.631 357.809 C 1.772 360.214,5.493 363.600,6.995 363.600 C 7.328 363.600,7.600 363.780,7.600 364.000 C 7.600 364.265,26.867 364.400,64.600 364.400 C 102.333 364.400,121.600 364.265,121.600 364.000 C 121.600 363.780,121.105 363.597,120.500 363.594 C 119.430 363.588,114.422 362.428,111.600 361.533 C 94.956 356.254,79.823 341.687,74.479 325.800 C 74.257 325.140,73.935 324.240,73.764 323.800 C 73.165 322.259,72.114 317.797,72.280 317.500 C 72.372 317.335,88.052 317.156,107.124 317.103 L 141.800 317.007 107.000 316.803 L 72.200 316.600 71.861 314.400 C 71.675 313.190,71.405 302.750,71.261 291.200 L 71.000 270.200 39.525 270.098 C 18.737 270.030,7.966 270.132,7.801 270.398 " stroke="none" fill="#db445b" fill-rule="evenodd"></path><path id="path1" d="M396.400 272.567 C 396.400 272.988,397.605 274.128,397.821 273.912 C 397.922 273.811,397.644 273.402,397.202 273.002 C 396.761 272.603,396.400 272.407,396.400 272.567 M72.800 318.051 C 72.800 318.932,73.445 321.584,74.004 323.000 C 74.177 323.440,74.541 324.430,74.813 325.200 C 80.859 342.359,95.378 356.157,112.800 361.300 C 116.541 362.404,119.649 363.072,122.391 363.360 C 123.377 363.464,124.247 363.740,124.325 363.974 C 124.512 364.536,134.800 364.562,134.800 364.000 C 134.800 363.780,135.120 363.600,135.512 363.600 C 135.903 363.600,136.483 363.240,136.800 362.800 C 137.117 362.360,137.567 362.000,137.800 362.000 C 138.033 362.000,138.488 361.623,138.812 361.163 C 139.135 360.702,139.805 359.847,140.300 359.263 C 141.626 357.697,141.639 357.446,141.515 336.600 L 141.400 317.400 107.100 317.298 L 72.800 317.196 72.800 318.051 M258.400 337.018 C 258.400 357.825,258.414 358.007,260.152 359.831 C 260.398 360.090,260.865 360.684,261.188 361.151 C 261.512 361.618,261.967 362.000,262.200 362.000 C 262.433 362.000,262.883 362.360,263.200 362.800 C 263.517 363.240,264.097 363.600,264.488 363.600 C 264.880 363.600,265.200 363.780,265.200 364.000 C 265.200 364.249,267.467 364.400,271.200 364.400 C 274.672 364.400,277.200 364.242,277.200 364.025 C 277.200 363.818,278.055 363.528,279.100 363.380 C 297.819 360.725,314.769 348.178,323.112 330.800 C 325.211 326.428,327.134 320.862,327.302 318.672 L 327.400 317.400 292.900 317.298 L 258.400 317.196 258.400 337.018 M396.860 361.042 C 396.562 361.378,396.399 361.732,396.495 361.829 C 396.592 361.926,396.998 361.644,397.398 361.202 C 397.797 360.761,397.961 360.407,397.762 360.415 C 397.563 360.424,397.157 360.705,396.860 361.042 " stroke="none" fill="#583838" fill-rule="evenodd"></path><path id="path2" d="M78.400 223.600 C 78.400 223.820,77.905 224.003,77.300 224.006 C 76.443 224.011,76.332 224.098,76.800 224.400 C 77.285 224.714,77.228 224.789,76.500 224.794 C 76.005 224.797,75.600 224.991,75.600 225.224 C 75.600 225.457,75.420 225.536,75.200 225.400 C 74.980 225.264,74.800 225.357,74.800 225.607 C 74.800 225.857,74.089 226.723,73.220 227.531 C 72.351 228.339,71.586 229.360,71.520 229.800 C 71.454 230.240,71.240 230.716,71.043 230.859 C 70.610 231.173,71.408 311.222,71.876 314.400 L 72.200 316.600 106.900 316.702 C 129.570 316.769,141.600 316.942,141.600 317.202 C 141.600 317.462,151.707 317.600,170.796 317.600 L 199.992 317.600 200.096 277.300 C 200.153 255.135,200.180 236.950,200.155 236.889 C 200.112 236.781,199.049 237.327,189.400 242.401 C 186.980 243.674,183.110 245.701,180.800 246.905 C 169.392 252.854,167.599 253.794,165.000 255.191 C 163.460 256.019,159.770 257.958,156.800 259.500 C 153.830 261.041,149.240 263.439,146.600 264.828 C 131.269 272.896,128.999 273.208,123.151 268.052 C 119.382 264.729,118.902 261.292,120.771 251.000 C 121.683 245.977,122.100 243.527,122.780 239.200 C 123.005 237.770,123.378 235.520,123.610 234.200 C 124.760 227.644,125.187 224.921,125.193 224.100 L 125.200 223.200 101.800 223.200 C 86.467 223.200,78.400 223.338,78.400 223.600 M280.509 260.000 C 280.509 260.990,280.587 261.395,280.682 260.900 C 280.778 260.405,280.778 259.595,280.682 259.100 C 280.587 258.605,280.509 259.010,280.509 260.000 " stroke="none" fill="#f3647b" fill-rule="evenodd"></path><path id="path3" d="M277.260 179.042 C 276.962 179.378,276.799 179.732,276.895 179.829 C 276.992 179.926,277.398 179.644,277.798 179.202 C 278.197 178.761,278.361 178.407,278.162 178.415 C 277.963 178.424,277.557 178.705,277.260 179.042 M329.067 270.267 C 328.920 270.413,328.800 279.993,328.800 291.555 C 328.800 306.752,328.664 313.162,328.309 314.688 L 327.818 316.800 293.209 316.897 L 258.600 316.993 293.000 317.197 L 327.400 317.400 327.302 318.672 C 327.134 320.862,325.211 326.428,323.112 330.800 C 314.769 348.178,297.819 360.725,279.100 363.380 C 272.937 364.254,280.931 364.400,334.788 364.400 C 392.036 364.400,392.384 364.395,393.830 363.583 C 395.621 362.577,399.135 359.023,399.633 357.714 C 400.738 354.807,399.725 344.800,398.326 344.800 C 398.147 344.800,398.000 344.558,398.000 344.262 C 398.000 343.966,397.640 343.398,397.200 343.000 C 396.760 342.602,396.400 342.074,396.400 341.826 C 396.400 341.579,396.040 341.117,395.600 340.800 C 395.160 340.483,394.800 339.943,394.800 339.600 C 394.800 339.257,394.440 338.717,394.000 338.400 C 393.560 338.083,393.200 337.543,393.200 337.200 C 393.200 336.857,392.840 336.317,392.400 336.000 C 391.960 335.683,391.600 335.131,391.600 334.774 C 391.600 334.417,391.150 333.601,390.600 332.962 C 390.051 332.323,389.601 331.575,389.600 331.300 C 389.600 331.025,389.420 330.800,389.200 330.800 C 388.980 330.800,388.800 330.530,388.800 330.200 C 388.800 329.870,388.620 329.600,388.400 329.600 C 388.180 329.600,388.000 329.412,388.000 329.183 C 388.000 328.766,387.616 328.221,386.300 326.771 C 385.915 326.347,385.600 325.770,385.600 325.488 C 385.600 325.207,385.240 324.717,384.800 324.400 C 384.360 324.083,384.000 323.543,384.000 323.200 C 384.000 322.857,383.640 322.317,383.200 322.000 C 382.760 321.683,382.400 321.143,382.400 320.800 C 382.400 320.457,382.040 319.917,381.600 319.600 C 381.160 319.283,380.800 318.718,380.800 318.345 C 380.800 317.972,380.575 317.562,380.300 317.433 C 379.900 317.247,379.900 317.153,380.300 316.967 C 380.575 316.838,380.800 316.428,380.800 316.055 C 380.800 315.682,381.160 315.117,381.600 314.800 C 382.040 314.483,382.400 313.943,382.400 313.600 C 382.400 313.257,382.760 312.717,383.200 312.400 C 383.640 312.083,384.000 311.569,384.000 311.259 C 384.000 310.948,384.316 310.403,384.703 310.047 C 385.089 309.691,385.644 308.934,385.936 308.364 C 386.228 307.794,386.991 306.714,387.632 305.964 C 388.274 305.214,388.799 304.458,388.799 304.284 C 388.800 303.948,390.263 301.785,391.100 300.882 C 391.375 300.586,391.600 300.035,391.600 299.660 C 391.600 299.284,391.960 298.717,392.400 298.400 C 392.840 298.083,393.200 297.543,393.200 297.200 C 393.200 296.857,393.560 296.317,394.000 296.000 C 394.440 295.683,394.800 295.143,394.800 294.800 C 394.800 294.457,395.160 293.917,395.600 293.600 C 396.040 293.283,396.400 292.746,396.400 292.408 C 396.400 292.069,396.760 291.568,397.200 291.293 C 397.640 291.018,398.000 290.581,398.000 290.322 C 398.000 290.063,398.405 289.421,398.900 288.895 C 399.853 287.882,400.431 280.621,399.818 277.357 C 399.518 275.755,394.802 270.800,393.578 270.800 C 393.150 270.800,392.800 270.620,392.800 270.400 C 392.800 269.949,329.517 269.816,329.067 270.267 M2.602 273.198 C 2.203 273.639,2.007 274.000,2.167 274.000 C 2.588 274.000,3.728 272.795,3.512 272.579 C 3.411 272.478,3.002 272.756,2.602 273.198 M11.213 304.256 C 11.231 304.744,12.357 306.176,12.561 305.971 C 12.655 305.877,12.387 305.375,11.966 304.856 C 11.545 304.336,11.206 304.066,11.213 304.256 M72.347 317.400 C 72.128 317.773,73.064 321.999,73.764 323.800 C 73.935 324.240,74.257 325.140,74.479 325.800 C 79.823 341.687,94.956 356.254,111.600 361.533 C 114.422 362.428,119.430 363.588,120.500 363.594 C 121.105 363.597,121.600 363.780,121.600 364.000 C 121.600 364.220,122.230 364.400,123.000 364.400 C 123.770 364.400,124.400 364.241,124.400 364.047 C 124.400 363.599,122.980 363.213,121.306 363.205 C 116.867 363.187,106.641 359.575,100.002 355.681 C 88.479 348.923,79.227 337.728,74.813 325.200 C 74.541 324.430,74.174 323.440,73.997 323.000 C 73.657 322.159,72.912 319.159,72.704 317.800 C 72.636 317.360,72.476 317.180,72.347 317.400 M2.602 361.202 C 3.002 361.644,3.411 361.922,3.512 361.821 C 3.728 361.605,2.588 360.400,2.167 360.400 C 2.007 360.400,2.203 360.761,2.602 361.202 " stroke="none" fill="#bc2b3c" fill-rule="evenodd"></path><path id="path4" d="M110.400 36.000 C 110.400 36.220,109.990 36.400,109.488 36.400 C 108.987 36.400,108.317 36.760,108.000 37.200 C 107.683 37.640,107.193 38.000,106.912 38.000 C 106.630 38.000,106.400 38.180,106.400 38.400 C 106.400 38.620,106.130 38.800,105.800 38.800 C 105.470 38.800,105.200 39.120,105.200 39.512 C 105.200 39.903,104.840 40.483,104.400 40.800 C 103.960 41.117,103.600 41.697,103.600 42.088 C 103.600 42.480,103.420 42.800,103.200 42.800 C 102.957 42.800,102.800 44.592,102.800 47.376 C 102.800 49.996,102.971 52.058,103.200 52.200 C 103.420 52.336,103.600 52.847,103.600 53.335 C 103.600 53.824,103.960 54.483,104.400 54.800 C 104.840 55.117,105.200 55.607,105.200 55.888 C 105.200 56.170,105.380 56.400,105.600 56.400 C 105.820 56.400,106.000 56.630,106.000 56.912 C 106.000 57.193,106.360 57.683,106.800 58.000 C 107.240 58.317,107.600 58.807,107.600 59.088 C 107.600 59.370,107.750 59.600,107.932 59.600 C 108.115 59.600,108.520 60.095,108.832 60.700 C 109.410 61.819,109.806 62.388,110.700 63.385 C 110.975 63.692,111.201 64.091,111.202 64.271 C 111.203 64.452,111.743 65.175,112.402 65.878 C 113.061 66.581,113.600 67.397,113.600 67.690 C 113.600 67.983,113.960 68.483,114.400 68.800 C 114.840 69.117,115.200 69.580,115.200 69.829 C 115.200 70.078,115.740 70.846,116.400 71.537 C 117.060 72.228,117.600 72.974,117.600 73.196 C 117.600 73.418,117.741 73.600,117.914 73.600 C 118.086 73.600,118.549 74.145,118.943 74.811 C 119.336 75.477,120.095 76.459,120.629 76.993 C 121.163 77.527,121.600 78.125,121.600 78.322 C 121.600 78.520,122.140 79.246,122.800 79.937 C 123.460 80.628,124.000 81.388,124.000 81.628 C 124.000 82.346,127.146 85.141,128.726 85.827 C 129.537 86.179,130.513 86.632,130.895 86.834 C 131.833 87.329,137.490 87.301,137.800 86.800 C 137.936 86.580,138.487 86.400,139.024 86.400 C 139.561 86.400,140.000 86.220,140.000 86.000 C 140.000 85.780,140.275 85.600,140.611 85.600 C 141.404 85.600,144.800 82.204,144.800 81.411 C 144.800 81.075,144.980 80.800,145.200 80.800 C 145.420 80.800,145.600 80.440,145.600 80.000 C 145.600 79.560,145.780 79.200,146.000 79.200 C 146.220 79.200,146.400 78.300,146.400 77.200 C 146.400 76.100,146.580 75.200,146.800 75.200 C 147.020 75.200,147.200 74.851,147.200 74.424 C 147.200 73.997,147.020 73.536,146.800 73.400 C 146.580 73.264,146.400 72.443,146.400 71.576 C 146.400 70.709,146.220 70.000,146.000 70.000 C 145.780 70.000,145.600 69.728,145.600 69.395 C 145.600 68.623,144.801 67.196,143.900 66.357 C 143.515 65.999,143.200 65.478,143.200 65.200 C 143.200 64.922,142.871 64.403,142.468 64.047 C 142.065 63.691,141.050 62.320,140.211 61.000 C 139.372 59.680,138.351 58.309,137.943 57.953 C 137.534 57.597,137.200 57.101,137.200 56.849 C 137.200 56.598,136.660 55.828,136.000 55.137 C 135.340 54.446,134.800 53.678,134.800 53.429 C 134.800 53.180,134.440 52.717,134.000 52.400 C 133.560 52.083,133.200 51.620,133.200 51.371 C 133.200 51.122,132.660 50.354,132.000 49.663 C 131.340 48.972,130.800 48.208,130.800 47.964 C 130.800 47.720,130.260 47.017,129.600 46.400 C 128.940 45.783,128.400 45.031,128.400 44.728 C 128.400 44.425,128.040 43.917,127.600 43.600 C 127.160 43.283,126.800 42.875,126.800 42.694 C 126.800 42.512,126.350 41.914,125.800 41.364 C 125.250 40.814,124.800 40.219,124.800 40.043 C 124.800 39.632,123.392 38.000,123.036 38.000 C 122.888 38.000,122.380 37.640,121.908 37.200 C 121.436 36.760,120.723 36.400,120.325 36.400 C 119.926 36.400,119.600 36.220,119.600 36.000 C 119.600 35.757,117.800 35.600,115.000 35.600 C 112.200 35.600,110.400 35.757,110.400 36.000 M197.200 36.000 C 197.200 36.220,196.570 36.400,195.800 36.400 C 195.030 36.400,194.400 36.580,194.400 36.800 C 194.400 37.020,194.126 37.200,193.791 37.200 C 192.999 37.200,188.800 41.399,188.800 42.191 C 188.800 42.526,188.620 42.800,188.400 42.800 C 188.180 42.800,188.000 43.160,188.000 43.600 C 188.000 44.040,187.820 44.400,187.600 44.400 C 187.380 44.400,187.200 44.771,187.200 45.224 C 187.200 45.677,187.020 45.936,186.800 45.800 C 186.580 45.664,186.400 45.923,186.400 46.376 C 186.400 46.829,186.220 47.200,186.000 47.200 C 185.780 47.200,185.600 47.560,185.600 48.000 C 185.600 48.440,185.420 48.800,185.200 48.800 C 184.980 48.800,184.800 49.160,184.800 49.600 C 184.800 50.040,184.620 50.400,184.400 50.400 C 184.180 50.400,184.000 50.760,184.000 51.200 C 184.000 51.640,183.820 52.000,183.600 52.000 C 183.380 52.000,183.200 52.360,183.200 52.800 C 183.200 53.240,183.020 53.600,182.800 53.600 C 182.580 53.600,182.400 53.865,182.400 54.188 C 182.400 54.511,181.860 55.839,181.200 57.138 C 180.540 58.436,180.000 59.702,180.000 59.949 C 180.000 60.197,179.820 60.400,179.600 60.400 C 179.380 60.400,179.200 60.625,179.201 60.900 C 179.203 61.530,177.503 64.954,177.100 65.133 C 176.935 65.207,176.800 65.612,176.800 66.033 C 176.800 66.455,176.620 66.800,176.400 66.800 C 176.180 66.800,175.999 67.115,175.998 67.500 C 175.996 67.885,175.726 68.716,175.398 69.346 C 175.069 69.976,174.800 70.741,174.800 71.046 C 174.800 71.351,174.620 71.600,174.400 71.600 C 174.180 71.600,174.000 71.960,174.000 72.400 C 174.000 72.840,173.820 73.200,173.600 73.200 C 173.380 73.200,173.200 73.560,173.200 74.000 C 173.200 74.440,173.020 74.800,172.800 74.800 C 172.580 74.800,172.400 75.070,172.400 75.400 C 172.400 75.730,172.220 76.000,172.000 76.000 C 171.780 76.000,171.600 76.360,171.600 76.800 C 171.600 77.240,171.420 77.600,171.200 77.600 C 170.980 77.600,170.800 77.960,170.800 78.400 C 170.800 78.840,170.620 79.200,170.400 79.200 C 170.180 79.200,170.000 79.560,170.000 80.000 C 170.000 80.440,169.820 80.800,169.600 80.800 C 169.380 80.800,169.200 81.160,169.200 81.600 C 169.200 82.040,169.020 82.400,168.800 82.400 C 168.580 82.400,168.400 82.760,168.400 83.200 C 168.400 83.640,168.220 84.000,168.000 84.000 C 167.780 84.000,167.600 84.360,167.600 84.800 C 167.600 85.240,167.420 85.600,167.200 85.600 C 166.980 85.600,166.800 85.960,166.800 86.400 C 166.800 86.840,166.620 87.200,166.400 87.200 C 166.180 87.200,166.000 87.560,166.000 88.000 C 166.000 88.440,165.820 88.800,165.600 88.800 C 165.380 88.800,165.200 89.160,165.200 89.600 C 165.200 90.040,165.020 90.400,164.800 90.400 C 164.580 90.400,164.400 90.760,164.400 91.200 C 164.400 91.640,164.264 92.000,164.098 92.000 C 163.931 92.000,163.560 92.585,163.271 93.300 C 162.983 94.015,162.560 94.943,162.331 95.362 C 162.103 95.782,161.296 97.402,160.539 98.962 C 159.782 100.523,158.991 102.113,158.781 102.495 C 158.571 102.877,158.400 103.462,158.400 103.795 C 158.400 104.128,158.220 104.400,158.000 104.400 C 157.780 104.400,157.600 104.760,157.600 105.200 C 157.600 105.782,157.333 106.000,156.624 106.000 C 156.087 106.000,155.536 106.180,155.400 106.400 C 155.264 106.620,154.004 106.800,152.600 106.800 C 151.196 106.800,149.936 106.980,149.800 107.200 C 149.664 107.420,148.393 107.600,146.976 107.600 C 145.559 107.600,144.400 107.747,144.400 107.927 C 144.400 108.107,142.105 108.474,139.300 108.742 C 136.495 109.010,132.940 109.409,131.400 109.628 C 129.860 109.848,127.610 110.119,126.400 110.231 C 125.190 110.344,123.840 110.599,123.400 110.799 C 122.609 111.157,120.650 111.420,115.600 111.846 C 114.170 111.966,112.829 112.230,112.620 112.432 C 112.411 112.635,111.142 112.800,109.800 112.800 C 108.458 112.800,107.189 112.965,106.980 113.166 C 106.771 113.368,105.430 113.641,104.000 113.773 C 102.570 113.906,100.275 114.116,98.900 114.241 C 97.525 114.366,96.400 114.633,96.400 114.834 C 96.400 115.035,95.230 115.200,93.800 115.200 C 92.333 115.200,91.200 115.374,91.200 115.600 C 91.200 115.825,90.075 116.000,88.624 116.000 C 87.207 116.000,85.936 116.180,85.800 116.400 C 85.664 116.620,84.978 116.804,84.276 116.809 C 83.574 116.814,82.550 117.170,82.000 117.600 C 81.450 118.030,80.847 118.386,80.660 118.391 C 80.144 118.405,78.074 120.737,77.794 121.620 C 77.657 122.049,77.378 122.400,77.173 122.400 C 76.968 122.400,76.800 122.749,76.800 123.176 C 76.800 123.603,76.620 124.064,76.400 124.200 C 76.177 124.338,76.000 126.196,76.000 128.400 C 76.000 130.604,76.177 132.462,76.400 132.600 C 76.620 132.736,76.800 133.119,76.800 133.452 C 76.800 134.400,79.048 137.428,81.295 139.505 C 82.422 140.547,84.826 142.871,86.636 144.670 C 88.446 146.468,90.034 147.833,90.164 147.703 C 90.294 147.573,90.400 147.767,90.400 148.133 C 90.400 148.500,90.577 148.800,90.794 148.800 C 91.226 148.800,96.361 153.755,110.415 167.736 C 115.467 172.761,119.600 176.751,119.600 176.604 C 119.600 176.305,123.661 180.060,124.964 181.565 C 125.424 182.095,126.945 183.686,128.344 185.101 C 130.207 186.984,130.769 187.791,130.444 188.116 C 130.200 188.360,130.000 189.503,130.000 190.656 C 130.000 191.809,129.842 192.851,129.649 192.970 C 129.455 193.089,129.184 194.225,129.045 195.494 C 128.455 200.886,128.304 201.820,127.961 202.180 C 127.763 202.389,127.600 203.478,127.600 204.600 C 127.600 205.722,127.437 206.811,127.237 207.020 C 127.037 207.229,126.788 208.300,126.683 209.400 C 126.578 210.500,126.394 211.940,126.272 212.600 C 126.151 213.260,125.918 214.700,125.753 215.800 C 125.588 216.900,125.400 218.160,125.334 218.600 C 125.268 219.040,125.136 221.200,125.041 223.400 C 124.945 225.600,124.672 228.435,124.433 229.700 C 123.791 233.109,123.239 236.279,122.780 239.200 C 122.100 243.527,121.683 245.977,120.771 251.000 C 118.902 261.292,119.382 264.729,123.151 268.052 C 128.999 273.208,131.269 272.896,146.600 264.828 C 149.240 263.439,153.830 261.041,156.800 259.500 C 159.770 257.958,163.460 256.019,165.000 255.191 C 166.540 254.363,169.690 252.700,172.000 251.495 C 174.310 250.291,178.180 248.272,180.600 247.010 C 183.020 245.748,186.980 243.674,189.400 242.401 C 191.820 241.128,195.193 239.357,196.896 238.464 L 199.992 236.840 204.296 239.064 C 206.663 240.287,210.580 242.327,213.000 243.598 C 215.420 244.868,219.155 246.828,221.300 247.954 C 223.445 249.079,226.865 250.874,228.900 251.942 C 230.935 253.010,234.940 255.103,237.800 256.593 C 240.660 258.083,244.440 260.066,246.200 261.001 C 265.670 271.336,265.672 271.337,268.970 271.313 C 273.529 271.279,277.328 268.890,279.436 264.729 C 280.894 261.852,280.713 259.528,277.584 240.963 C 276.035 231.773,274.864 223.793,274.982 223.227 C 275.244 221.968,274.823 218.733,273.157 209.200 C 272.781 207.048,272.425 204.946,271.582 199.900 C 271.353 198.525,271.066 196.500,270.946 195.400 C 270.825 194.300,270.563 193.229,270.363 193.020 C 270.163 192.811,270.000 191.864,270.000 190.915 C 270.000 189.966,269.792 188.856,269.538 188.450 C 269.138 187.808,269.469 187.311,272.038 184.693 C 273.667 183.033,275.664 180.938,276.476 180.037 C 277.288 179.137,278.091 178.400,278.261 178.400 C 278.603 178.400,279.793 177.266,291.062 166.200 C 307.220 150.333,309.650 148.000,310.020 148.000 C 310.229 148.000,310.400 147.700,310.400 147.333 C 310.400 146.967,310.497 146.764,310.616 146.882 C 310.971 147.238,322.184 135.898,322.760 134.600 C 323.053 133.940,323.452 133.087,323.647 132.705 C 325.586 128.893,322.133 118.494,318.900 118.413 C 318.625 118.406,318.400 118.220,318.400 118.000 C 318.400 117.780,318.130 117.600,317.800 117.600 C 317.470 117.600,317.200 117.420,317.200 117.200 C 317.200 116.980,316.581 116.800,315.824 116.800 C 315.067 116.800,314.336 116.620,314.200 116.400 C 314.064 116.180,312.793 116.000,311.376 116.000 C 309.959 116.000,308.800 115.835,308.800 115.634 C 308.800 115.433,307.675 115.167,306.300 115.044 C 300.506 114.525,298.980 114.310,298.620 113.965 C 298.411 113.764,297.117 113.600,295.744 113.600 C 294.371 113.600,293.136 113.420,293.000 113.200 C 292.864 112.980,291.593 112.800,290.176 112.800 C 288.759 112.800,287.600 112.650,287.600 112.466 C 287.600 112.282,286.480 112.091,285.112 112.041 C 283.743 111.992,282.438 111.799,282.212 111.613 C 281.985 111.426,280.630 111.173,279.200 111.050 C 274.062 110.609,272.187 110.356,271.400 109.997 C 270.960 109.797,269.520 109.542,268.200 109.431 C 261.458 108.863,255.627 108.167,255.363 107.900 C 255.200 107.735,254.027 107.600,252.757 107.600 C 251.487 107.600,250.336 107.420,250.200 107.200 C 250.064 106.980,248.804 106.800,247.400 106.800 C 245.996 106.800,244.736 106.620,244.600 106.400 C 244.464 106.180,243.913 106.000,243.376 106.000 C 242.667 106.000,242.400 105.782,242.400 105.200 C 242.400 104.760,242.220 104.400,242.000 104.400 C 241.780 104.400,241.600 104.094,241.600 103.720 C 241.600 102.943,237.189 93.870,236.713 93.667 C 236.541 93.593,236.400 93.188,236.400 92.767 C 236.400 92.345,236.220 92.000,236.000 92.000 C 235.780 92.000,235.600 91.640,235.600 91.200 C 235.600 90.760,235.420 90.400,235.200 90.400 C 234.980 90.400,234.800 90.040,234.800 89.600 C 234.800 89.160,234.620 88.800,234.400 88.800 C 234.180 88.800,234.000 88.440,234.000 88.000 C 234.000 87.560,233.820 87.200,233.600 87.200 C 233.380 87.200,233.200 86.840,233.200 86.400 C 233.200 85.960,233.020 85.600,232.800 85.600 C 232.580 85.600,232.400 85.240,232.400 84.800 C 232.400 84.360,232.220 84.000,232.000 84.000 C 231.780 84.000,231.600 83.640,231.600 83.200 C 231.600 82.760,231.420 82.400,231.200 82.400 C 230.980 82.400,230.800 82.040,230.800 81.600 C 230.800 81.160,230.620 80.800,230.400 80.800 C 230.180 80.800,230.000 80.440,230.000 80.000 C 230.000 79.560,229.820 79.200,229.600 79.200 C 229.380 79.200,229.200 78.840,229.200 78.400 C 229.200 77.960,229.054 77.600,228.875 77.600 C 228.696 77.600,228.302 76.970,228.000 76.200 C 227.698 75.430,227.304 74.800,227.125 74.800 C 226.946 74.800,226.800 74.440,226.800 74.000 C 226.800 73.560,226.620 73.200,226.400 73.200 C 226.180 73.200,226.000 72.840,226.000 72.400 C 226.000 71.960,225.820 71.600,225.600 71.600 C 225.380 71.600,225.200 71.195,225.199 70.700 C 225.199 70.205,224.029 67.466,222.599 64.612 C 221.170 61.759,220.000 59.194,220.000 58.912 C 220.000 58.631,219.820 58.400,219.600 58.400 C 219.380 58.400,219.200 58.040,219.200 57.600 C 219.200 57.160,219.020 56.800,218.800 56.800 C 218.580 56.800,218.400 56.440,218.400 56.000 C 218.400 55.560,218.220 55.200,218.000 55.200 C 217.780 55.200,217.600 54.840,217.600 54.400 C 217.600 53.960,217.420 53.600,217.200 53.600 C 216.980 53.600,216.800 53.240,216.800 52.800 C 216.800 52.360,216.620 52.000,216.400 52.000 C 216.180 52.000,216.000 51.640,216.000 51.200 C 216.000 50.760,215.820 50.400,215.600 50.400 C 215.380 50.400,215.200 50.040,215.200 49.600 C 215.200 49.160,215.020 48.800,214.800 48.800 C 214.580 48.800,214.400 48.440,214.400 48.000 C 214.400 47.560,214.220 47.200,214.000 47.200 C 213.780 47.200,213.600 46.840,213.600 46.400 C 213.600 45.960,213.420 45.600,213.200 45.600 C 212.980 45.600,212.800 45.240,212.800 44.800 C 212.800 44.360,212.664 44.000,212.498 44.000 C 212.331 44.000,211.940 43.422,211.627 42.716 C 211.314 42.010,210.460 40.834,209.729 40.103 C 208.998 39.371,208.400 38.633,208.400 38.461 C 208.400 37.905,205.159 36.400,203.962 36.400 C 203.323 36.400,202.800 36.220,202.800 36.000 C 202.800 35.771,201.600 35.600,200.000 35.600 C 198.400 35.600,197.200 35.771,197.200 36.000 M286.400 36.000 C 286.400 36.220,286.040 36.400,285.600 36.400 C 285.160 36.400,284.800 36.580,284.800 36.800 C 284.800 37.020,284.565 37.200,284.278 37.200 C 283.595 37.200,280.800 39.766,280.800 40.393 C 280.800 40.661,280.260 41.383,279.600 42.000 C 278.940 42.617,278.400 43.319,278.400 43.560 C 278.400 43.802,278.265 44.000,278.100 44.001 C 277.935 44.001,277.080 45.081,276.200 46.400 C 275.320 47.719,274.465 48.799,274.300 48.799 C 274.135 48.800,274.000 49.070,274.000 49.400 C 274.000 49.730,273.820 50.000,273.600 50.000 C 273.380 50.000,273.200 50.230,273.200 50.512 C 273.200 50.793,272.840 51.283,272.400 51.600 C 271.960 51.917,271.600 52.380,271.600 52.629 C 271.600 52.878,271.060 53.646,270.400 54.337 C 269.740 55.028,269.200 55.774,269.200 55.996 C 269.200 56.218,269.020 56.400,268.800 56.400 C 268.580 56.400,268.400 56.577,268.400 56.793 C 268.400 57.162,267.399 58.395,265.300 60.613 C 264.805 61.136,264.400 61.752,264.400 61.982 C 264.400 62.212,264.220 62.400,264.000 62.400 C 263.780 62.400,263.600 62.588,263.600 62.818 C 263.600 63.048,263.150 63.686,262.600 64.236 C 262.050 64.786,261.600 65.395,261.600 65.590 C 261.600 65.784,261.369 66.181,261.087 66.471 C 256.678 71.012,257.588 83.133,262.500 85.308 C 263.105 85.576,263.600 85.931,263.600 86.098 C 263.600 86.264,263.960 86.400,264.400 86.400 C 264.840 86.400,265.200 86.580,265.200 86.800 C 265.200 87.020,265.740 87.200,266.400 87.200 C 267.060 87.200,267.600 87.380,267.600 87.600 C 267.600 87.822,268.659 88.000,269.976 88.000 C 271.283 88.000,272.464 87.820,272.600 87.600 C 272.736 87.380,273.377 87.200,274.024 87.200 C 274.671 87.200,275.200 87.020,275.200 86.800 C 275.200 86.580,275.560 86.400,276.000 86.400 C 276.440 86.400,276.800 86.220,276.800 86.000 C 276.800 85.780,277.052 85.600,277.360 85.600 C 277.997 85.600,280.800 82.928,280.800 82.320 C 280.800 82.101,281.340 81.417,282.000 80.800 C 282.660 80.183,283.200 79.463,283.200 79.200 C 283.200 78.937,283.740 78.217,284.400 77.600 C 285.060 76.983,285.600 76.283,285.600 76.043 C 285.600 75.803,286.140 75.091,286.800 74.460 C 287.460 73.829,288.000 73.108,288.000 72.857 C 288.000 72.606,288.135 72.399,288.300 72.397 C 288.465 72.396,289.050 71.721,289.600 70.897 C 290.691 69.263,291.139 68.663,291.900 67.815 C 292.175 67.508,292.400 67.064,292.400 66.829 C 292.400 66.594,293.120 65.659,294.000 64.752 C 294.880 63.845,295.600 62.937,295.600 62.734 C 295.600 62.530,296.050 61.914,296.600 61.364 C 297.150 60.814,297.600 60.210,297.600 60.022 C 297.600 59.834,298.230 59.050,299.000 58.280 C 299.770 57.510,300.400 56.764,300.400 56.623 C 300.400 56.482,300.760 55.980,301.200 55.508 C 301.640 55.036,302.000 54.413,302.000 54.125 C 302.000 53.836,302.180 53.600,302.400 53.600 C 302.620 53.600,302.800 53.161,302.800 52.624 C 302.800 52.087,302.980 51.536,303.200 51.400 C 303.420 51.264,303.600 49.554,303.600 47.600 C 303.600 45.646,303.420 43.936,303.200 43.800 C 302.980 43.664,302.800 43.203,302.800 42.776 C 302.800 42.349,302.620 42.000,302.400 42.000 C 302.180 42.000,302.000 41.759,302.000 41.464 C 302.000 40.806,298.650 37.200,298.040 37.200 C 297.798 37.200,297.600 37.020,297.600 36.800 C 297.600 36.580,297.150 36.400,296.600 36.400 C 296.050 36.400,295.600 36.220,295.600 36.000 C 295.600 35.757,293.800 35.600,291.000 35.600 C 288.200 35.600,286.400 35.757,286.400 36.000 " stroke="none" fill="#fcc344" fill-rule="evenodd"></path></g></svg>