<svg id="svg" version="1.1" xmlns="http://www.w3.org/2000/svg" xmlns:xlink="http://www.w3.org/1999/xlink" width="400" height="400" viewBox="0, 0, 400,400"><g id="svgg"><path id="path0" d="M15.600 213.212 C 13.950 213.373,11.250 213.896,9.600 214.376 C 7.950 214.856,5.925 215.440,5.100 215.673 C 3.526 216.118,3.203 216.860,4.164 217.822 C 4.756 218.413,4.569 220.152,3.955 219.772 C 3.491 219.485,3.506 219.824,4.000 220.805 C 4.220 221.242,4.580 221.958,4.800 222.395 C 5.318 223.423,5.318 226.280,4.800 226.600 C 4.218 226.960,4.304 229.199,4.900 229.206 C 5.233 229.210,5.200 229.342,4.800 229.600 C 4.400 229.858,4.367 229.990,4.700 229.994 C 5.058 229.998,5.200 230.910,5.200 233.200 C 5.200 235.067,5.367 236.400,5.600 236.400 C 5.826 236.400,6.000 237.533,6.000 239.000 C 6.000 240.467,6.174 241.600,6.400 241.600 C 6.620 241.600,6.800 242.500,6.800 243.600 C 6.800 244.700,6.980 245.600,7.200 245.600 C 7.420 245.600,7.600 246.500,7.600 247.600 C 7.600 248.700,7.780 249.600,8.000 249.600 C 8.220 249.600,8.400 250.249,8.400 251.043 C 8.400 252.659,9.477 257.826,10.036 258.895 C 10.236 259.277,10.400 260.132,10.400 260.795 C 10.400 261.458,10.580 262.000,10.800 262.000 C 11.020 262.000,11.200 262.540,11.200 263.200 C 11.200 263.860,11.380 264.400,11.600 264.400 C 11.820 264.400,12.000 265.019,12.000 265.776 C 12.000 266.533,12.180 267.264,12.400 267.400 C 12.620 267.536,12.800 268.076,12.800 268.600 C 12.800 269.124,12.980 269.664,13.200 269.800 C 13.420 269.936,13.600 270.399,13.600 270.829 C 13.600 271.259,13.780 271.968,14.000 272.405 C 14.220 272.842,14.580 273.558,14.800 273.995 C 15.020 274.432,15.200 275.062,15.200 275.395 C 15.200 275.728,15.380 276.000,15.600 276.000 C 15.820 276.000,16.000 276.540,16.000 277.200 C 16.000 277.860,16.180 278.400,16.400 278.400 C 16.620 278.400,16.800 278.760,16.800 279.200 C 16.800 279.640,16.980 280.000,17.200 280.000 C 17.420 280.000,17.600 280.540,17.600 281.200 C 17.600 281.860,17.780 282.400,18.000 282.400 C 18.220 282.400,18.400 282.760,18.400 283.200 C 18.400 283.640,18.580 284.000,18.800 284.000 C 19.020 284.000,19.200 284.439,19.200 284.976 C 19.200 285.513,19.380 286.064,19.600 286.200 C 19.820 286.336,20.000 286.797,20.000 287.224 C 20.000 287.651,20.180 288.000,20.400 288.000 C 20.620 288.000,20.800 288.360,20.800 288.800 C 20.800 289.240,20.980 289.600,21.200 289.600 C 21.420 289.600,21.600 289.960,21.600 290.400 C 21.600 290.840,21.780 291.200,22.000 291.200 C 22.220 291.200,22.400 291.470,22.400 291.800 C 22.400 292.130,22.580 292.400,22.800 292.400 C 23.020 292.400,23.200 292.760,23.200 293.200 C 23.200 293.640,23.380 294.000,23.600 294.000 C 23.820 294.000,24.000 294.360,24.000 294.800 C 24.000 295.240,24.180 295.600,24.400 295.600 C 24.620 295.600,24.801 295.915,24.802 296.300 C 24.804 296.685,25.074 297.516,25.402 298.146 C 25.731 298.776,26.000 299.541,26.000 299.846 C 26.000 300.151,26.149 300.400,26.332 300.400 C 26.514 300.400,27.085 301.300,27.600 302.400 C 28.115 303.500,28.686 304.400,28.868 304.400 C 29.051 304.400,29.200 304.760,29.200 305.200 C 29.200 305.640,29.380 306.000,29.600 306.000 C 29.820 306.000,30.000 306.236,30.000 306.525 C 30.000 306.813,30.360 307.436,30.800 307.908 C 31.240 308.380,31.600 308.954,31.600 309.183 C 31.600 309.412,31.780 309.600,32.000 309.600 C 32.220 309.600,32.400 309.920,32.400 310.312 C 32.400 310.703,32.760 311.283,33.200 311.600 C 33.640 311.917,34.000 312.457,34.000 312.800 C 34.000 313.143,34.360 313.683,34.800 314.000 C 35.240 314.317,35.600 314.857,35.600 315.200 C 35.600 315.543,35.960 316.083,36.400 316.400 C 36.840 316.717,37.200 317.257,37.200 317.600 C 37.200 317.943,37.560 318.483,38.000 318.800 C 38.440 319.117,38.800 319.580,38.800 319.829 C 38.800 320.078,39.340 320.846,40.000 321.537 C 40.660 322.228,41.200 322.948,41.200 323.138 C 41.200 323.328,41.650 323.969,42.200 324.562 C 42.750 325.156,43.200 325.790,43.200 325.972 C 43.200 326.155,43.920 327.045,44.800 327.952 C 45.680 328.859,46.400 329.762,46.400 329.960 C 46.400 330.157,47.300 331.238,48.400 332.361 C 49.500 333.485,50.400 334.571,50.400 334.775 C 50.400 335.146,55.617 340.435,58.020 342.500 C 58.724 343.105,59.204 343.600,59.086 343.600 C 58.968 343.600,59.674 344.426,60.655 345.435 C 61.758 346.570,62.664 347.184,63.028 347.044 C 63.380 346.909,64.298 347.459,65.307 348.409 C 66.236 349.284,67.133 350.000,67.301 350.000 C 67.469 350.000,67.395 350.338,67.137 350.752 C 66.648 351.536,68.153 353.600,69.213 353.600 C 69.460 353.600,70.324 354.288,71.131 355.128 C 71.939 355.969,73.365 357.163,74.300 357.781 C 75.235 358.400,76.000 359.032,76.000 359.186 C 76.000 359.339,76.495 359.720,77.100 360.032 C 77.705 360.345,78.677 361.095,79.260 361.700 C 79.844 362.305,80.492 362.800,80.701 362.800 C 80.910 362.800,81.646 363.340,82.337 364.000 C 83.028 364.660,83.825 365.200,84.108 365.200 C 84.391 365.200,84.883 365.560,85.200 366.000 C 85.517 366.440,85.962 366.800,86.188 366.800 C 86.415 366.801,87.117 367.246,87.749 367.789 C 88.381 368.333,89.236 368.884,89.649 369.016 C 90.062 369.147,90.400 369.422,90.400 369.627 C 90.400 369.832,90.720 370.000,91.112 370.000 C 91.503 370.000,92.083 370.360,92.400 370.800 C 92.717 371.240,93.108 371.600,93.268 371.600 C 93.429 371.600,94.360 372.140,95.338 372.800 C 96.316 373.460,97.238 374.000,97.387 374.000 C 97.535 374.000,97.927 374.270,98.257 374.600 C 98.587 374.930,99.204 375.200,99.629 375.200 C 100.053 375.200,100.400 375.380,100.400 375.600 C 100.400 375.820,100.760 376.000,101.200 376.000 C 101.640 376.000,102.000 376.180,102.000 376.400 C 102.000 376.620,102.360 376.800,102.800 376.800 C 103.240 376.800,103.600 376.980,103.600 377.200 C 103.600 377.420,103.920 377.600,104.312 377.600 C 104.703 377.600,105.283 377.960,105.600 378.400 C 105.917 378.840,106.497 379.200,106.888 379.200 C 107.280 379.200,107.600 379.380,107.600 379.600 C 107.600 379.820,107.960 380.000,108.400 380.000 C 108.840 380.000,109.200 380.180,109.200 380.400 C 109.200 380.620,109.560 380.800,110.000 380.800 C 110.440 380.800,110.800 380.980,110.800 381.200 C 110.800 381.420,111.160 381.600,111.600 381.600 C 112.040 381.600,112.400 381.780,112.400 382.000 C 112.400 382.220,112.850 382.400,113.400 382.400 C 113.950 382.400,114.400 382.580,114.400 382.800 C 114.400 383.020,114.760 383.200,115.200 383.200 C 115.640 383.200,116.000 383.380,116.000 383.600 C 116.000 383.820,116.360 384.000,116.800 384.000 C 117.240 384.000,117.600 384.180,117.600 384.400 C 117.600 384.620,117.960 384.800,118.400 384.800 C 118.840 384.800,119.200 384.980,119.200 385.200 C 119.200 385.420,119.740 385.600,120.400 385.600 C 121.060 385.600,121.600 385.780,121.600 386.000 C 121.600 386.220,121.960 386.400,122.400 386.400 C 122.840 386.400,123.200 386.580,123.200 386.800 C 123.200 387.020,123.549 387.200,123.976 387.200 C 124.403 387.200,124.842 387.344,124.951 387.521 C 125.060 387.697,126.072 388.093,127.200 388.400 C 128.328 388.707,129.340 389.103,129.449 389.279 C 129.558 389.456,129.963 389.600,130.348 389.600 C 130.734 389.600,131.827 389.975,132.776 390.434 C 133.726 390.893,135.470 391.368,136.651 391.490 C 137.833 391.612,138.800 391.867,138.800 392.056 C 138.800 392.245,139.340 392.400,140.000 392.400 C 140.660 392.400,141.200 392.580,141.200 392.800 C 141.200 393.020,141.740 393.200,142.400 393.200 C 143.060 393.200,143.600 393.380,143.600 393.600 C 143.600 393.820,144.219 394.000,144.976 394.000 C 145.733 394.000,146.464 394.180,146.600 394.400 C 146.736 394.620,147.467 394.800,148.224 394.800 C 148.981 394.800,149.600 394.980,149.600 395.200 C 149.600 395.420,150.320 395.600,151.200 395.600 C 152.080 395.600,152.800 395.780,152.800 396.000 C 152.800 396.220,153.700 396.400,154.800 396.400 C 155.900 396.400,156.800 396.580,156.800 396.800 C 156.800 397.020,157.700 397.200,158.800 397.200 C 159.900 397.200,160.800 397.380,160.800 397.600 C 160.800 397.820,161.790 398.000,163.000 398.000 C 164.210 398.000,165.200 398.180,165.200 398.400 C 165.200 398.627,166.373 398.800,167.920 398.800 C 169.563 398.800,170.838 398.998,171.140 399.300 C 171.529 399.689,176.965 399.800,195.600 399.800 C 214.235 399.800,219.671 399.689,220.060 399.300 C 220.362 398.998,221.637 398.800,223.280 398.800 C 224.827 398.800,226.000 398.627,226.000 398.400 C 226.000 398.178,227.067 398.000,228.400 398.000 C 229.733 398.000,230.800 397.822,230.800 397.600 C 230.800 397.380,231.700 397.200,232.800 397.200 C 233.900 397.200,234.800 397.020,234.800 396.800 C 234.800 396.580,235.610 396.400,236.600 396.400 C 237.590 396.400,238.400 396.220,238.400 396.000 C 238.400 395.780,239.120 395.600,240.000 395.600 C 240.880 395.600,241.600 395.420,241.600 395.200 C 241.600 394.980,242.320 394.800,243.200 394.800 C 244.080 394.800,244.800 394.620,244.800 394.400 C 244.800 394.180,245.531 394.000,246.424 394.000 C 247.404 394.000,247.949 393.842,247.800 393.600 C 247.653 393.362,248.129 393.200,248.976 393.200 C 249.759 393.200,250.400 393.020,250.400 392.800 C 250.400 392.580,250.940 392.400,251.600 392.400 C 252.260 392.400,252.800 392.220,252.800 392.000 C 252.800 391.780,253.286 391.600,253.880 391.600 C 255.265 391.600,259.600 390.320,259.600 389.911 C 259.600 389.740,260.140 389.600,260.800 389.600 C 261.460 389.600,262.000 389.420,262.000 389.200 C 262.000 388.980,262.540 388.800,263.200 388.800 C 263.860 388.800,264.400 388.653,264.400 388.472 C 264.400 388.292,265.300 387.900,266.400 387.600 C 267.500 387.300,268.400 386.908,268.400 386.728 C 268.400 386.547,268.760 386.400,269.200 386.400 C 269.640 386.400,270.000 386.220,270.000 386.000 C 270.000 385.780,270.450 385.600,271.000 385.600 C 271.550 385.600,272.000 385.420,272.000 385.200 C 272.000 384.980,272.234 384.800,272.520 384.800 C 273.256 384.800,275.193 383.859,275.197 383.500 C 275.199 383.335,275.472 383.200,275.805 383.200 C 276.138 383.200,276.768 383.020,277.205 382.800 C 277.642 382.580,278.358 382.220,278.795 382.000 C 279.232 381.780,279.862 381.600,280.195 381.600 C 280.528 381.600,280.800 381.420,280.800 381.200 C 280.800 380.980,281.160 380.800,281.600 380.800 C 282.040 380.800,282.400 380.654,282.400 380.475 C 282.400 380.296,283.030 379.902,283.800 379.600 C 284.570 379.298,285.200 378.904,285.200 378.725 C 285.200 378.546,285.470 378.400,285.800 378.400 C 286.130 378.400,286.400 378.220,286.400 378.000 C 286.400 377.780,286.760 377.600,287.200 377.600 C 287.640 377.600,288.000 377.420,288.000 377.200 C 288.000 376.980,288.360 376.800,288.800 376.800 C 289.240 376.800,289.600 376.657,289.600 376.482 C 289.600 376.307,290.410 375.830,291.400 375.422 C 292.390 375.013,293.203 374.572,293.206 374.440 C 293.210 374.308,294.110 373.760,295.206 373.221 C 296.303 372.683,297.200 372.098,297.200 371.921 C 297.200 371.745,297.520 371.600,297.912 371.600 C 298.303 371.600,298.883 371.240,299.200 370.800 C 299.517 370.360,300.097 370.000,300.488 370.000 C 300.880 370.000,301.200 369.850,301.200 369.668 C 301.200 369.485,301.695 369.081,302.300 368.770 C 302.905 368.460,303.670 367.933,304.000 367.600 C 304.330 367.267,305.095 366.740,305.700 366.430 C 306.305 366.119,306.800 365.715,306.800 365.532 C 306.800 365.350,307.030 365.200,307.312 365.200 C 307.593 365.200,308.083 364.840,308.400 364.400 C 308.717 363.960,309.185 363.600,309.440 363.600 C 309.695 363.600,310.645 362.880,311.552 362.000 C 312.459 361.120,313.389 360.400,313.619 360.400 C 313.848 360.400,314.466 359.995,314.991 359.500 C 315.516 359.005,316.811 357.970,317.870 357.200 C 320.495 355.291,321.690 354.070,321.398 353.597 C 321.238 353.338,302.446 353.200,267.238 353.200 C 216.454 353.200,213.277 353.159,212.542 352.500 C 210.157 350.360,209.377 347.862,210.013 344.400 C 210.235 343.190,210.458 341.840,210.508 341.400 C 210.618 340.445,334.240 339.895,334.829 340.846 C 335.128 341.330,338.980 337.485,340.770 334.915 C 341.337 334.102,342.475 332.732,343.300 331.870 C 344.125 331.009,344.800 330.145,344.800 329.952 C 344.800 329.759,345.520 328.859,346.400 327.952 C 347.280 327.045,348.000 326.067,348.000 325.779 C 348.000 325.490,348.360 325.140,348.800 325.000 C 349.240 324.860,349.600 324.488,349.600 324.173 C 349.600 323.858,349.780 323.600,350.000 323.600 C 350.220 323.600,350.400 323.370,350.400 323.088 C 350.400 322.807,350.760 322.317,351.200 322.000 C 351.640 321.683,352.000 321.193,352.000 320.912 C 352.000 320.630,352.180 320.400,352.400 320.400 C 352.620 320.400,352.800 320.130,352.800 319.800 C 352.800 319.470,352.950 319.200,353.132 319.200 C 353.315 319.200,353.720 318.705,354.032 318.100 C 354.345 317.495,354.915 316.651,355.300 316.225 C 355.685 315.798,356.000 315.213,356.000 314.925 C 356.000 314.636,356.150 314.400,356.332 314.400 C 356.515 314.400,356.920 313.905,357.232 313.300 C 357.545 312.695,358.025 311.962,358.300 311.671 C 358.575 311.381,358.800 310.796,358.800 310.371 C 358.800 309.947,358.980 309.600,359.200 309.600 C 359.420 309.600,359.600 309.412,359.600 309.183 C 359.600 308.954,359.960 308.380,360.400 307.908 C 360.840 307.436,361.200 306.813,361.200 306.525 C 361.200 306.236,361.380 306.000,361.600 306.000 C 361.820 306.000,362.000 305.640,362.000 305.200 C 362.000 304.760,362.180 304.400,362.400 304.400 C 362.620 304.400,362.800 304.130,362.800 303.800 C 362.800 303.470,362.980 303.200,363.200 303.200 C 363.420 303.200,363.600 302.930,363.600 302.600 C 363.600 302.270,363.780 302.000,364.000 302.000 C 364.220 302.000,364.400 301.640,364.400 301.200 C 364.400 300.760,364.580 300.400,364.800 300.400 C 365.020 300.400,365.200 300.040,365.200 299.600 C 365.200 299.160,365.380 298.800,365.600 298.800 C 365.820 298.800,366.000 298.440,366.000 298.000 C 366.000 297.560,366.180 297.200,366.400 297.200 C 366.620 297.200,366.800 296.840,366.800 296.400 C 366.800 295.960,366.980 295.600,367.200 295.600 C 367.420 295.600,367.600 295.240,367.600 294.800 C 367.600 294.360,367.780 294.000,368.000 294.000 C 368.220 294.000,368.400 293.655,368.400 293.233 C 368.400 292.812,368.536 292.407,368.702 292.333 C 368.868 292.260,369.607 290.940,370.344 289.400 C 371.081 287.860,371.845 286.287,372.042 285.905 C 372.239 285.523,372.400 284.938,372.400 284.605 C 372.400 284.272,372.547 284.000,372.728 284.000 C 372.908 284.000,373.300 283.100,373.600 282.000 C 373.900 280.900,374.286 280.000,374.459 280.000 C 374.631 280.000,374.892 279.100,375.038 278.000 C 375.184 276.900,375.460 276.000,375.652 276.000 C 375.843 276.000,376.000 275.550,376.000 275.000 C 376.000 274.450,376.180 274.000,376.400 274.000 C 376.620 274.000,376.800 273.550,376.800 273.000 C 376.800 272.450,376.980 272.000,377.200 272.000 C 377.420 272.000,377.600 271.561,377.600 271.024 C 377.600 270.487,377.780 269.936,378.000 269.800 C 378.220 269.664,378.400 269.124,378.400 268.600 C 378.400 268.076,378.580 267.536,378.800 267.400 C 379.020 267.264,379.200 266.533,379.200 265.776 C 379.200 265.019,379.380 264.400,379.600 264.400 C 379.820 264.400,380.000 263.860,380.000 263.200 C 380.000 262.540,380.180 262.000,380.400 262.000 C 380.620 262.000,380.800 261.381,380.800 260.624 C 380.800 259.867,380.980 259.136,381.200 259.000 C 381.420 258.864,381.600 258.234,381.600 257.600 C 381.600 256.966,381.780 256.336,382.000 256.200 C 382.220 256.064,382.400 255.243,382.400 254.376 C 382.400 253.509,382.580 252.800,382.800 252.800 C 383.020 252.800,383.200 252.080,383.200 251.200 C 383.200 250.320,383.380 249.600,383.600 249.600 C 383.820 249.600,384.000 248.700,384.000 247.600 C 384.000 246.500,384.180 245.600,384.400 245.600 C 384.620 245.600,384.800 244.711,384.800 243.624 C 384.800 242.537,384.980 241.536,385.200 241.400 C 385.420 241.264,385.600 240.094,385.600 238.800 C 385.600 237.506,385.780 236.336,386.000 236.200 C 386.220 236.064,386.400 234.613,386.400 232.976 C 386.400 231.259,386.569 230.000,386.800 230.000 C 387.020 230.000,387.194 229.685,387.187 229.300 C 387.175 228.633,387.149 228.633,386.643 229.300 C 386.123 229.986,384.403 230.292,384.397 229.700 C 384.393 229.341,382.456 228.400,381.720 228.400 C 381.434 228.400,381.200 228.220,381.200 228.000 C 381.200 227.780,380.761 227.600,380.224 227.600 C 379.687 227.600,379.148 227.439,379.026 227.242 C 378.905 227.045,378.039 226.750,377.103 226.585 C 375.223 226.255,291.099 225.937,291.900 226.263 C 292.212 226.390,292.400 227.271,292.400 228.610 C 292.400 229.788,292.580 230.864,292.800 231.000 C 293.020 231.136,293.200 232.216,293.200 233.400 C 293.200 234.584,293.353 235.647,293.539 235.762 C 294.348 236.262,294.432 243.860,293.648 245.667 C 291.772 249.993,287.572 251.208,282.941 248.766 C 281.653 248.087,277.655 245.991,274.055 244.109 L 267.509 240.687 263.855 242.599 C 261.845 243.651,258.490 245.420,256.400 246.529 C 250.286 249.776,249.731 250.000,247.814 250.000 C 245.145 250.000,242.550 248.274,241.317 245.679 C 240.627 244.228,240.872 235.784,241.625 235.020 C 241.831 234.811,242.000 233.686,242.000 232.520 C 242.000 231.354,242.180 230.400,242.400 230.400 C 242.620 230.400,242.800 229.410,242.800 228.200 L 242.800 226.000 239.459 226.000 L 236.117 226.000 236.310 228.100 C 236.416 229.255,236.659 230.503,236.851 230.874 C 239.069 235.157,236.009 241.762,230.852 243.826 C 227.213 245.282,219.473 242.103,198.075 230.365 C 195.988 229.220,194.803 228.907,194.797 229.500 C 194.795 229.665,194.390 229.994,193.897 230.232 C 193.404 230.470,191.200 231.618,189.000 232.784 C 180.860 237.099,175.897 239.600,175.455 239.612 C 175.205 239.618,172.846 240.698,170.214 242.012 C 164.572 244.827,163.079 245.006,159.600 243.287 C 155.454 241.238,153.570 235.996,155.168 230.960 C 155.370 230.322,155.647 228.855,155.782 227.700 L 156.028 225.600 152.010 225.600 L 147.993 225.600 148.230 227.900 C 148.360 229.165,148.569 230.470,148.693 230.800 C 148.818 231.130,149.079 232.390,149.273 233.600 C 149.468 234.810,149.788 236.790,149.985 238.000 C 150.857 243.364,150.871 243.783,150.220 245.316 C 148.964 248.273,146.497 250.000,143.531 250.000 C 141.883 250.000,140.896 249.572,133.400 245.607 C 131.420 244.559,128.483 243.015,126.873 242.176 L 123.945 240.649 120.673 242.332 C 118.873 243.258,115.960 244.785,114.200 245.726 C 111.201 247.328,108.307 248.844,106.705 249.650 C 101.450 252.296,96.531 246.858,97.617 239.600 C 98.392 234.413,99.353 228.842,99.842 226.700 L 100.093 225.600 59.147 225.502 L 18.200 225.404 58.900 225.300 L 99.600 225.196 99.600 224.333 C 99.600 223.752,97.937 221.865,94.500 218.548 L 89.400 213.626 60.700 213.613 C 41.842 213.604,32.000 213.463,32.000 213.200 C 32.000 212.741,20.357 212.750,15.600 213.212 M152.693 219.166 C 146.762 225.004,146.740 225.200,152.000 225.200 L 156.000 225.200 156.000 223.424 C 156.000 222.447,156.180 221.536,156.400 221.400 C 156.620 221.264,156.800 220.188,156.800 219.010 C 156.800 217.821,156.994 216.802,157.235 216.722 C 157.474 216.642,157.609 216.117,157.535 215.554 C 157.411 214.615,157.018 214.908,152.693 219.166 M62.104 254.804 C 63.041 255.247,64.203 256.230,64.700 256.998 L 65.600 258.389 65.600 279.100 C 65.600 303.399,65.442 304.283,60.312 308.617 C 51.897 315.728,34.230 309.386,37.403 300.393 C 39.127 295.506,43.634 294.553,48.100 298.132 C 49.022 298.871,50.064 299.333,50.807 299.333 C 53.213 299.333,53.173 299.679,53.187 278.749 C 53.201 258.263,53.230 257.952,55.298 255.971 C 57.401 253.956,59.542 253.589,62.104 254.804 M98.625 254.854 C 101.571 256.238,101.672 256.428,106.928 270.400 C 108.925 275.710,111.501 282.538,115.679 293.600 C 116.551 295.910,117.791 299.150,118.435 300.800 C 120.710 306.636,119.350 311.010,115.008 311.825 C 110.805 312.613,108.593 310.705,106.402 304.400 C 105.046 300.497,105.898 300.771,95.501 300.893 L 86.313 301.000 84.726 305.000 C 82.992 309.370,81.800 310.940,79.687 311.637 C 74.416 313.377,70.101 308.365,72.172 302.908 C 72.487 302.079,73.764 298.700,75.010 295.400 C 76.255 292.100,78.173 287.060,79.271 284.200 C 80.368 281.340,81.809 277.560,82.471 275.800 C 83.134 274.040,83.822 272.240,84.001 271.800 C 84.179 271.360,85.079 269.020,86.002 266.600 C 86.924 264.180,88.050 261.234,88.505 260.053 C 90.483 254.912,94.433 252.883,98.625 254.854 M153.400 254.552 C 164.579 256.754,170.216 262.571,166.232 267.794 C 163.834 270.937,161.225 271.177,156.348 268.700 C 147.784 264.351,136.630 268.196,133.430 276.600 C 127.408 292.417,145.717 306.865,157.689 295.743 C 164.146 289.745,172.854 296.534,167.506 303.398 C 155.026 319.417,126.183 311.656,120.626 290.783 C 115.216 270.459,133.203 250.574,153.400 254.552 M182.720 254.564 C 185.704 256.123,186.800 258.750,186.800 264.346 C 186.800 268.505,186.830 268.535,189.015 266.500 C 201.467 254.906,201.606 254.800,204.251 254.800 C 208.746 254.800,211.290 257.736,210.627 262.157 C 210.325 264.172,209.606 265.010,203.028 271.011 C 200.624 273.205,197.410 276.170,195.887 277.600 C 194.363 279.030,192.868 280.343,192.563 280.517 C 190.469 281.717,192.445 284.047,207.936 298.636 C 213.896 304.250,214.135 308.785,208.616 311.533 C 204.872 313.398,204.040 312.911,193.954 302.958 C 190.299 299.351,187.194 296.400,187.054 296.400 C 186.914 296.400,186.800 298.300,186.800 300.623 C 186.800 309.249,183.924 313.388,178.865 312.045 C 173.439 310.604,173.599 311.486,173.607 283.062 L 173.613 259.000 174.513 257.412 C 176.245 254.353,179.893 253.088,182.720 254.564 M241.465 254.559 C 256.352 258.523,261.321 275.922,250.621 286.621 C 246.451 290.791,242.119 292.400,235.060 292.400 L 230.874 292.400 230.737 300.132 L 230.600 307.864 229.479 309.332 C 226.555 313.164,220.679 312.846,218.633 308.747 C 217.734 306.945,217.668 259.399,218.562 257.680 C 219.273 256.314,220.710 254.964,222.000 254.449 C 223.583 253.818,239.008 253.905,241.465 254.559 M295.731 254.961 C 323.211 262.568,324.400 301.591,297.427 310.608 C 272.480 318.948,250.267 292.489,262.659 269.194 C 268.763 257.719,283.219 251.497,295.731 254.961 M350.832 254.816 C 352.995 255.920,353.997 257.662,353.999 260.326 C 354.002 264.921,351.451 266.800,345.213 266.800 L 341.600 266.800 341.600 287.209 L 341.600 307.617 340.606 309.119 C 338.283 312.630,334.027 313.124,330.865 310.250 C 328.819 308.390,328.800 308.173,328.800 286.797 L 328.800 266.891 324.658 266.737 C 320.863 266.597,320.395 266.491,319.054 265.468 C 315.104 262.455,315.861 256.259,320.400 254.449 C 322.581 253.580,349.033 253.899,350.832 254.816 M230.800 273.200 L 230.800 279.600 234.665 279.600 C 240.328 279.600,243.600 277.280,243.600 273.265 C 243.600 268.959,240.532 266.800,234.413 266.800 L 230.800 266.800 230.800 273.200 M284.800 267.143 C 277.314 268.761,272.000 275.412,272.000 283.165 C 272.000 300.269,295.057 305.468,302.803 290.111 C 308.689 278.441,297.655 264.364,284.800 267.143 M95.224 277.609 C 93.910 280.559,91.298 287.834,91.459 288.096 C 91.774 288.605,100.000 288.465,100.000 287.950 C 100.000 287.440,96.597 278.282,96.034 277.274 C 95.715 276.705,95.607 276.749,95.224 277.609 M323.061 352.240 C 322.026 353.660,322.378 353.713,323.800 352.350 C 324.577 351.607,324.788 351.205,324.400 351.213 C 324.070 351.220,323.467 351.682,323.061 352.240 " stroke="none" fill="#e21053" fill-rule="evenodd"></path><path id="path1" d="M123.200 30.375 C 123.200 30.609,122.851 30.800,122.424 30.800 C 121.997 30.800,121.536 30.980,121.400 31.200 C 121.264 31.420,120.713 31.600,120.176 31.600 C 119.639 31.600,119.200 31.780,119.200 32.000 C 119.200 32.220,118.840 32.400,118.400 32.400 C 117.960 32.400,117.600 32.580,117.600 32.800 C 117.600 33.020,117.240 33.200,116.800 33.200 C 116.360 33.200,116.000 33.380,116.000 33.600 C 116.000 33.820,115.640 34.000,115.200 34.000 C 114.760 34.000,114.400 34.180,114.400 34.400 C 114.400 34.620,114.076 34.800,113.680 34.800 C 112.786 34.800,110.807 35.694,110.803 36.100 C 110.801 36.265,110.440 36.400,110.000 36.400 C 109.560 36.400,109.200 36.580,109.200 36.800 C 109.200 37.020,108.855 37.200,108.433 37.200 C 108.012 37.200,107.607 37.335,107.533 37.500 C 107.460 37.665,106.545 38.233,105.500 38.763 C 104.455 39.292,103.600 39.877,103.600 40.063 C 103.600 40.248,103.240 40.400,102.800 40.400 C 102.360 40.400,102.000 40.580,102.000 40.800 C 102.000 41.020,101.640 41.200,101.200 41.200 C 100.760 41.200,100.400 41.380,100.400 41.600 C 100.400 41.820,100.051 42.000,99.624 42.000 C 99.197 42.000,98.743 42.168,98.616 42.374 C 98.489 42.580,97.398 43.231,96.192 43.821 C 94.987 44.411,94.000 45.053,94.000 45.247 C 94.000 45.441,93.770 45.600,93.488 45.600 C 93.207 45.600,92.717 45.960,92.400 46.400 C 92.083 46.840,91.503 47.200,91.112 47.200 C 90.720 47.200,90.400 47.368,90.400 47.573 C 90.400 47.778,90.062 48.053,89.649 48.184 C 89.236 48.316,88.381 48.867,87.749 49.411 C 87.117 49.954,86.415 50.399,86.188 50.400 C 85.962 50.400,85.517 50.760,85.200 51.200 C 84.883 51.640,84.391 52.000,84.108 52.000 C 83.825 52.000,83.028 52.540,82.337 53.200 C 81.646 53.860,80.910 54.400,80.701 54.400 C 80.492 54.400,79.817 54.940,79.200 55.600 C 78.583 56.260,77.881 56.800,77.640 56.800 C 77.398 56.800,77.200 56.980,77.200 57.200 C 77.200 57.420,76.996 57.600,76.746 57.600 C 76.496 57.600,75.875 58.050,75.365 58.600 C 74.855 59.150,74.274 59.600,74.073 59.600 C 73.872 59.600,72.677 60.590,71.418 61.800 C 70.158 63.010,68.967 64.000,68.769 64.000 C 68.297 64.000,60.800 71.503,60.800 71.976 C 60.800 72.192,72.871 72.403,90.300 72.492 L 119.800 72.642 123.319 73.725 C 138.370 78.355,147.728 90.702,147.781 106.000 C 147.799 111.186,147.593 112.611,146.189 117.001 C 145.680 118.593,142.570 125.810,138.643 134.512 C 138.069 135.783,137.600 136.903,137.600 137.000 C 137.600 137.190,136.337 140.028,134.159 144.736 C 133.411 146.350,132.800 147.740,132.800 147.824 C 132.800 147.908,132.367 148.927,131.838 150.088 C 131.309 151.250,129.800 154.720,128.484 157.800 C 126.310 162.890,124.307 167.494,122.394 171.800 C 120.436 176.206,120.368 176.446,121.192 176.004 C 122.320 175.401,125.878 175.516,127.199 176.200 C 128.940 177.100,129.902 178.638,134.341 187.612 L 138.403 195.824 141.701 196.323 C 143.516 196.597,146.316 197.034,147.925 197.293 C 151.097 197.804,152.106 197.540,152.317 196.143 C 152.428 195.406,150.073 192.922,139.790 182.931 C 134.141 177.443,133.167 173.810,136.159 169.400 C 138.295 166.252,139.447 165.703,145.800 164.802 C 147.340 164.583,149.860 164.215,151.400 163.984 C 156.385 163.236,159.343 162.813,162.200 162.440 C 167.171 161.790,167.548 161.641,168.247 160.049 C 168.597 159.252,169.206 157.880,169.600 157.000 C 169.994 156.120,170.587 154.770,170.916 154.000 C 171.246 153.230,171.914 151.700,172.400 150.600 C 172.886 149.500,173.523 148.060,173.814 147.400 C 174.675 145.452,180.400 132.271,180.764 131.400 C 181.131 130.523,182.169 128.200,183.714 124.800 C 184.264 123.590,185.022 121.880,185.399 121.000 C 186.327 118.831,187.311 116.636,188.557 113.960 C 189.131 112.728,189.600 111.616,189.600 111.488 C 189.600 111.360,190.123 110.118,190.761 108.728 C 191.400 107.338,192.392 105.076,192.966 103.702 C 193.539 102.328,194.478 100.168,195.052 98.902 C 195.626 97.636,196.325 96.060,196.606 95.400 C 197.268 93.841,198.644 90.741,199.845 88.100 C 200.370 86.945,201.230 85.055,201.755 83.900 C 205.160 76.414,208.334 68.988,208.466 68.200 C 208.599 67.408,208.323 67.398,180.800 67.200 L 153.000 67.000 149.800 65.870 C 135.225 60.723,127.080 49.920,126.073 34.400 L 125.800 30.200 124.500 30.075 C 123.770 30.004,123.200 30.136,123.200 30.375 M292.896 43.995 C 292.623 44.432,292.400 44.966,292.400 45.183 C 292.400 45.399,291.970 46.527,291.445 47.688 C 290.532 49.705,289.669 51.637,287.910 55.600 C 287.470 56.590,286.681 58.350,286.155 59.512 C 285.630 60.673,285.200 61.703,285.200 61.800 C 285.200 61.897,284.770 62.927,284.245 64.088 C 283.719 65.250,282.909 67.055,282.445 68.100 C 281.980 69.145,281.214 70.855,280.743 71.900 C 278.747 76.328,276.000 82.899,276.000 83.249 C 276.000 83.457,276.631 82.995,277.403 82.224 C 285.695 73.931,291.584 72.439,316.100 72.414 C 325.103 72.405,330.400 72.256,330.400 72.010 C 330.400 71.185,320.175 61.487,317.000 59.302 C 316.120 58.696,315.109 57.885,314.753 57.500 C 314.397 57.115,313.902 56.800,313.654 56.800 C 313.405 56.800,312.459 56.080,311.552 55.200 C 310.645 54.320,309.695 53.600,309.440 53.600 C 309.185 53.600,308.717 53.240,308.400 52.800 C 308.083 52.360,307.593 52.000,307.312 52.000 C 307.030 52.000,306.800 51.862,306.800 51.694 C 306.800 51.526,306.080 50.944,305.200 50.400 C 304.320 49.856,303.600 49.274,303.600 49.106 C 303.600 48.938,303.364 48.800,303.075 48.800 C 302.787 48.800,302.164 48.440,301.692 48.000 C 301.220 47.560,300.596 47.200,300.305 47.200 C 300.014 47.200,299.517 46.840,299.200 46.400 C 298.883 45.960,298.386 45.600,298.095 45.600 C 297.804 45.600,297.180 45.240,296.708 44.800 C 296.236 44.360,295.613 44.000,295.325 44.000 C 295.036 44.000,294.800 43.820,294.800 43.600 C 294.800 42.888,293.407 43.177,292.896 43.995 M266.400 104.562 C 266.400 104.871,266.056 105.816,265.636 106.662 C 264.380 109.189,262.400 113.534,262.400 113.763 C 262.400 113.880,261.971 114.927,261.447 116.088 C 260.923 117.250,259.828 119.730,259.015 121.600 C 256.842 126.594,256.418 127.547,255.150 130.275 C 254.518 131.636,254.000 132.862,254.000 133.000 C 254.000 133.138,253.482 134.364,252.850 135.725 C 252.217 137.086,251.388 138.920,251.007 139.800 C 250.626 140.680,249.905 142.300,249.405 143.400 C 248.905 144.500,248.223 146.030,247.890 146.800 C 247.228 148.330,245.825 151.509,244.978 153.400 C 239.954 164.605,240.003 164.210,243.597 164.615 C 253.034 165.679,256.500 168.248,256.500 174.177 C 256.500 177.904,255.824 178.805,245.562 188.768 C 237.777 196.325,235.002 199.311,236.792 198.205 C 237.007 198.072,238.492 197.796,240.092 197.593 C 242.691 197.262,245.562 196.865,251.200 196.058 L 253.000 195.800 257.400 187.171 C 263.243 175.711,263.336 175.604,267.520 175.601 C 271.765 175.599,272.418 176.341,277.817 187.300 C 281.871 195.529,282.164 196.000,283.219 196.000 C 283.833 196.000,284.618 196.109,284.964 196.242 C 285.364 196.395,285.683 196.213,285.839 195.742 C 286.171 194.742,287.058 192.702,288.447 189.743 C 289.081 188.391,289.600 187.189,289.600 187.071 C 289.600 186.953,290.123 185.718,290.761 184.328 C 291.400 182.938,292.409 180.630,293.003 179.200 C 294.171 176.388,295.156 174.136,296.590 171.000 C 297.093 169.900,297.777 168.370,298.110 167.600 C 298.443 166.830,299.114 165.300,299.600 164.200 C 300.086 163.100,300.757 161.570,301.090 160.800 C 301.423 160.030,302.288 158.140,303.012 156.600 C 305.222 151.900,310.000 140.823,310.000 140.399 C 310.000 140.152,307.756 140.000,304.100 140.000 C 282.690 140.000,267.201 125.854,267.200 106.300 C 267.200 105.033,267.020 104.000,266.800 104.000 C 266.580 104.000,266.400 104.253,266.400 104.562 M23.200 124.200 C 23.200 124.530,23.054 124.800,22.875 124.800 C 22.696 124.800,22.302 125.430,22.000 126.200 C 21.698 126.970,21.304 127.600,21.125 127.600 C 20.946 127.600,20.800 127.872,20.800 128.205 C 20.800 128.538,20.620 129.168,20.400 129.605 C 20.180 130.042,19.820 130.758,19.600 131.195 C 19.380 131.632,19.200 132.262,19.200 132.595 C 19.200 132.928,19.020 133.200,18.800 133.200 C 18.580 133.200,18.400 133.560,18.400 134.000 C 18.400 134.440,18.220 134.800,18.000 134.800 C 17.780 134.800,17.600 135.340,17.600 136.000 C 17.600 136.660,17.420 137.200,17.200 137.200 C 16.980 137.200,16.800 137.560,16.800 138.000 C 16.800 138.440,16.620 138.800,16.400 138.800 C 16.180 138.800,16.000 139.340,16.000 140.000 C 16.000 140.660,15.820 141.200,15.600 141.200 C 15.380 141.200,15.200 141.549,15.200 141.976 C 15.200 142.403,15.020 142.864,14.800 143.000 C 14.580 143.136,14.400 143.687,14.400 144.224 C 14.400 144.761,14.220 145.200,14.000 145.200 C 13.780 145.200,13.600 145.562,13.600 146.005 C 13.600 146.448,13.442 147.123,13.249 147.505 C 12.660 148.672,12.000 151.008,12.000 151.928 C 12.000 152.408,11.820 152.800,11.600 152.800 C 11.380 152.800,11.200 153.329,11.200 153.976 C 11.200 154.623,11.020 155.264,10.800 155.400 C 10.580 155.536,10.400 156.267,10.400 157.024 C 10.400 157.781,10.220 158.400,10.000 158.400 C 9.780 158.400,9.600 158.862,9.600 159.426 C 9.600 159.991,9.423 160.784,9.206 161.188 C 8.990 161.593,8.694 163.201,8.549 164.762 C 8.404 166.323,8.131 167.600,7.943 167.600 C 7.754 167.600,7.600 168.500,7.600 169.600 C 7.600 170.700,7.420 171.600,7.200 171.600 C 6.980 171.600,6.800 172.500,6.800 173.600 C 6.800 174.700,6.620 175.600,6.400 175.600 C 6.174 175.600,6.000 176.733,6.000 178.200 C 6.000 179.667,5.826 180.800,5.600 180.800 C 5.367 180.800,5.200 182.133,5.200 184.000 C 5.200 185.867,5.033 187.200,4.800 187.200 C 4.558 187.200,4.400 188.933,4.400 191.600 C 4.400 194.267,4.242 196.000,4.000 196.000 C 3.744 196.000,3.600 199.600,3.600 206.000 C 3.600 212.159,3.748 216.000,3.986 216.000 C 4.198 216.000,5.143 215.741,6.086 215.424 C 11.994 213.437,14.052 213.132,23.100 212.904 L 32.000 212.680 32.000 211.759 C 32.000 211.252,32.157 210.424,32.349 209.919 C 32.541 209.413,32.913 208.280,33.175 207.400 C 33.438 206.520,33.803 205.440,33.986 205.000 C 35.053 202.434,35.788 200.780,36.640 199.021 C 37.168 197.933,37.600 196.894,37.600 196.713 C 37.600 196.531,38.320 194.839,39.200 192.952 C 40.080 191.065,40.800 189.453,40.800 189.370 C 40.800 189.287,41.981 186.560,43.425 183.310 C 46.977 175.312,47.108 175.016,47.842 173.300 C 48.194 172.475,48.824 171.035,49.242 170.100 C 49.659 169.165,50.341 167.635,50.758 166.700 C 51.176 165.765,51.787 164.370,52.116 163.600 C 53.269 160.908,54.483 158.184,55.415 156.200 C 56.818 153.213,62.400 140.425,62.400 140.197 C 62.400 140.089,59.745 140.000,56.500 140.000 C 42.506 140.000,33.034 135.621,25.786 125.800 C 24.120 123.544,23.200 122.974,23.200 124.200 M375.622 159.300 C 374.006 163.095,372.280 167.100,371.787 168.200 C 369.884 172.442,367.810 177.119,366.910 179.200 C 366.577 179.970,365.893 181.500,365.390 182.600 C 364.069 185.489,363.209 187.447,360.210 194.400 C 358.739 197.810,357.258 201.230,356.920 202.000 C 356.582 202.770,356.037 204.030,355.710 204.800 C 354.831 206.865,353.184 210.498,352.765 211.295 C 351.778 213.171,351.584 213.140,365.300 213.300 C 378.177 213.450,380.491 213.680,384.200 215.177 C 384.640 215.355,385.503 215.703,386.119 215.950 C 386.734 216.198,387.409 216.400,387.619 216.400 C 388.147 216.400,388.129 196.927,387.600 196.600 C 387.371 196.458,387.200 194.396,387.200 191.776 C 387.200 188.992,387.043 187.200,386.800 187.200 C 386.569 187.200,386.400 185.941,386.400 184.224 C 386.400 182.587,386.220 181.136,386.000 181.000 C 385.780 180.864,385.600 179.694,385.600 178.400 C 385.600 177.106,385.420 175.936,385.200 175.800 C 384.980 175.664,384.800 174.663,384.800 173.576 C 384.800 172.489,384.620 171.600,384.400 171.600 C 384.180 171.600,384.000 170.700,384.000 169.600 C 384.000 168.500,383.820 167.600,383.600 167.600 C 383.380 167.600,383.200 166.891,383.200 166.024 C 383.200 165.157,383.020 164.336,382.800 164.200 C 382.580 164.064,382.400 163.344,382.400 162.600 C 382.400 161.856,382.220 161.136,382.000 161.000 C 381.780 160.864,381.600 160.223,381.600 159.576 C 381.600 158.929,381.420 158.400,381.200 158.400 C 380.980 158.400,380.800 157.680,380.800 156.800 C 380.800 155.920,380.620 155.200,380.400 155.200 C 380.180 155.200,380.000 154.679,380.000 154.043 C 380.000 153.101,379.423 152.400,378.647 152.400 C 378.599 152.400,377.238 155.505,375.622 159.300 " stroke="none" fill="#2c3c6c" fill-rule="evenodd"></path><path id="path2" d="M193.048 128.093 C 190.111 128.871,189.067 130.465,181.200 146.200 L 173.800 161.000 171.800 161.280 C 170.700 161.434,167.550 161.832,164.800 162.165 C 162.050 162.498,158.720 162.943,157.400 163.154 C 156.080 163.365,152.930 163.820,150.400 164.166 C 143.082 165.168,141.106 165.576,139.400 166.440 C 134.383 168.980,133.298 176.268,137.321 180.400 C 138.588 181.701,148.087 190.905,152.370 194.981 C 156.080 198.512,156.040 198.741,151.841 198.015 C 147.296 197.230,145.218 196.890,141.647 196.348 L 138.293 195.839 133.886 186.893 C 128.889 176.751,128.257 175.987,124.626 175.686 C 120.152 175.315,119.606 175.912,113.847 187.487 C 109.650 195.922,109.293 196.400,107.198 196.400 C 106.573 196.400,105.192 196.571,104.131 196.781 C 103.069 196.990,100.940 197.340,99.400 197.558 C 88.407 199.115,87.529 199.442,86.034 202.529 C 84.030 206.668,84.656 207.868,93.402 216.656 C 100.787 224.076,100.600 223.706,99.579 228.869 C 99.347 230.041,98.999 231.810,98.806 232.800 C 96.630 243.931,96.918 246.424,100.652 248.792 C 103.117 250.355,104.978 250.370,107.951 248.850 C 110.690 247.449,118.569 243.354,121.655 241.728 L 123.911 240.539 128.455 242.927 C 143.286 250.721,143.662 250.850,146.680 249.155 C 149.376 247.641,151.287 244.124,150.625 241.896 C 150.478 241.403,150.186 239.920,149.975 238.600 C 149.765 237.280,149.415 235.210,149.198 234.000 C 148.475 229.972,147.995 227.019,147.767 225.200 L 147.541 223.400 152.554 218.423 C 158.028 212.987,158.544 212.837,157.671 216.934 C 157.034 219.925,156.765 221.474,156.374 224.400 C 156.182 225.830,155.826 228.080,155.581 229.400 C 153.944 238.236,155.344 241.859,161.182 243.894 C 164.312 244.985,165.963 244.357,181.400 236.207 C 190.970 231.155,192.712 230.241,194.169 229.506 L 195.738 228.715 199.369 230.567 C 201.366 231.587,204.170 233.071,205.600 233.865 C 221.263 242.570,227.295 244.981,230.563 243.844 C 236.043 241.936,237.572 237.980,236.069 229.600 C 235.374 225.728,234.742 222.255,234.357 220.200 C 233.675 216.556,233.472 213.890,233.888 214.049 C 234.492 214.280,243.228 222.516,243.600 223.206 C 243.791 223.558,243.469 226.397,242.830 230.006 C 240.450 243.444,240.431 243.707,241.635 245.888 C 244.084 250.319,247.424 251.018,252.800 248.225 C 254.670 247.253,258.760 245.145,261.889 243.541 L 267.578 240.623 272.489 243.135 C 275.190 244.516,279.264 246.626,281.542 247.823 C 286.210 250.276,287.842 250.525,290.280 249.155 C 293.268 247.477,294.983 243.967,294.060 241.416 C 293.807 240.716,293.600 239.510,293.600 238.737 C 293.600 237.963,293.164 234.916,292.631 231.965 C 292.097 229.014,291.551 225.880,291.417 225.000 L 291.173 223.400 297.814 216.800 C 306.103 208.563,307.125 206.667,305.442 202.640 C 304.190 199.642,302.941 199.151,292.551 197.565 C 288.178 196.897,284.009 196.252,283.288 196.130 C 282.023 195.918,281.811 195.579,277.488 186.903 C 272.640 177.174,271.821 176.115,268.840 175.715 C 263.970 175.061,262.915 176.113,257.518 187.006 L 253.129 195.863 248.264 196.554 C 245.589 196.933,241.782 197.491,239.804 197.793 C 237.826 198.095,236.160 198.293,236.100 198.234 C 236.041 198.175,239.368 194.813,243.493 190.763 C 254.470 179.986,254.756 179.692,255.612 178.287 C 256.983 176.038,256.729 171.764,255.081 169.373 C 253.082 166.473,250.221 165.347,243.000 164.616 C 239.472 164.259,218.808 161.261,218.000 160.988 C 217.670 160.877,214.160 154.199,210.200 146.147 C 201.124 127.694,199.805 126.305,193.048 128.093 M57.800 254.481 C 53.369 256.023,53.200 256.943,53.200 279.583 L 53.200 298.355 52.311 298.977 C 50.992 299.901,50.369 299.764,47.670 297.952 C 39.305 292.335,32.828 302.001,40.768 308.252 C 49.399 315.048,61.015 311.963,64.743 301.885 C 65.842 298.916,66.103 259.727,65.038 257.680 C 63.572 254.862,60.547 253.525,57.800 254.481 M93.800 254.483 C 90.774 255.540,89.646 257.084,87.279 263.400 C 86.619 265.160,85.354 268.490,84.467 270.800 C 83.580 273.110,81.834 277.700,80.585 281.000 C 79.337 284.300,77.692 288.620,76.931 290.600 C 76.169 292.580,74.922 295.910,74.158 298.000 C 73.395 300.090,72.601 302.107,72.393 302.483 C 71.113 304.795,71.656 308.474,73.537 310.227 C 76.913 313.373,82.378 311.671,83.926 306.991 C 84.521 305.194,84.812 304.440,85.738 302.300 L 86.387 300.800 95.545 300.800 C 102.395 300.800,104.801 300.926,105.093 301.300 C 105.308 301.575,106.095 303.405,106.842 305.366 C 108.879 310.715,111.100 312.458,114.942 311.722 C 118.643 311.013,120.686 306.739,119.150 302.919 C 118.441 301.156,118.160 300.422,116.800 296.800 C 116.098 294.930,115.378 293.040,115.200 292.600 C 114.713 291.397,112.672 285.992,110.669 280.600 C 102.108 257.558,101.901 257.066,100.208 255.790 C 98.172 254.254,95.824 253.775,93.800 254.483 M144.200 254.594 C 125.203 257.943,114.449 277.550,122.148 294.800 C 129.984 312.359,153.170 317.616,166.100 304.766 L 168.800 302.083 168.800 299.701 C 168.800 293.139,162.834 291.176,157.600 296.014 C 148.405 304.515,132.000 296.402,132.000 283.353 C 132.000 270.405,144.935 262.869,156.894 268.852 C 160.416 270.614,162.326 270.808,164.304 269.602 C 168.454 267.071,168.256 261.533,163.915 258.734 C 157.838 254.816,151.040 253.389,144.200 254.594 M176.991 254.972 C 176.052 255.535,175.011 256.632,174.491 257.606 L 173.600 259.276 173.600 282.989 C 173.600 310.856,173.482 310.182,178.667 311.912 C 183.552 313.543,186.354 309.750,186.382 301.471 C 186.404 295.089,185.918 295.002,193.873 302.809 C 204.291 313.033,206.253 313.952,210.136 310.430 C 214.725 306.267,213.986 304.781,201.067 292.200 C 195.646 286.920,191.208 282.391,191.205 282.135 C 191.200 281.708,193.078 279.912,205.289 268.667 C 210.315 264.037,211.263 262.342,210.421 259.487 C 209.154 255.189,203.618 253.182,200.800 256.000 C 200.690 256.110,198.800 257.818,196.600 259.794 C 194.400 261.771,191.461 264.471,190.069 265.794 C 186.633 269.060,186.637 269.063,186.393 263.400 C 186.134 257.407,185.445 255.914,182.281 254.500 C 180.584 253.742,178.774 253.903,176.991 254.972 M221.687 254.870 C 220.557 255.418,219.639 256.273,218.987 257.385 L 218.000 259.070 218.000 282.886 C 218.000 309.355,217.926 308.589,220.665 310.676 C 222.624 312.169,226.032 312.262,227.800 310.872 C 230.250 308.944,230.400 308.318,230.400 299.990 L 230.400 292.400 232.900 292.393 C 241.466 292.369,246.418 290.720,250.575 286.511 C 261.374 275.575,255.858 257.901,240.600 254.555 C 236.412 253.636,223.799 253.847,221.687 254.870 M283.600 254.565 C 248.834 260.925,252.917 311.699,288.200 311.766 C 309.734 311.807,324.276 288.156,313.876 270.007 C 313.432 269.233,312.824 268.122,312.524 267.537 C 308.076 258.870,294.167 252.632,283.600 254.565 M320.600 254.598 C 313.209 257.878,316.118 266.400,324.629 266.400 C 327.985 266.400,328.758 266.513,328.957 267.033 C 329.091 267.381,329.200 276.579,329.200 287.472 C 329.200 304.918,329.277 307.442,329.849 308.647 C 331.775 312.705,337.446 313.045,340.323 309.275 L 341.400 307.863 341.600 287.232 L 341.800 266.600 346.021 266.400 C 349.164 266.251,350.522 266.016,351.340 265.478 C 355.593 262.683,354.580 256.110,349.640 254.455 C 347.580 253.765,322.196 253.890,320.600 254.598 M238.577 266.836 C 244.485 268.324,245.352 276.198,239.920 279.036 C 239.189 279.418,237.475 279.600,234.620 279.600 L 230.400 279.600 230.400 273.633 C 230.400 270.351,230.509 267.381,230.643 267.033 C 230.938 266.264,235.822 266.142,238.577 266.836 M290.627 266.813 C 310.489 270.270,308.317 299.406,288.200 299.363 C 268.478 299.320,265.662 270.804,285.000 266.956 C 288.139 266.331,287.894 266.338,290.627 266.813 M98.056 282.019 C 100.710 288.827,100.860 288.400,95.824 288.400 C 90.690 288.400,90.841 288.698,93.051 282.955 C 94.057 280.340,94.975 277.878,95.091 277.484 C 95.496 276.107,96.129 277.075,98.056 282.019 " stroke="none" fill="#fbba31" fill-rule="evenodd"></path><path id="path3" d="M150.800 0.288 C 150.030 0.381,149.229 0.624,149.020 0.829 C 148.811 1.033,148.316 1.200,147.920 1.200 C 147.524 1.200,147.200 1.380,147.200 1.600 C 147.200 1.820,146.750 2.000,146.200 2.000 C 145.650 2.000,145.200 2.180,145.200 2.400 C 145.200 2.620,144.928 2.800,144.595 2.800 C 143.823 2.800,142.396 3.599,141.557 4.500 C 141.199 4.885,140.694 5.200,140.435 5.200 C 140.176 5.200,139.510 5.654,138.956 6.208 C 138.402 6.762,137.465 7.520,136.874 7.893 C 136.283 8.265,135.440 9.002,135.000 9.531 C 134.560 10.060,133.513 11.237,132.673 12.146 C 131.833 13.056,130.846 14.475,130.479 15.300 C 130.112 16.125,129.674 16.800,129.506 16.800 C 129.338 16.800,129.200 17.160,129.200 17.600 C 129.200 18.040,129.020 18.400,128.800 18.400 C 128.580 18.400,128.400 18.760,128.400 19.200 C 128.400 19.640,128.220 20.000,128.000 20.000 C 127.780 20.000,127.600 20.349,127.600 20.776 C 127.600 21.203,127.444 21.649,127.254 21.767 C 127.064 21.884,126.796 22.570,126.660 23.290 C 126.523 24.011,126.166 25.821,125.866 27.314 C 125.566 28.806,125.445 30.104,125.598 30.199 C 125.751 30.293,126.000 32.402,126.150 34.885 C 127.062 49.899,135.360 60.771,149.800 65.870 L 153.000 67.000 180.800 67.200 C 208.323 67.398,208.599 67.408,208.466 68.200 C 208.334 68.988,205.160 76.414,201.755 83.900 C 201.230 85.055,200.370 86.945,199.845 88.100 C 198.644 90.741,197.268 93.841,196.606 95.400 C 196.325 96.060,195.626 97.636,195.052 98.902 C 194.478 100.168,193.539 102.328,192.966 103.702 C 192.392 105.076,191.400 107.338,190.761 108.728 C 190.123 110.118,189.600 111.360,189.600 111.488 C 189.600 111.616,189.131 112.728,188.557 113.960 C 187.311 116.636,186.327 118.831,185.399 121.000 C 185.022 121.880,184.264 123.590,183.714 124.800 C 182.169 128.200,181.131 130.523,180.764 131.400 C 180.400 132.271,174.675 145.452,173.814 147.400 C 173.523 148.060,172.886 149.500,172.400 150.600 C 171.914 151.700,171.246 153.230,170.916 154.000 C 170.587 154.770,169.995 156.120,169.603 157.000 C 167.245 162.282,167.070 161.722,170.884 161.115 L 173.906 160.635 180.821 146.617 C 189.893 128.228,190.384 127.600,195.691 127.600 C 200.970 127.600,201.635 128.437,210.203 145.859 C 215.157 155.933,217.750 160.790,218.255 160.944 C 218.665 161.069,220.620 161.374,222.600 161.623 C 226.272 162.084,228.528 162.402,234.200 163.258 C 235.960 163.524,238.088 163.755,238.929 163.771 L 240.458 163.800 242.449 159.200 C 243.544 156.670,244.682 154.060,244.978 153.400 C 245.825 151.509,247.228 148.330,247.890 146.800 C 248.223 146.030,248.905 144.500,249.405 143.400 C 249.905 142.300,250.626 140.680,251.007 139.800 C 251.388 138.920,252.217 137.086,252.850 135.725 C 253.482 134.364,254.000 133.138,254.000 133.000 C 254.000 132.862,254.518 131.636,255.150 130.275 C 256.418 127.547,256.842 126.594,259.015 121.600 C 259.828 119.730,260.923 117.250,261.447 116.088 C 261.971 114.927,262.400 113.880,262.400 113.763 C 262.400 113.534,264.380 109.189,265.636 106.662 C 266.056 105.816,266.400 104.871,266.400 104.562 C 266.400 104.253,266.580 104.000,266.800 104.000 C 267.020 104.000,267.200 105.033,267.200 106.300 C 267.201 125.854,282.690 140.000,304.100 140.000 C 307.756 140.000,310.000 140.152,310.000 140.399 C 310.000 140.823,305.222 151.900,303.012 156.600 C 302.288 158.140,301.423 160.030,301.090 160.800 C 300.757 161.570,300.086 163.100,299.600 164.200 C 299.114 165.300,298.443 166.830,298.110 167.600 C 297.777 168.370,297.093 169.900,296.590 171.000 C 295.156 174.136,294.171 176.388,293.003 179.200 C 292.409 180.630,291.400 182.938,290.761 184.328 C 290.123 185.718,289.600 186.953,289.600 187.071 C 289.600 187.189,289.081 188.391,288.447 189.743 C 285.336 196.371,285.345 196.325,287.118 196.600 C 287.933 196.727,289.590 196.991,290.800 197.187 C 292.010 197.383,294.530 197.745,296.400 197.990 C 306.145 199.269,309.367 204.889,303.780 210.863 C 302.801 211.909,302.000 212.863,302.000 212.983 C 302.000 213.102,313.242 213.200,326.981 213.200 L 351.962 213.200 352.629 211.700 C 352.996 210.875,353.705 209.300,354.205 208.200 C 354.705 207.100,355.403 205.525,355.757 204.700 C 356.111 203.875,356.655 202.615,356.968 201.900 C 357.280 201.185,358.739 197.810,360.210 194.400 C 363.209 187.447,364.069 185.489,365.390 182.600 C 365.893 181.500,366.577 179.970,366.910 179.200 C 367.736 177.290,370.040 172.093,371.787 168.200 C 372.280 167.100,374.006 163.096,375.621 159.302 C 377.573 154.718,378.800 152.327,379.279 152.175 C 379.676 152.049,380.000 151.598,380.000 151.173 C 380.000 150.748,380.180 150.400,380.400 150.400 C 380.620 150.400,380.800 150.051,380.800 149.624 C 380.800 149.197,380.980 148.736,381.200 148.600 C 381.420 148.464,381.600 147.913,381.600 147.376 C 381.600 146.839,381.780 146.400,382.000 146.400 C 382.220 146.400,382.400 146.040,382.400 145.600 C 382.400 145.160,382.580 144.800,382.800 144.800 C 383.020 144.800,383.200 144.440,383.200 144.000 C 383.200 143.560,383.380 143.200,383.600 143.200 C 383.820 143.200,384.000 142.851,384.000 142.424 C 384.000 141.997,384.180 141.536,384.400 141.400 C 384.620 141.264,384.800 140.803,384.800 140.376 C 384.800 139.949,384.980 139.600,385.200 139.600 C 385.420 139.600,385.600 139.328,385.600 138.995 C 385.600 138.662,385.759 138.077,385.953 137.695 C 386.296 137.022,386.541 136.450,387.664 133.700 C 387.956 132.985,388.331 132.400,388.498 132.400 C 388.664 132.400,388.800 132.164,388.800 131.875 C 388.800 131.586,389.160 130.605,389.600 129.694 C 390.040 128.784,390.400 127.760,390.400 127.419 C 390.400 127.079,390.564 126.800,390.765 126.800 C 390.966 126.800,391.251 126.080,391.400 125.200 C 391.549 124.320,391.834 123.600,392.035 123.600 C 392.236 123.600,392.400 123.251,392.400 122.824 C 392.400 122.397,392.580 121.936,392.800 121.800 C 393.020 121.664,393.200 121.203,393.200 120.776 C 393.200 120.349,393.380 120.000,393.600 120.000 C 393.820 120.000,394.000 119.550,394.000 119.000 C 394.000 118.450,394.180 118.000,394.400 118.000 C 394.620 118.000,394.800 117.370,394.800 116.600 C 394.800 115.830,394.980 115.200,395.200 115.200 C 395.420 115.200,395.600 114.491,395.600 113.624 C 395.600 112.757,395.780 111.936,396.000 111.800 C 396.235 111.655,396.400 109.329,396.400 106.176 C 396.400 102.859,396.247 100.800,396.000 100.800 C 395.780 100.800,395.600 99.990,395.600 99.000 C 395.600 98.010,395.420 97.200,395.200 97.200 C 394.980 97.200,394.800 96.570,394.800 95.800 C 394.800 95.030,394.620 94.400,394.400 94.400 C 394.180 94.400,394.000 94.147,394.000 93.838 C 394.000 93.172,392.332 89.859,391.900 89.667 C 391.735 89.593,391.600 89.230,391.600 88.860 C 391.600 86.959,384.831 79.411,381.165 77.224 C 379.301 76.112,376.398 74.800,375.802 74.800 C 375.471 74.800,375.200 74.620,375.200 74.400 C 375.200 74.180,374.750 74.000,374.200 74.000 C 373.650 74.000,373.200 73.820,373.200 73.600 C 373.200 73.380,372.581 73.200,371.824 73.200 C 371.067 73.200,370.336 73.020,370.200 72.800 C 370.064 72.580,368.894 72.400,367.600 72.400 C 366.306 72.400,365.136 72.220,365.000 72.000 C 364.841 71.743,358.596 71.600,347.576 71.600 C 336.392 71.600,330.400 71.740,330.400 72.000 C 330.400 72.259,325.357 72.405,316.100 72.414 C 291.584 72.439,285.695 73.931,277.403 82.224 C 276.631 82.995,276.000 83.457,276.000 83.249 C 276.000 82.899,278.747 76.328,280.743 71.900 C 281.214 70.855,281.980 69.145,282.445 68.100 C 282.909 67.055,283.719 65.250,284.245 64.088 C 284.770 62.927,285.200 61.897,285.200 61.800 C 285.200 61.703,285.630 60.673,286.155 59.512 C 286.681 58.350,287.491 56.545,287.955 55.500 C 288.420 54.455,289.180 52.745,289.645 51.700 C 290.109 50.655,290.919 48.850,291.445 47.688 C 291.970 46.527,292.400 45.346,292.400 45.064 C 292.400 44.782,292.760 44.164,293.200 43.692 C 293.640 43.220,294.000 42.297,294.000 41.640 C 294.000 40.984,294.180 40.336,294.400 40.200 C 294.639 40.052,294.800 37.404,294.800 33.600 C 294.800 29.796,294.639 27.148,294.400 27.000 C 294.180 26.864,294.000 26.133,294.000 25.376 C 294.000 24.619,293.820 24.000,293.600 24.000 C 293.380 24.000,293.200 23.460,293.200 22.800 C 293.200 22.140,293.020 21.600,292.800 21.600 C 292.580 21.600,292.400 21.060,292.400 20.400 C 292.400 19.740,292.220 19.200,292.000 19.200 C 291.780 19.200,291.600 18.882,291.600 18.493 C 291.600 18.104,291.150 17.123,290.600 16.314 C 290.050 15.505,289.599 14.698,289.598 14.521 C 289.597 14.345,289.057 13.625,288.398 12.922 C 287.739 12.219,287.200 11.528,287.200 11.387 C 287.200 10.984,282.737 6.800,282.307 6.800 C 282.095 6.800,281.417 6.260,280.800 5.600 C 280.183 4.940,279.391 4.400,279.040 4.400 C 278.688 4.400,278.400 4.220,278.400 4.000 C 278.400 3.780,278.040 3.600,277.600 3.600 C 277.160 3.600,276.800 3.420,276.800 3.200 C 276.800 2.980,276.440 2.800,276.000 2.800 C 275.560 2.800,275.200 2.620,275.200 2.400 C 275.200 2.180,274.840 2.000,274.400 2.000 C 273.960 2.000,273.600 1.820,273.600 1.600 C 273.600 1.380,273.186 1.200,272.680 1.200 C 272.174 1.200,271.535 0.975,271.260 0.700 C 270.779 0.218,154.667 -0.179,150.800 0.288 M51.200 72.000 C 51.200 72.231,49.941 72.400,48.224 72.400 C 46.587 72.400,45.136 72.580,45.000 72.800 C 44.864 73.020,44.234 73.200,43.600 73.200 C 42.966 73.200,42.336 73.380,42.200 73.600 C 42.064 73.820,41.603 74.000,41.176 74.000 C 40.749 74.000,40.400 74.180,40.400 74.400 C 40.400 74.620,40.046 74.800,39.614 74.800 C 38.724 74.800,36.057 75.958,35.298 76.674 C 35.021 76.934,34.436 77.262,33.998 77.401 C 33.559 77.540,33.200 77.822,33.200 78.027 C 33.200 78.232,32.930 78.400,32.600 78.400 C 32.270 78.400,32.000 78.580,32.000 78.800 C 32.000 79.020,31.837 79.200,31.639 79.200 C 31.002 79.200,25.976 84.529,25.331 85.888 C 24.989 86.610,24.549 87.200,24.354 87.200 C 24.159 87.200,24.000 87.560,24.000 88.000 C 24.000 88.440,23.865 88.801,23.700 88.803 C 23.341 88.807,22.400 90.744,22.400 91.480 C 22.400 91.766,22.265 92.001,22.100 92.003 C 21.699 92.007,20.800 93.981,20.800 94.856 C 20.800 95.239,20.620 95.664,20.400 95.800 C 20.180 95.936,20.000 96.667,20.000 97.424 C 20.000 98.181,19.820 98.800,19.600 98.800 C 19.348 98.800,19.200 101.533,19.200 106.200 C 19.200 110.867,19.348 113.600,19.600 113.600 C 19.820 113.600,20.000 114.320,20.000 115.200 C 20.000 116.080,20.180 116.800,20.400 116.800 C 20.620 116.800,20.800 117.239,20.800 117.776 C 20.800 118.313,20.980 118.864,21.200 119.000 C 21.420 119.136,21.600 119.597,21.600 120.024 C 21.600 120.451,21.780 120.800,22.000 120.800 C 22.220 120.800,22.400 121.160,22.400 121.600 C 22.400 122.040,22.580 122.400,22.800 122.400 C 23.020 122.400,23.200 122.658,23.200 122.973 C 23.200 123.288,23.521 123.648,23.913 123.773 C 24.306 123.897,24.928 124.509,25.296 125.132 C 30.775 134.407,42.513 140.000,56.500 140.000 C 59.745 140.000,62.400 140.089,62.400 140.197 C 62.400 140.425,56.818 153.213,55.415 156.200 C 54.483 158.184,53.269 160.908,52.116 163.600 C 51.787 164.370,51.176 165.765,50.758 166.700 C 50.341 167.635,49.659 169.165,49.242 170.100 C 48.824 171.035,48.194 172.475,47.842 173.300 C 47.108 175.016,46.977 175.312,43.425 183.310 C 41.981 186.560,40.800 189.287,40.800 189.370 C 40.800 189.453,40.080 191.065,39.200 192.952 C 38.320 194.839,37.600 196.531,37.600 196.713 C 37.600 196.894,37.168 197.933,36.640 199.021 C 35.788 200.780,35.053 202.434,33.986 205.000 C 33.803 205.440,33.438 206.520,33.175 207.400 C 32.913 208.280,32.541 209.413,32.349 209.919 C 32.157 210.424,32.000 211.279,32.000 211.819 L 32.000 212.800 60.176 212.800 C 75.673 212.800,88.447 212.648,88.562 212.461 C 88.677 212.275,88.222 211.600,87.550 210.961 C 82.653 206.306,85.353 199.213,92.400 198.221 C 96.917 197.585,99.818 197.168,102.500 196.768 C 104.095 196.531,106.300 196.216,107.400 196.068 L 109.400 195.800 113.800 187.069 C 116.608 181.497,118.743 177.773,119.700 176.775 C 120.525 175.914,121.200 175.033,121.200 174.817 C 121.200 174.601,121.629 173.473,122.153 172.312 C 123.759 168.755,125.978 163.668,128.484 157.800 C 129.800 154.720,131.309 151.250,131.838 150.088 C 132.367 148.927,132.800 147.908,132.800 147.824 C 132.800 147.740,133.411 146.350,134.159 144.736 C 136.337 140.028,137.600 137.190,137.600 137.000 C 137.600 136.903,138.069 135.783,138.643 134.512 C 142.570 125.810,145.680 118.593,146.189 117.001 C 147.593 112.611,147.799 111.186,147.781 106.000 C 147.728 90.702,138.370 78.355,123.319 73.725 L 119.800 72.642 90.300 72.492 C 72.572 72.401,60.800 72.193,60.800 71.971 C 60.800 71.764,58.679 71.600,56.000 71.600 C 53.067 71.600,51.200 71.756,51.200 72.000 M152.124 196.650 C 151.608 197.742,151.669 197.799,153.738 198.173 L 155.275 198.450 154.538 197.463 C 153.289 195.793,152.633 195.572,152.124 196.650 " stroke="none" fill="#51a9f0" fill-rule="evenodd"></path><path id="path4" d="M199.800 128.652 C 200.020 128.845,200.920 129.632,201.799 130.401 L 203.398 131.800 202.199 130.466 C 201.540 129.732,200.640 128.945,200.200 128.717 C 199.760 128.489,199.580 128.460,199.800 128.652 M171.700 161.076 C 172.085 161.176,172.715 161.176,173.100 161.076 C 173.485 160.975,173.170 160.893,172.400 160.893 C 171.630 160.893,171.315 160.975,171.700 161.076 M166.705 161.883 C 167.202 161.979,167.922 161.975,168.305 161.875 C 168.687 161.775,168.280 161.696,167.400 161.701 C 166.520 161.705,166.207 161.787,166.705 161.883 M249.775 184.500 L 248.600 185.800 249.900 184.625 C 250.615 183.979,251.200 183.394,251.200 183.325 C 251.200 183.016,250.870 183.288,249.775 184.500 M148.800 191.725 C 148.800 191.794,149.385 192.379,150.100 193.025 L 151.400 194.200 150.225 192.900 C 149.130 191.688,148.800 191.416,148.800 191.725 M152.488 195.413 C 153.086 196.043,153.647 196.477,153.735 196.379 C 153.823 196.280,153.333 195.765,152.647 195.234 L 151.400 194.269 152.488 195.413 M106.300 196.282 C 106.795 196.378,107.605 196.378,108.100 196.282 C 108.595 196.187,108.190 196.109,107.200 196.109 C 106.210 196.109,105.805 196.187,106.300 196.282 M101.100 197.082 C 101.595 197.178,102.405 197.178,102.900 197.082 C 103.395 196.987,102.990 196.909,102.000 196.909 C 101.010 196.909,100.605 196.987,101.100 197.082 M95.705 197.887 C 96.314 197.979,97.214 197.977,97.705 197.882 C 98.197 197.787,97.700 197.711,96.600 197.714 C 95.500 197.717,95.097 197.795,95.705 197.887 M89.845 198.728 C 89.733 198.908,90.173 198.977,90.821 198.882 C 91.470 198.787,92.000 198.640,92.000 198.555 C 92.000 198.250,90.043 198.407,89.845 198.728 M306.101 205.400 C 306.105 206.280,306.187 206.593,306.283 206.095 C 306.379 205.598,306.375 204.878,306.275 204.495 C 306.175 204.113,306.096 204.520,306.101 205.400 M87.308 210.658 C 88.138 211.534,88.693 212.374,88.541 212.525 C 88.390 212.676,75.607 212.800,60.133 212.800 C 41.644 212.800,32.000 212.937,32.000 213.200 C 32.000 213.463,41.842 213.604,60.700 213.613 L 89.400 213.626 94.500 218.548 C 97.937 221.865,99.600 223.752,99.600 224.333 L 99.600 225.196 58.900 225.300 L 18.200 225.404 59.100 225.502 L 100.000 225.600 100.000 224.454 C 100.000 223.503,98.791 222.095,92.900 216.186 C 88.995 212.269,86.479 209.782,87.308 210.658 M296.652 217.948 C 291.380 223.230,291.127 223.557,291.388 224.745 L 291.662 225.993 333.531 226.139 C 373.312 226.279,378.508 226.405,379.026 227.242 C 379.148 227.439,379.687 227.600,380.224 227.600 C 380.761 227.600,381.200 227.780,381.200 228.000 C 381.200 228.220,381.434 228.400,381.720 228.400 C 382.456 228.400,384.393 229.341,384.397 229.700 C 384.399 229.865,384.820 230.000,385.332 230.000 C 386.728 230.000,387.164 228.688,387.326 224.000 C 387.405 221.690,387.579 219.233,387.711 218.540 C 388.016 216.943,387.395 216.374,384.135 215.264 C 377.985 213.171,378.526 213.196,338.876 213.198 C 314.354 213.200,302.036 213.066,302.200 212.800 C 302.765 211.885,301.923 212.667,296.652 217.948 M152.473 218.527 C 147.832 223.179,147.602 223.488,147.632 225.006 C 147.649 225.883,147.754 226.375,147.865 226.100 C 148.217 225.228,155.893 225.414,156.124 226.300 C 156.225 226.685,156.331 226.100,156.359 225.000 C 156.388 223.900,156.527 222.567,156.668 222.037 C 156.849 221.363,156.788 221.160,156.463 221.361 C 156.208 221.518,156.000 222.447,156.000 223.424 L 156.000 225.200 152.000 225.200 C 146.708 225.200,146.738 224.967,152.774 219.075 C 157.332 214.626,157.556 214.464,157.714 215.507 C 157.870 216.534,157.884 216.523,157.940 215.324 C 158.041 213.167,157.510 213.478,152.473 218.527 M233.738 216.049 C 233.873 217.232,234.151 219.100,234.357 220.200 C 234.742 222.255,235.374 225.728,236.069 229.600 C 236.942 234.470,236.927 237.514,236.022 239.113 L 235.179 240.600 236.189 239.478 C 237.258 238.291,237.702 232.518,236.851 230.874 C 236.659 230.503,236.416 229.255,236.310 228.100 L 236.117 226.000 239.459 226.000 L 242.800 226.000 242.848 227.500 C 242.888 228.758,242.978 228.581,243.409 226.402 C 244.045 223.190,244.210 223.475,238.779 218.400 C 233.314 213.294,233.430 213.348,233.738 216.049 M156.800 218.867 C 156.800 220.003,156.866 220.858,156.947 220.767 C 157.287 220.380,157.471 216.800,157.151 216.800 C 156.958 216.800,156.800 217.730,156.800 218.867 M3.600 218.576 C 3.600 219.113,3.760 219.651,3.955 219.772 C 4.364 220.025,4.751 218.841,4.502 218.100 C 4.210 217.235,3.600 217.557,3.600 218.576 M4.471 224.525 C 4.537 225.737,4.728 226.644,4.896 226.541 C 5.361 226.253,5.258 222.883,4.775 222.584 C 4.489 222.408,4.389 223.045,4.471 224.525 M291.835 227.900 C 292.210 229.976,292.400 230.032,292.400 228.067 C 292.400 227.150,292.212 226.400,291.982 226.400 C 291.717 226.400,291.663 226.950,291.835 227.900 M197.211 229.943 C 198.415 230.571,200.660 231.767,202.200 232.599 C 208.257 235.872,215.450 239.507,216.400 239.775 C 216.950 239.930,215.330 238.992,212.800 237.690 C 210.270 236.388,207.480 234.913,206.600 234.412 C 202.956 232.336,195.971 228.800,195.514 228.800 C 195.243 228.800,196.007 229.314,197.211 229.943 M193.400 229.859 C 192.740 230.219,190.580 231.367,188.600 232.409 C 182.885 235.419,177.087 238.479,176.000 239.060 C 175.450 239.354,175.205 239.596,175.455 239.598 C 175.895 239.600,180.723 237.171,189.000 232.784 C 191.200 231.618,193.404 230.470,193.897 230.232 C 194.390 229.994,194.795 229.665,194.797 229.500 C 194.801 229.100,194.783 229.105,193.400 229.859 M242.000 231.867 C 242.000 233.581,242.186 233.523,242.533 231.700 C 242.675 230.953,242.614 230.400,242.390 230.400 C 242.176 230.400,242.000 231.060,242.000 231.867 M292.628 232.261 C 292.997 234.303,293.200 234.455,293.200 232.690 C 293.200 231.897,293.009 231.129,292.774 230.984 C 292.485 230.805,292.438 231.212,292.628 232.261 M241.467 235.067 C 241.320 235.213,241.224 236.158,241.253 237.167 L 241.307 239.000 241.595 237.000 C 241.903 234.871,241.888 234.646,241.467 235.067 M293.499 237.919 C 293.728 241.155,293.932 241.417,293.968 238.524 C 293.986 237.162,293.851 235.955,293.669 235.842 C 293.486 235.730,293.410 236.664,293.499 237.919 M318.175 256.100 L 317.000 257.400 318.300 256.225 C 319.015 255.579,319.600 254.994,319.600 254.925 C 319.600 254.616,319.270 254.888,318.175 256.100 M197.978 258.300 L 196.600 259.800 198.100 258.422 C 199.496 257.138,199.784 256.800,199.478 256.800 C 199.412 256.800,198.737 257.475,197.978 258.300 M186.484 263.876 C 186.389 268.478,186.722 269.102,188.342 267.361 L 189.400 266.223 188.374 267.111 C 186.868 268.416,186.839 268.362,186.698 263.900 L 186.569 259.800 186.484 263.876 M193.978 261.900 L 192.600 263.400 194.100 262.022 C 195.496 260.738,195.784 260.400,195.478 260.400 C 195.412 260.400,194.737 261.075,193.978 261.900 M308.383 262.500 C 309.364 263.545,310.219 264.400,310.283 264.400 C 310.584 264.400,310.266 264.041,308.500 262.383 L 306.600 260.600 308.383 262.500 M147.705 266.687 C 148.314 266.779,149.214 266.777,149.705 266.682 C 150.197 266.587,149.700 266.511,148.600 266.514 C 147.500 266.517,147.097 266.595,147.705 266.687 M232.512 266.695 C 233.564 266.777,235.184 266.776,236.112 266.692 C 237.040 266.608,236.180 266.541,234.200 266.542 C 232.220 266.543,231.460 266.612,232.512 266.695 M323.300 266.694 C 324.345 266.776,326.055 266.776,327.100 266.694 C 328.145 266.612,327.290 266.544,325.200 266.544 C 323.110 266.544,322.255 266.612,323.300 266.694 M343.700 266.694 C 344.745 266.776,346.455 266.776,347.500 266.694 C 348.545 266.612,347.690 266.544,345.600 266.544 C 343.510 266.544,342.655 266.612,343.700 266.694 M230.562 273.400 C 230.562 276.920,230.624 278.306,230.698 276.481 C 230.772 274.656,230.772 271.776,230.697 270.081 C 230.622 268.386,230.561 269.880,230.562 273.400 M328.986 287.200 C 328.986 298.310,329.037 302.855,329.100 297.300 C 329.162 291.745,329.162 282.655,329.100 277.100 C 329.037 271.545,328.986 276.090,328.986 287.200 M203.775 270.100 L 202.600 271.400 203.900 270.225 C 204.615 269.579,205.200 268.994,205.200 268.925 C 205.200 268.616,204.870 268.888,203.775 270.100 M199.375 274.100 L 198.200 275.400 199.500 274.225 C 200.712 273.130,200.984 272.800,200.675 272.800 C 200.606 272.800,200.021 273.385,199.375 274.100 M194.181 278.900 L 192.600 280.600 194.300 279.019 C 195.881 277.548,196.184 277.200,195.881 277.200 C 195.816 277.200,195.051 277.965,194.181 278.900 M304.514 283.000 C 304.517 284.100,304.595 284.503,304.687 283.895 C 304.779 283.286,304.777 282.386,304.682 281.895 C 304.587 281.403,304.511 281.900,304.514 283.000 M271.709 283.200 C 271.709 284.190,271.787 284.595,271.882 284.100 C 271.978 283.605,271.978 282.795,271.882 282.300 C 271.787 281.805,271.709 282.210,271.709 283.200 M237.500 292.282 C 237.995 292.378,238.805 292.378,239.300 292.282 C 239.795 292.187,239.390 292.109,238.400 292.109 C 237.410 292.109,237.005 292.187,237.500 292.282 M230.565 299.400 C 230.566 303.360,230.626 304.926,230.698 302.880 C 230.771 300.834,230.771 297.594,230.698 295.680 C 230.624 293.766,230.565 295.440,230.565 299.400 M299.375 294.900 L 298.200 296.200 299.500 295.025 C 300.215 294.379,300.800 293.794,300.800 293.725 C 300.800 293.416,300.470 293.688,299.375 294.900 M186.553 301.000 C 186.553 303.640,186.618 304.668,186.697 303.284 C 186.775 301.901,186.774 299.741,186.695 298.484 C 186.616 297.228,186.552 298.360,186.553 301.000 M209.000 300.000 C 210.306 301.320,211.465 302.400,211.575 302.400 C 211.685 302.400,210.706 301.320,209.400 300.000 C 208.094 298.680,206.935 297.600,206.825 297.600 C 206.715 297.600,207.694 298.680,209.000 300.000 M287.107 299.490 C 287.826 299.579,288.906 299.577,289.507 299.486 C 290.108 299.395,289.520 299.322,288.200 299.324 C 286.880 299.326,286.388 299.401,287.107 299.490 M210.749 340.500 C 210.721 340.555,210.635 340.960,210.557 341.400 C 210.480 341.840,210.235 343.190,210.013 344.400 C 209.377 347.862,210.157 350.360,212.542 352.500 C 213.277 353.159,216.445 353.200,266.961 353.205 C 296.463 353.208,320.960 353.305,321.400 353.420 C 321.978 353.570,322.422 353.292,323.000 352.415 C 323.440 351.748,324.027 351.202,324.304 351.201 C 324.900 351.200,334.800 341.393,334.800 340.804 C 334.800 340.458,210.926 340.154,210.749 340.500 M63.042 347.133 C 62.582 347.876,66.631 351.286,67.183 350.620 C 67.466 350.279,67.540 350.000,67.347 350.000 C 67.154 350.000,66.231 349.280,65.297 348.400 C 63.480 346.689,63.358 346.620,63.042 347.133 " stroke="none" fill="#fa7384" fill-rule="evenodd"></path></g></svg>